<?xml version="1.0" encoding="utf-8"?>
<!-- Generator: Adobe Illustrator 19.0.0, SVG Export Plug-In . SVG Version: 6.00 Build 0)  -->
<svg version="1.1" id="Layer_1" xmlns="http://www.w3.org/2000/svg" xmlns:xlink="http://www.w3.org/1999/xlink" x="0px" y="0px"
	 viewBox="-143 45 512 512" style="enable-background:new -143 45 512 512;" xml:space="preserve">
<path d="M113,557c-141.2,0-256-114.8-256-256S-28.2,45,113,45s256,114.8,256,256S254.2,557,113,557z M113,87.7
	c-117.6,0-213.3,95.7-213.3,213.3S-4.6,514.3,113,514.3S326.3,418.6,326.3,301S230.6,87.7,113,87.7z M219.7,301
	c0-11.8-9.5-21.3-21.3-21.3h-64V173c0-11.8-9.6-21.3-21.3-21.3s-21.3,9.5-21.3,21.3v128c0,11.8,9.6,21.3,21.3,21.3h85.3
	C210.1,322.3,219.7,312.8,219.7,301z"/>
</svg>
