<?xml version="1.0" encoding="UTF-8"?>
<svg id="Camada_1" xmlns="http://www.w3.org/2000/svg" version="1.1" viewBox="0 0 432 24.51">
  <!-- Generator: Adobe Illustrator 29.6.0, SVG Export Plug-In . SVG Version: 2.1.1 Build 207)  -->
  <defs>
    <style>
      .st0 {
        fill: #442d0f;
      }
    </style>
  </defs>
  <path class="st0" d="M219.63,13.63c0,2-1.62,3.63-3.63,3.63s-3.63-1.62-3.63-3.63,1.62-3.63,3.63-3.63,3.63,1.62,3.63,3.63Z"/>
  <g>
    <g>
      <path class="st0" d="M416.18,13.63c6,0,10.88-4.87,10.88-10.88,0,3.26,1.43,6.18,3.69,8.17,1.66,1.46,1.66,3.96,0,5.42-2.26,1.99-3.69,4.91-3.69,8.17,0-6.01-4.88-10.88-10.88-10.88Z"/>
      <path class="st0" d="M411.24,13.63c0,2,1.62,3.63,3.63,3.63s3.63-1.62,3.63-3.63-1.62-3.63-3.63-3.63-3.63,1.62-3.63,3.63Z"/>
    </g>
    <rect class="st0" x="213.7" y="12.86" width="200.77" height="1.54"/>
    <g>
      <rect class="st0" x="20.76" y="12.86" width="200.77" height="1.54"/>
      <g>
        <path class="st0" d="M4.94,24.51c0-3.26-1.43-6.18-3.69-8.17-1.66-1.46-1.66-3.96,0-5.42,2.26-1.99,3.69-4.91,3.69-8.17,0,6.01,4.88,10.88,10.88,10.88-6,0-10.88,4.87-10.88,10.88Z"/>
        <path class="st0" d="M20.76,13.63c0,2-1.62,3.63-3.63,3.63s-3.63-1.62-3.63-3.63,1.62-3.63,3.63-3.63,3.63,1.62,3.63,3.63Z"/>
      </g>
    </g>
  </g>
</svg>