<?xml version="1.0" encoding="UTF-8"?>
<svg xmlns="http://www.w3.org/2000/svg" xmlns:xlink="http://www.w3.org/1999/xlink" viewBox="21 26.5 457 430" width="32" height="32">
  <defs>
    <path id="hm" fill="none" d="M127,450.5 L127,444 L125,436 L126,426 L131,418.5 L137.5,411 L142.5,404.5 L147.5,395.5 L150,385 L149,376 L150,363 L152,353 L155.5,345.5 L162,337.5 L167,331.5 L172.5,326 L179.5,320 L186.5,316 L189,313.5 L185,307 L181,298 L178.5,292.5 L176,281 L177,272.5 L177.5,263 L178.5,257 L169.5,254 L160.5,254.5 L155.5,259.5 L150,266 L146.5,274.5 L143,282.5 L141.5,290.5 L138.5,299 L136,306.5 L131.5,312 L126,317 L122.5,318.5 L124.5,313.5 L126,309 L126,302 L122.5,307 L120,313 L116,318.5 L112,324.5 L106.5,331 L100.5,336 L95,340.5 L89,345 L93,337.5 L93,329.5 L86.5,337.5 L80,344 L72.5,349 L62,354.5 L52,355.5 L42.5,355.5 L33.5,354 L27,353 L33.5,343 L41.5,337.5 L51.5,331.5 L59.5,328.5 L68,325 L76,322.5 L86,318 L91.5,313 L96.5,305.5 L100,297.5 L103,289 L104,281.5 L109,272.5 L113,267 L119.5,259.5 L125,254 L130,251.5 L139,248 L147.5,246.5 L157,245 L165.5,244 L176,244 L183.5,244 L190.5,235 L198,227 L205.5,221 L215.5,216 L224.5,213 L233.5,210.5 L241.5,208 L250.5,206.5 L259,204.5 L268,201.5 L276,198 L284,194 L292.5,191.5 L292.5,191.5 L300,187.5 L308,181 L316,173.5 L324.5,164.5 L330,155.5 L336,148 L340.5,140.5 L345,135 L348,127 L342.5,132.5 L336.5,136.5 L331,140.5 L326,145 L318,148 L323.5,143 L330,136.5 L334,131.5 L338.5,123.5 L340,117 L332.5,124.5 L327.5,129.5 L322.5,133.5 L315.5,137.5 L309,140 L301.5,140 L309,134 L314.5,127.5 L320,120 L324.5,113 L327,106.5 L330,97.5 L326,102 L321,109 L316,112 L310.5,113 L317,107 L322,102 L325,94 L327.5,90.5 L319.5,95.5 L313,96.5 L307,97.5 L315.5,89 L321,82.5 L327,76 L333.5,69.5 L338.5,64.5 L347.5,60.5 L354.5,59.5 L361,59 L354.5,56.5 L350,53 L358,54 L364.5,52 L372.5,47.5 L381,45 L390,43 L397.5,40.5 L404,37.5 L409,32.5 L413.5,38.5 L419.5,42.5 L425,45.5 L431,50.5 L434,58 L436.5,64.5 L440,71 L444,77 L449,83.5 L453,88.5 L458,93 L462,100 L467,106.5 L468.5,114.5 L465.5,120 L459,122.5 L454,123.5 L449,120 L443,117 L438.5,113 L432.5,111 L427.5,109.5 L421,108 L417,106.5 L411,103 L407,100.5 L404.5,97.5 L401.5,94 L400,89 L397.5,85 L396.5,81.5 L395.5,86 L395.5,90 L397.5,96.5 L399,102 L400,109 L398,119.5 L398,127.5 L402,136 L408,142.5 L412,148 L417,154.5 L420,162 L424.5,171 L426,177.5 L427,186 L427,193 L423.5,186.5 L420,181 L415.5,177 L410.5,173.5 L404,169.5 L411,177 L414.5,181.5 L417,188.5 L419.5,193 L424.5,198 L431,199 L438.5,200 L445,200 L452,200.5 L459.5,200.5 L466,202 L471,207 L472,214.5 L469.5,222 L466,228.5 L462,235 L457,240 L453,245.5 L450,250.5 L445,255.5 L440.5,259 L435,260.5 L428.5,262 L423.5,264.5 L418,266 L412,268 L406.5,270 L403,270 L404,265.5 L406.5,259 L409,253 L412,247.5 L417,242.5 L422,241.5 L428.5,243 L436.5,240 L444,236 L450,231 L454.5,226 L456.5,218.5 L455.5,213.5 L450.5,214.5 L445,218 L439,220 L431.5,223.5 L425,226 L419.5,227.5 L413,228.5 L407,230 L401.5,229.5 L395.5,227.5 L389,225 L384,222.5 L380,220 L377,218 L373.5,214.5 L368.5,210.5 L365.5,206.5 L361,204.5 L363,210.5 L366,216 L372,222 L377,226 L382.5,229.5 L388.5,232.5 L392.5,236 L389,240 L383.5,243 L378.5,248 L372.5,251.5 L366,254 L361,257 L355.5,260.5 L350,262 L343,265.5 L336.5,268 L330,269.5 L323.5,270 L316,271 L309,272.5 L302,273.5 L297.5,274.5 L290.5,276 L285,277 L279.5,279.5 L272.5,281.5 L266,284 L259.5,286.5 L259.5,280 L260.5,273.5 L260.5,267 L260.5,261 L259.5,257 L257,252 L255.5,247.5 L254,243 L252,240.5 L252,243 L253,248 L254,253 L254,257 L254,261 L254.5,266 L254.5,271 L254.5,276 L254.5,281 L254,286.5 L254,292.5 L254,300 L250.5,305.5 L246.5,312 L243,318 L238.5,322 L233.5,327 L227.5,331 L222,334 L216,337.5 L209.5,340 L200.5,343 L195.5,345.5 L189,349 L182.5,353 L182.5,353 L177.5,355.5 L177.5,355.5 L172,359.5 L166,365.5 L160.5,373.5 L158,380 L157,390 L156.5,395.5 L155.5,404 L156.5,412 L155.5,420 L153,427.5 L150,434 L145,439 L140,444 L134,448 L127,450.5"/>
  </defs>
  <use xlink:href="#hm" href="#hm" stroke="#000000" stroke-width="34" stroke-linecap="round" stroke-linejoin="round"/>
  <use xlink:href="#hm" href="#hm" stroke="#0a0a0a" stroke-width="24" stroke-linecap="round" stroke-linejoin="round"/>
  <use xlink:href="#hm" href="#hm" stroke="#4a4a4a" stroke-width="14" stroke-linecap="round" stroke-linejoin="round"/>
  <use xlink:href="#hm" href="#hm" stroke="#c8c8c8" stroke-width="7.5" stroke-linecap="round" stroke-linejoin="round"/>
  <use xlink:href="#hm" href="#hm" stroke="#f4f4f4" stroke-width="3.8" stroke-linecap="round" stroke-linejoin="round"/>
  <use xlink:href="#hm" href="#hm" stroke="#ffffff" stroke-width="2" stroke-linecap="round" stroke-linejoin="round"/>
</svg>
