<?xml version="1.0" encoding="utf-8"?>
<!-- Generator: Adobe Illustrator 26.0.0, SVG Export Plug-In . SVG Version: 6.00 Build 0)  -->
<svg version="1.1" id="Layer_1" xmlns="http://www.w3.org/2000/svg" xmlns:xlink="http://www.w3.org/1999/xlink" x="0px" y="0px"
	 viewBox="0 0 960 540" style="enable-background:new 0 0 960 540;" xml:space="preserve">
<style type="text/css">
	.st0{fill:#FFFFFF;}
	.st1{fill:#214281;}
	.st2{fill:#EF1A15;}
</style>
<g id="_x23_fdfdfbff">
	<path class="st0" d="M493.6,6c1.1-0.2,2.2-0.5,3.4-0.8c0.5,0.2,1.4,0.7,1.9,0.9c33.4-0.1,66.8,0.1,100.2,0.1
		c18.3,0.4,36.6,0.3,54.9,0.1c26.3,0.5,52.7-0.2,79,0.5c12.3,0.3,24.7-0.8,37,0c44,0.1,88,0,132,0c17.3-0.7,34.6-0.2,52,0
		c0.1,26.7,0,53.3,0,80c0.3,3,0.4,6,0,9.1c-0.2,147.2,0.1,294.4-0.2,441.6c-79.6-0.1-159.2,0.1-238.8,0c-55.7,0.1-111.3-0.4-167-0.2
		c-181,0-362.1,0-543.1,0C4.8,460.6,5,383.8,4.9,307c0.5-99.7,0-199.3,0.3-299C5,6.7,5.6,6,6.8,5.9C112.6,5.8,218.3,6,324,5.8
		C380.6,6,437.1,5.7,493.6,6L493.6,6z M13.3,10.3c0.1,89.2-0.1,178.5-0.2,267.8c-0.7,8.6-0.3,17.3-0.5,26c-0.4,55-0.6,110-0.6,165
		c0.1,21.4-0.3,42.8,0.2,64.1c44.6,0,89.2-0.2,133.8,0.2c266.2,0.1,532.5,0.1,798.7,0.1c1.9,0.1,0.9-2.4,1.2-3.5
		c-0.1-61.7,0-123.4,0-185c0.1-8.5-0.4-16.9,0.4-25.4c-0.1-1.9-0.4-3.8-0.4-5.7c0-60.3-0.3-120.7,0.1-181c-0.6-8.3,0-16.7-0.1-25
		c-0.1-28.3,0-56.7,0-85c0-4.1,0.2-8.2-0.2-12.3c-98.1,0.2-196.3-0.1-294.5,0.1c0.5,1.6,1.6,2.9,2.6,4.2c-1.8-1.5-2.8-4.6-5.6-4.3
		c-50.3-0.5-100.7,0-151-0.5C335.8,10.2,174.5,10.2,13.3,10.3z"/>
	<path class="st0" d="M784.4,29.6c1.1-1.4,2.6-3.3,4.5-3.2c1.6,1,3.3,1.5,5.2,1.4c2,1.3,3.7,3.3,6.1,3.8c5.6-0.5,11.2,0.3,16.8,0.2
		c3.7,0.1,7.7-0.6,11.1,1.3c2-0.4,4-0.7,6-1.1c2.6,0.9,5.1,1.9,6.9,4.1c5.1-2,10.7-1.9,16-1.2c4.1,0.9,2.4,5.6,2.9,8.6
		c-0.8,1.2-1.5,2.4-2,3.8c0.8,0,2.2,0.1,3,0.1c1.1,1.7,3.7,3.1,2.9,5.4c-1.3,2.3,1.2,3.9,1.4,6.2c0.8,5.2,1.5,10.5,2.3,15.8
		c3.4,1,5.7,3.6,7.5,6.4c-0.7,1.6-2,2.9-3.8,2.9c-3.6,0.2-6.3,4.2-10.1,3c-2.9-1-7.8-1.1-7.8-5.1c-2.8,1.8-4.9,4.4-7.5,6.4
		c-3.3,1.7-6.4,3.6-9.7,5.2c-3.1,0.5-5.7,2.4-8.8,3.1c2.3-0.3,4.9,0.5,7-0.8c4.6-1.1,9.3,0,14-0.1c10.8,0.6,23.2,5.4,27.4,16.3
		c0.2,102.6,0.1,205.3,0.1,308c0.3,2.8-1.2,5.3-1,8c0.2,2.3-0.9,4.4-2.4,6.1c-4.9,5.3-11.6,8.6-18.7,9.6c-7.7,1.2-15.7,1.6-23.5,0.5
		c3.9,1.8,7.9,3.1,11.7,5.3c4.4,1.8,7.3,5.6,10.9,8.5c0.8-1.1,1.6-2.1,2.5-3.2c3.8-0.9,8.1-3.1,11.7-0.6c2.4,2.3,6.9,1.2,8.1,4.9
		c-2,2.9-4.2,5.4-7.6,6.6c-0.3,3.8-1.1,7.5-1.5,11.3c-0.3,2.8-0.3,6-2.6,8c1.8,2.9-0.3,5.5-2.2,7.6c-0.7,0-2.1,0-2.9,0
		c1.3,3.4,2.3,6.9,1.3,10.6c-3.2,4.5-9.7,1.8-14.3,2.2c-1.5-1-3.2-1.2-4.9-1.3c-0.2,0.5-0.8,1.5-1,2c-3,0.8-6,2.3-9.2,1.2
		c-2.5-1-4.5,1.2-7,1c-7.8,0.1-15.5,0.3-23.3,0.3c-2,1-3.8,2.5-5.8,3.6c-1.5,0.1-3,0.5-4.3,1.2c-1.7,1-3.2-0.7-4.7-1.3
		c-0.5-2.6-2.7-4.1-4.6-5.6c-0.3-4,3.3-7.9,7.4-7.8c-2.5-2.2-5.9-2.9-8.6-4.9c-4.1-3.6-8.4-7.1-10.8-12.1c1.1,7.2,0.1,15.1-4.4,21.1
		c-2.1,2.9-5.7,4.2-8.6,6.2c-2.7,1.7-5.9,2.3-9,2.5c-3.9,0.9-8-0.3-12,0c-3.8,1.8-8.2,0.6-12.3,1c-160.3,0-320.7,0-481,0.1
		c-8.3-0.2-16.6,0.3-24.8-0.5l-1.3-0.7c-7.6,1.5-15.4-1.5-21.5-5.9c-7.3-5.3-8.8-15.4-7.5-23.7c-2.2,3.4-4.3,6.9-7.7,9.2
		c-3.2,3.7-8.1,4.9-11.8,7.9c4.1-0.3,8.1,3.5,7.5,7.7c-2,1.4-4.3,2.8-4.7,5.4c-1.1,0.6-2.1,1.2-3.3,1.7c-1.6-0.5-3.1-1.1-4.8-1.4
		c-2.8-0.4-4.2-3.7-7-3.8c-8-0.1-16,0-24-0.4c-1.5,0-2.7-1-4-1.5c-3.7,1.6-7.5,0.8-11.1-0.7c-1.1-4-5.1-0.4-7.7-0.5
		c-4.1-0.2-9.9,1.6-12.4-2.7c-0.9-3.5-0.4-7,1.4-10c-0.7,0-2.2-0.1-2.9-0.2c-2.2-2.1-4.1-4.8-2.4-7.8c-0.4-0.5-1.1-1.4-1.5-1.9
		c-1-5.3-2-10.8-1.9-16.2c-3-2.5-6.4-4.4-8.3-7.9c1.7-3.4,5.9-2.5,8.5-4.6c3.4-2.3,7.5-0.8,11,0.3c1.6,0.5,2.1,2.2,2.9,3.4
		c3.3-2.6,5.9-6,9.7-7.9c3.3-1.6,6.2-3.9,10-4.3l0.6-1.4c-7.6,0.9-15.3,0.3-22.8-1c-6.8-1.1-12.9-4.9-17.6-9.9
		c-3-3.9-2.1-9.2-0.8-13.5c0.1-100,0-200,0-300c-1.8-4.7-2-10.8,2-14.6c4.5-4.3,10.1-7.9,16.4-8.5c7.5-1.8,15.3-1.8,22.9-1.1
		c0,0.2,0.1,0.5,0.2,0.7c1.6-0.6,3.3,0,5,0.1c-2-0.3-4-0.6-5.4-2.1c-3.9-0.5-6.9-3-10.4-4.6c-3.8-1.8-6.5-5.1-9.7-7.9
		c-1.8,4.4-7.5,5-11.7,5.2c-2.6-2.1-5.8-2.9-8.9-3.8c-2.9-1.1-0.7-3.7,0.5-5.2c1.2-2.2,3.9-2.7,5.7-4.3c0.2-4.7,1.1-9.3,1.5-14
		c0.1-1.9,1.3-3.4,2.3-5c-1.8-3,0.1-5.6,2.3-7.7c0.8,0,2.4,0,3.2,0c-0.8-1.7-1.7-3.4-2.4-5.1c0.5-1.7,0.6-3.5,0.5-5.2
		c1-0.8,2.1-1.6,3.1-2.4c3.8,0.1,7.6,0,11.4,0.1c1.4,0.9,3,1.3,4.7,1.3c1.1-2.5,3.8-3.1,6.1-3.7c3.1-0.5,6.5,2.1,9.2-0.4
		c8.3,0.2,16.6-0.6,24.9-0.3c2.4-0.5,4.1-2.5,6.1-3.8c1.9-0.1,3.9,0,5.2-1.6c1.3,0.6,2.6,1.2,3.9,1.8c0.4,2.7,2.9,4,4.6,5.9
		c0,0.7-0.1,2.2-0.1,2.9c-1.8,2.3-3.8,4.6-6.8,5.1c2.8,2.2,6.5,2.7,9.1,5.2c3.8,3.3,7.6,6.9,9.8,11.6c0.2-0.1,0.6-0.2,0.8-0.2
		c-2.3-4.7-0.8-9.8,0.1-14.6c1.4-2.6,2.5-5.5,4.7-7.6c6.2-5.6,14.6-8.7,23-8c25-1,49.9,0,74.9-0.6c147,0.2,293.9,0,440.9,0.1
		c8.2,0.9,17-0.8,24.7,3.1c4.3,2.2,9.1,4.7,11,9.4c3.1,6.1,3.7,13.1,1.8,19.6c2-3.2,3.4-6.8,6.5-9.1c2.1-1.5,3.7-3.7,5.9-5.2
		c2.5-1.1,5-2.2,7.2-3.8c-3-0.9-5.6-3-6.7-6C780,33,783.1,31.7,784.4,29.6 M222.3,29.3c1.5,1.4,3.8,0.5,5.3,1.9
		c5.3,3.1,10.3,7.6,11.7,13.8c0.1,1.9,0,3.8,0,5.8c25.6,0.2,51.1,0.5,76.6,0.4c132.9,0,265.9,0,398.8,0.1c-1.8-8,3.6-15.5,10.4-19.3
		c1.9-1.8,4.6-1.5,6.8-2.5c-10.3-0.5-20.7,0.9-31-0.1c-135,0.1-270,0-405,0c-9,0.8-18-0.2-27,0.8c-4.3-0.5-8.6-0.7-12.9-0.1
		C244.8,29.5,233.6,29.6,222.3,29.3 M156,34.8c-8.8-1.1-17.7-0.2-26.5-0.1c-3.2,3.4-7.7-1.1-11.3,1.5c-0.1,0.7-0.4,2-0.5,2.7
		c-2.6,0-5.1-0.2-7.7-0.4c1,2,3.3,2.8,4.9,4.1c12.8-6.7,28.2-7.3,42.1-3.9c3.5,0.8,6.8-1,10.2-0.8c1-1.4,3.1-2.6,2.1-4.7
		c-0.9,0.6-1.8,1.2-2.7,1.8c-1.5-1.2-3.7-0.9-4.9-2.5C160.3,34.1,158.2,35.1,156,34.8 M191.4,44c1.6-1,3.2-2,4.8-3.1
		c2.5-0.3,4.6-1.8,6.8-3.1c2.2-0.2,4.4-0.7,6.6-1.2c3.9-0.9,7.7,0.4,11.4,1.4c4.8,1.3,8.5,6.4,7.5,11.4c-1.1,0.6-2.1,1.2-3.3,1.6
		c-2.4-1.4,1.1-4.2-0.7-6.2c-4-4.7-10.9-7.4-16.9-5.1c-2.5,1.1-6.4,0.8-7.6,3.8c1.7-0.4,3.3-0.9,4.8-1.7c3.2,0.2,6.5-0.5,9.5,0.9
		c2.4,0.9,4.3,2.6,6.1,4.4c-0.2,2.2-0.8,4.5,0.3,6.6c1.5,0.5,2.9-0.2,4.4-0.4c0.3,4.6-6.5,4.5-9,2.2c-1,0-3.1,0.1-4.1,0.2
		c2.3,3.4,6.6,3.2,10.2,3.1c5.8-0.4,12-3.8,13.7-9.7c0.4-2.8-0.6-5.5-1.6-8.1c-2.5-3.2-6.1-5.3-9.6-7.1c-4.4-1-8.8-2.6-13.4-2.1
		C203.1,32.7,195.6,37.2,191.4,44 M719.9,40.9c-0.8,2.7-2.3,5.7-1.3,8.6c1.7,5.7,7.8,9.1,13.4,9.2c3.6,0,8,0.5,10.2-3.1
		c-1,0-3.1-0.1-4.1-0.1c-2.7,2.3-6.9,1.6-9.5-0.5c1-2.2,3.2-1.5,5.1-1.1c0.5-2,0.7-4.2,0-6.2c2.1-2.7,5-4.8,8.3-5.9
		c2.8,0.2,5.5,0.2,8.3,0c1.5,1.7,4.2,1.7,6.1,3c1.4,1.6,2.9,3.1,4.3,4.7c2.3,3.1,2.2,7.2,3.6,10.6c-0.1-3.6,1.1-7.7-1.3-10.8
		c-1.2-2.1-3.1-3.5-5-4.8c-4.9-2.7-10.1-5.4-15.9-5.7c-4.8,0.1-9.3,2.5-12.4,6.1c-1.6,2,1.7,5-1.2,6.2c-0.9-0.6-1.8-1.2-2.7-1.9
		c-1.1-5.4,3.3-10.3,8.4-11.4c5.5-2.3,11.5-1.7,17,0c3.8,2.3,8.2,3.4,11.7,6.2c-5.1-7.9-14.4-13.1-23.8-12.4
		C731.9,32.7,724.5,35.1,719.9,40.9 M792.2,33.3c-1.7,0.2-3.3,0.7-4.8,1.5c-0.4-0.3-1.2-1-1.5-1.3h-1.6c0.7,1.3,1.2,2.8,2.4,3.8
		c3.8,0.9,7.7,1.9,11.6,1.1c10.8-2.8,22.1-2.1,32.9,0.5c2.7,1.6,5.8,2.2,8.8,3.1c1.4-1.1,3.4-1.7,4.1-3.5c-2.4,0.1-4.9,0.7-7.2,0.2
		c-0.3-2-1.9-3.1-3.5-4c-2.7,1.1-6.3,2.5-8.6,0c-8.9,0-17.8-1-26.6,0.1c-2,0.2-4-0.5-5.2-2.2C792.7,32.8,792.3,33.1,792.2,33.3
		 M98.6,37.4c-0.1,2.2-1,4.6,0.2,6.7c1.2,1.9,1,4.2,0.8,6.3c-2.2-0.5-4.3-0.3-5.9,1.5c0.5,1.3,1.2,2.6,1.3,4.1c-0.8,1-1.8,2-2.7,2.9
		c0.4,3.4-0.9,6.7-1.1,10.1c-0.4,3.4,1.5,7-1,9.9c-1.1-0.2-2.1-0.4-3.2-0.6c2.5,0.1,3.4,2.3,4.3,4.2c-1.6,0.1-2.2,0.8-1.9,2.3
		c0.3-0.3,1-0.9,1.3-1.2c1.4-0.2,2.9,0,4.2-0.4c0.9-1,1.6-2.2,2.5-3.3c0-2.2,0.1-4.4-0.8-6.5c-2.3-6-1.2-13.1,2.3-18.4
		c2.1-2.3,4.2-4.6,6-7.2c-1.4-0.8-2.8-1.7-4.1-2.7c1.7-3.9,6.7-4.1,8.9-7.4C106.1,37.1,102.3,37.3,98.6,37.4 M844.2,37.7
		c2,3.3,7.2,3.5,8.9,7.4c-1.3,1-2.6,2-4,3c2.1,3.2,5.2,5.6,7,8.9c2.8,5.6,3.2,12.3,0.7,18.1c-1.1,2.7,0.3,5.4,1.5,7.7
		c2.2,0.3,4.5,2.1,6.8,1.1c-0.6-0.2-1.7-0.6-2.2-0.8c0.5-1.4,1.2-2.8,1.5-4.2c-0.6-1.3-2.5-2.2-2.1-3.8c1.7-4.9-0.3-10-0.7-15
		c0.2-1.9-1.5-2.9-2.7-4c0.4-1.3,0.9-2.7,1.2-4.1c-1.3-2.1-3.6-1.9-5.8-1.7c-0.7-2.9,0.8-5.6,1.8-8.3c-0.1-1.5-0.5-3-0.7-4.5
		C851.7,37.3,848,37.3,844.2,37.7 M126.9,41.1c-3.8,0.7-7.4,2.5-11,3.9c-3.3,2.4-7.3,3.9-9.6,7.4c-2.8,2.3-4.9,5.3-6.2,8.7
		c-1.1,3.5-0.9,7.2-0.8,10.8c2.5,3.5,4,7.6,7.2,10.6c7,6,15.4,10.3,24.5,12c4.4,1.7,8.9-0.4,13-1.7c5.6-2.6,11.3-6.7,13.3-12.8
		c0.4-2.4-2.6-0.7-3.7-0.6c-1,1.2-2.1,2.4-2.9,3.7c-0.4,2.3-0.4,4.8-2.2,6.6c-4.6,0.3-10.1,1.3-13.6-2.4c-1.6-1.4-0.9-3.5,0.2-4.9
		c-2.4-2.4-2.2-6.9,0.6-9c0.1-0.6,0.2-1.7,0.2-2.2c1.2-0.3,2.4-0.6,3.6-0.8c0.2-0.4,0.8-1.3,1-1.8c2.5-1.7,5.8-2.1,7.6-4.7
		c5.3-0.9,11-2.8,16.3-0.3c2.8-1.3,6-0.7,8.7,0.5c3.2,2,3.4,6.6,1.2,9.4c4.2-1.4,8.2-4.3,10.4-8.2c-0.8-4.7-3.8-8.4-6.6-12.1
		c-5.9-4.9-12.3-9.6-19.9-11.3C148,38.5,137,38.4,126.9,41.1 M800,41.1c-9.2,1-17.2,6.2-24,12.1c-2.6,3.5-5.9,7.2-6.1,11.8
		c2.1,4,5.9,6.5,9.8,8.6c0.1-1.4-0.8-2.4-1.5-3.5c0.2-1.4,0.5-2.8,0.8-4.2c1.2-1.8,3.4-2.4,5-3.6c1.9,0.2,3.8,0.7,5.8,0.8
		c5.3-2.1,11-0.3,16.4,0.6c0.4,0.5,1.1,1.4,1.5,1.8c2.7,1,5.7,2,7.3,4.7c1.1,0.4,2.3,0.7,3.5,1.1c1.5,3.1,3.5,6.6,1.8,10
		c-1.1,1.7,1,3.8-0.4,5.4c-3,4.1-8.8,3.3-13.2,3c-0.5-0.3-1.6-1.1-2.1-1.4c-0.3-3.4-1.2-6.6-3.8-8.9c-1.1-0.4-2.3-0.7-3.4-1.1
		c-0.8,3.7,2.1,6.3,4.4,8.7c6.2,5.5,14.7,9.8,23.1,7.3C835,91.5,845,86.7,851.4,78c0.9-3.2,4.1-5.4,3.7-8.9c0.3-6.1-2-12.4-6.7-16.5
		c-2.7-3.6-7-5.1-10.4-7.8c-3.7-1.1-7.2-3.2-11-3.7C818.3,38.6,808.6,38.2,800,41.1 M197.9,43.5C199.5,46.2,200.4,41.3,197.9,43.5
		 M196.1,44.4c-1.8,1.5-3.8,2.8-4.9,4.9c-2.1,2.7-1.1,6.3-1.7,9.5l1.5-0.1c-0.2-5,2.1-10,6.4-12.8C196.9,45.4,196.5,44.9,196.1,44.4
		L196.1,44.4z M203.4,49c2.5,4.2,10.9,3.7,12.3-1c-2.6-2.9-6.2-3.7-9.9-3.2C205,46.2,204.2,47.6,203.4,49L203.4,49z M738,48
		c1,3,4.4,3.4,6.9,4.4c1.8-0.8,3.6-1.4,5.3-2.3c0.8-2.1-1.2-3.6-2.1-5.3C744.3,44.2,740.8,45.5,738,48L738,48z M194.4,57.2
		c1.8-1.7,2.9-4.2,5.5-4.9c-0.1-1.5-0.1-3-0.2-4.5C196.8,50,194.8,53.5,194.4,57.2L194.4,57.2z M754.5,47.8
		c-0.2,1.4-0.4,2.8-0.5,4.2c2.7,0.8,3.7,3.7,5.9,5.2C759.3,53.7,757.7,49.9,754.5,47.8L754.5,47.8z M234.1,56.3
		c-1.5,0.8-2.8,1.9-3.8,3.1c-3.7,1.1-7.4,1.7-11.3,1.9c-3.7-0.1-6.4-3-9.5-4.5c-2-0.6-3.9-1.4-5.5-2.7c-1,0.2-1.9,0.4-2.9,0.6
		c-3,2.8-4.9,6.3-6.3,10.2c0.8,2.2,1.7,4.4,3.7,5.7c3.7,2.6,6.8,6.1,11.1,7.8C216,81,223,83.5,230,82.3c2.4-0.2,4.7,0.3,7,0.5
		c-1.2,3.7-5.3,5.1-8.2,7.3c-6.5,2.7-13.7,4.5-20.8,4.2c-5.4,0.4-10.6-1.2-15.9-1.8c-8.6-2.8-17.2-5.4-25.3-9.3
		c-1.5,0.6-3,1.3-4.6,1.8c3.4,2.2,6.1,5.2,8.1,8.6c4.6,5.8,8.4,12.8,7.5,20.4c0.4,4.5-3,7.9-5.6,11c-2.9,3.4-6.8,6.9-11.6,6.2
		c-1-3,0.1-6.1-0.2-9.2c-0.2-3.8-3.2-6.4-5.2-9.2c-3.6-3.2-7.4-6.9-12.4-7.7c0.1,110.1,0,220.1,0.1,330.2
		c7.8-2.6,14.8-8.5,17.6-16.4c0.5-3.2-0.4-6.5-0.1-9.8c6.4-1.1,11,4.5,14.5,9c4,4.6,3.8,11.3,2.1,16.9c-1.4,5.3-5.2,9.4-8.1,13.9
		c-1.5,2.5-4,4.1-5.9,6.2c1.1,0.6,2.2,1.2,3.3,1.8c14.2-5,28.5-11.7,43.9-10.7c9.6-0.1,19.8,2.8,26.7,9.8l-0.1,1.2
		c-4.4,1.2-9-0.2-13.5,0.7c-7.6,1.1-15.3,3.7-21.1,9c-2.7,2.4-6.8,4.1-7.1,8.2c0.4,2.4,1.8,4.5,2.7,6.7c1.8,1.4,3,3.9,5.5,4.1
		c5.8-1,10.2-5.5,15.9-7c3.4,0.9,7.2,0.3,10.5,1.8c3.3,2,6,4.7,8.8,7.2c16.3,0.3,32.6-0.3,48.8,0.4c27.6-0.1,55.3,0.1,82.9-0.1
		c6.4-0.7,12.7,0.4,19.1-0.2c4.3-0.3,8.6,0.3,12.9,0.2c84.3,0,168.7,0,253,0c20.3-0.1,40.6-0.5,60.9-0.2c3-2.6,5.8-5.5,9.2-7.5
		c3.2-1.4,6.9-0.7,10.3-1.7c5.5,1.9,10.1,5.9,15.8,7.2c2.3-0.6,3.8-2.7,5.5-4.2c0.9-2.2,2-4.3,2.5-6.7c-0.2-2.6-2.1-4.7-4.1-6
		c-3-2-5.4-4.7-8.7-6.3c-5.4-2.8-11.3-4.6-17.4-5.1c-3.9-0.1-7.8,0.5-11.5-0.4c0.1-0.8,0.4-1.4,0.9-2c5.9-5.5,13.8-8.2,21.8-8.9
		c5.3,0,10.8-0.8,16,0.6c10.5,1.6,20.5,5.6,30.4,9.5c1.9,1.1,3.6-0.8,5.5-1.3c-1.9-1.5-3.9-2.8-5.4-4.6c-4.7-7.1-11-14.4-10.2-23.5
		c-0.3-5.8,4-10.3,7.8-14.1c2.5-2.8,6.2-4.4,9.9-3.8c0.4,4-1.1,8.2,0.8,12c0.9,2.6,3.2,4.3,4.6,6.6c3.9,3.8,8.5,6.8,13.8,8.2
		c0.2-110.7,0-221.4,0.1-332.1c-3,1.5-6.1,2.6-8.9,4.4c-3.3,2.5-6.2,5.5-8.7,8.8c-0.7,2-1.7,3.9-1.9,6c0,2.8,1,5.8-0.3,8.5
		c-6.8,0-11.2-5.8-14.9-10.7c-2.9-3.6-2.6-8.7-1.8-13c0.7-6,4.9-10.6,8-15.5c1.7-2.9,4.1-5.3,7.1-6.9c-0.7-1.4-2.8-1.3-4-2.2
		c-6,2.2-11.7,4.9-17.8,6.7c-14.3,5-30.6,6.5-44.7,0c-2.8-2.2-6.9-3.6-8.2-7.2c4.3-0.8,8.7-0.3,13.1-0.3c8.1-1.3,16.5-3.9,22.6-9.7
		c2.3-1.9,5.5-3.5,6.3-6.7c-0.1-4.5-2.9-8.3-6.1-11.4c-1-0.2-2-0.4-3-0.6c-2.5,2.6-6.4,2.5-9.1,4.9c-5,3.9-11.6,1.8-17.1,0.3
		c-2.6-2.3-5.5-4.3-7.9-6.9c-20.3,0.6-40.7,0-61,0.2c-33.7-0.1-67.4,0.1-101,0c-21.3,0.2-42.6-0.2-63.9,0.2c0.8,1.4,2,2.2,3.8,2.3
		c-1.6-0.2-3.5-0.5-3.9-2.4c-84-0.5-168.1,0.1-252.1-0.2C236.6,53.8,235.3,55.1,234.1,56.3L234.1,56.3z M161,66.4
		c-2.4-0.2-4.9-0.2-7.3,0.1c-0.3,0.4-0.9,1-1.2,1.4c-2.8-0.1-4.6,2.3-6.8,3.7c-0.9,0.7-2.2,1-2.7,2.2l-0.6-0.8l-0.1,1.2
		c-0.7,0.4-2.1,1.3-2.8,1.8c-0.1,1.7-0.1,3.4,0,5.2c-0.7,1.5-1.4,2.9-2,4.4l0.6,0.1c1.5,2.6,5,1.3,7.4,1.9c1.8-2.8,1.7-6.6,4.3-8.9
		c2.4-1.8,5.2-3.1,7.4-5.1c4.4-0.6,8.5-3.8,13.1-2.4c0.5-0.2,1.4-0.6,1.9-0.9c0.1-1.5-0.1-2.8-0.9-4.1
		C167.8,64.9,164.4,66.7,161,66.4L161,66.4z M784.5,65.7c-0.6,0.3-1.8,1-2.4,1.3c0.1,1.3,0.3,2.7,0.6,4c2.1-0.1,4.2-0.2,6.3-0.2
		c3.2,1.3,6.5,2.4,9.6,4c3.3,2,6.9,3.8,8.7,7.4c0,0.8,0,2.5,0,3.3h0.1c0.4,0.4,1.1,1.3,1.5,1.7c2.8,0,6,0.5,7.9-2.1
		c-0.3-0.5-1-1.4-1.4-1.8c-0.8-2.7,0.9-7.4-2.5-8.4c-0.6-0.7-1.3-1.3-1.9-2c-2.5-1-4.7-2.5-6.5-4.4c-1.7-0.2-3.2-0.8-4.5-1.8
		c-4.2-1-8.6,0.9-12.6-0.8C786.5,65.8,785.5,65.8,784.5,65.7L784.5,65.7z M170,77.1c3.7,1.4,7.2-0.5,10.9-0.9c2.5-0.1,3.9-2.5,5.5-4
		c-0.6-1-1.2-2-1.8-3C181,73.8,175.3,75.2,170,77.1L170,77.1z M769,69c-0.3,1.3-1.2,2.6-0.7,4c1.1,1.6,2.9,2.4,4.5,3.5
		c3.5-0.9,7.1,3.1,10.3,0.4c-1.7-0.7-3.5-1.2-5.2-1.8C774.4,74.1,771.8,71.3,769,69L769,69z M749.4,79.2c2.4,0.1,3.9,1.9,5,3.8
		c-0.3,0.6-1,1.7-1.3,2.3c-3.4,1.7-7.4-1.4-5.7-5.1c-1.5,1.3-3.5,1.6-5.4,2c1.3,1.5,2.6,3.1,2.6,5.2c-1.3,0.4-2.7,0.7-4,1.1
		c-1.2-1.5-2.3-3.1-2.2-5.1c-5.5,2.4-11.6,1.7-17.4,1.4c7.5,7,18.5,6.4,28,7.8c3.3-0.6,6.7-1.1,10.1-1.3c8.5-2.4,16.7-5.4,24.9-8.5
		c1.2-0.4,2.2-1.2,3.2-1.9c-6.6-1-13.6,0.8-19.8-2.4c-2.4-1.7-4.1-4.3-3.9-7.3C758.4,73.1,754.3,76.9,749.4,79.2L749.4,79.2z
		 M190.4,70.9c0.1,2.1,0.2,4.5-1.7,5.8c-5.9,5.1-14.3,3.3-21.4,3.8c0,0.2-0.1,0.6-0.1,0.8c5.5,2.7,11.3,4.6,17.2,6.4
		c5.3,2.2,10.8,3.5,16.5,3.9c4,1.6,8.1,0,12.2-0.1c7.2,0,14.1-2.7,20.2-6.2c-0.2-0.2-0.7-0.5-1-0.7c-5.6,0.2-11.6,1-16.8-1.4
		c0.6,2.6-1.2,4.4-3.3,5.5c-1.1-0.7-2-1.6-2.8-2.7c0.1-1.6,1.7-2.5,3-3.1l0.1-0.9c-1.8-0.2-3.6-0.6-5.2-1.5c0,1.8-0.4,3.6-1.7,4.9
		c-2,0.6-5.7,0.5-5.3-2.5c-0.2-2.3,2.4-2.9,3.8-4.1C199.3,76.4,195.2,73.1,190.4,70.9L190.4,70.9z M161.8,74.9
		c-1.4,0.6-3.5,0.8-3.8,2.7c4.1,0.3,8.1-0.9,11.8-2.6c0.6-0.6,2.8,0,2.7-1.3C168.9,73.4,165.2,73.7,161.8,74.9L161.8,74.9z
		 M782,74.5c0.7,0.1,2.1,0.3,2.8,0.4c3.1,2.5,7.5,2.8,11.4,2.6c-1.7-2.6-5.3-2.8-8.1-3.6C786.1,74.1,783.4,72.6,782,74.5L782,74.5z
		 M151.1,91.3c-2,1.6-5.3,1.8-6.2,4.5c6.4,1.1,13.4-3.4,13.2-10.3C155.1,86.8,153.9,90,151.1,91.3L151.1,91.3z M796,85.7
		c-0.2,6.9,7.7,12,13.9,9.3c-3-1.6-6.2-3-9-5.1C799.2,88.6,798.2,86.4,796,85.7L796,85.7z M161.6,87c-0.9,3.5-2,7.2-4.7,9.7
		c-4.1,3.3-9.6,1.9-14.4,1.7c3,3.3,8.5,4.3,10.9,8.4c0.9,1.6,2.3,2.7,3.7,3.8c-0.1-1.5,0.2-3.1,1.9-3.2c2.8-0.9,6-1,7.9,1.7
		c-2,2.6-5.8,2.6-8.7,1.8c1,1.5,1.9,3.1,2.9,4.6c2.2-2.6,5.5-2.4,8.6-1.8c-0.6,3.2-4.5,4.6-7.2,3.2c2,3.9,1.5,8.2,0.9,12.3
		c4-2,7.3-5.3,9.6-9.1c1-3.3,1.9-6.5,2.5-9.9c-0.6-3-0.8-6.4-2.8-8.9C169.2,96.3,166.8,90.3,161.6,87L161.6,87z M780.5,102.5
		c-3.2,5.9-1,12.8,1.2,18.6c2.3,3.3,5.2,6.2,8.9,7.9c-0.4-3.9-1-8,1-11.6c-2.4,0.1-4.7-0.7-7-1.3c-0.4-3.5,3.7-3.3,5.9-2.6
		c1,0.3,2.7,2.5,3.3,0.5c1.2-3.9,6.5-4.5,7.2-8.6c3.7-1.8,6.6-5.4,10.9-5.9c0-0.3-0.1-0.8-0.1-1c-4.6,0-9.7,1.4-13.8-1.1
		c-3.4-2.3-4.4-6.6-5.5-10.3C787,91,784.2,97.2,780.5,102.5L780.5,102.5z M105.2,102.3c-4.5,2.4-8.4,5.9-10.5,10.7
		c2.1,5.4,7.6,8.4,13.2,8.5c1.6-0.2,3.3-0.9,4.8,0.2c-0.3,1.7-2.2,2-3.7,2.2c-3.5,1-6.9-0.7-10.2-1.6c-3.6-0.8-5.5-4.2-6.9-7.2
		c-1-2.6,0.6-5.2,1.9-7.3c1.5-2.8,4.7-4,6.5-6.5c-6.6,0.3-12.4,4.9-15.9,10.3c-1.2,4.1,1.6,8.1,4.3,11c3.5,3,7.8,5.5,12.6,5.4
		c6.7,2.3,14.1,0.5,20.2-2.6c3.6-2,4.7-6.2,3.5-9.9c-1.5-0.7-3-1.5-4.6-2.2c-0.4,1.6,0,3.2,1.3,4.3c0.8,2.8-1.8,4.7-4.3,4.8
		c1.1-3.9-3.6-4-6.2-3.7c-4.4,1-8.3-2.3-11.1-5.4c0.2-2-0.4-4.2,1.1-5.9c1.9-3.8,6.4-4.6,10-6c5.3-2.2,11-1.3,16.6-1.6
		c0-0.2-0.1-0.7-0.1-0.9C120.1,98.4,111.7,97.6,105.2,102.3L105.2,102.3z M826.4,98.6c0,0.2,0,0.8,0,1c3.9,0.1,7.8-0.1,11.7,0.3
		c3.5,0.5,6.7,2.2,10.1,3c3.2,2.4,7.4,5.4,5.7,10.1c-2.4,3.6-7.3,6.7-11.8,5.3c-1.7,0.3-3.3,0.5-5,0.7c0.1,0.8,0.3,2.4,0.4,3.2
		c-2.7,0.2-5.9-1.5-5.1-4.6c1.3-1.2,1.6-2.8,1.2-4.5c-1.6,0.7-3.1,1.5-4.6,2.3c-0.3,2.5-1.2,5.6,1,7.5c4.9,4.9,12.3,6.4,18.9,5.9
		c2.8-0.7,5.6-1,8.4-1.5c4.1-1.8,8.4-4.2,10.6-8.3c1.2-2.3,3-4.9,1.7-7.5c-3.5-5.6-9.2-10-15.9-10.6c2.8,3.7,7.6,6,8.5,11
		c0.3,5.3-4.2,10.1-9.3,11.1c-3.7,1-9.5,2.5-11.8-1.6c2.6-0.4,5.3-0.1,7.9-0.2c4.6-0.8,8.6-3.9,10.3-8.2c-2.1-4.7-6.1-8.4-10.6-10.8
		c-1.5-1-3.2-1.8-4.9-2.7c-0.7,0-2.1,0.1-2.8,0.1c-0.5-0.3-1.6-0.9-2.1-1.2C834.8,98.3,830.6,98.6,826.4,98.6L826.4,98.6z
		 M108.9,104.6c2.3,0.2,4.6,0.9,7,0.6c2.5-1.5,5.1-2.8,8-3.4C118.9,102.3,113.7,102.7,108.9,104.6L108.9,104.6z M830.1,101.8
		c3,0.3,5.5,1.8,8,3.4c2.3,0.1,4.6,0,6.9-0.5c-3.5-1.3-7.1-2.4-10.9-2.2C832.8,101.9,831.5,101.6,830.1,101.8L830.1,101.8z
		 M118.4,107.6c3.1,3.3,6.7,5.8,10,8.8c0.9,2.9-0.4,6.4-2.2,8.7c-3.2,1.8-6.3,3.6-9.6,5.1c-2.5,0.1-4.9,0.3-7.4,0.5l0.1,0.8
		c-9.3,0.8-18-3.1-25.8-7.8c0.2,70.1,0,140.1,0.1,210.2c-0.1,27.6,0.2,55.2-0.1,82.7c3.5-2.4,7.2-4.3,11-6.1
		c1.8-0.4,3.6-0.8,5.3-1.5c4.1-0.6,8.3-0.5,12.4-0.7c4.2,1.2,8.2,3.2,11.9,5.5c3.8,1.4,4.7,6,4.6,9.6c-3.3,2.6-6.8,5.1-9.4,8.5
		c-1.1,2.4,2.3,2.2,3.7,3c5.3,2.2,11.1,3,16.6,1.2c0.2-1.8,0.3-3.6,0.3-5.4c-0.1-109,0.1-218-0.1-326.9
		C132.7,101.6,124.2,103.1,118.4,107.6L118.4,107.6z M815.9,104.9c0.5,23,0.1,46.1,0.1,69.1c0,31.3,0,62.6,0.1,93.9
		c-0.3,55.7,0.4,111.5-0.1,167.2c0.5,2.1,3.2,2.4,5.1,2.2c4.7-0.4,9.4-1.7,13.7-3.6c0-0.4,0-1.3,0-1.7c-2-2.4-4.3-4.5-6.8-6.3
		c-1.4-1.2-3.4-2.6-2.5-4.7c0.7-2.1,0.8-4.6,2.6-6.1c4.9-2.9,10.1-5.7,15.8-6.6c5.3,0.2,10.6,0.5,15.6,2.3c4.6,2.1,9.3,4.2,12.6,8.1
		c0.3-51.4,0-102.7,0.1-154.1c-0.1-0.4-0.4-1.2-0.5-1.6c-0.6,0-1.9,0-2.6,0l2.6-0.7c-0.7-0.5-2-1.5-2.6-2c0.9,0.4,2,2.1,3,1.1
		c0.3-46.7-0.1-93.5,0.2-140.2c-1.6,1.8-3.4,3.6-5.6,4.7c-6.5,3.8-14.1,6.5-21.7,5.4c-1.7-0.9-3.6-0.9-5.4-0.7
		c-4.4-0.6-8-3.4-11.8-5.5c-1.6-2.4-2.6-5.2-2.5-8.1c3.5-3.2,7.4-6,10.2-9.9c-4.2-2.4-8.9-3.6-13.6-4.3
		C819.9,102.4,817,102.8,815.9,104.9L815.9,104.9z M104.2,109.9c-0.8,3.1,3,4,4.8,5.7c2.8-0.4,5.4-1.9,6.7-4.5
		c-0.9-1.1-1.8-2.2-2.7-3.2C110.1,108,106.2,107.3,104.2,109.9L104.2,109.9z M838.8,112c1.7,2.2,5,4.7,7.7,2.5
		c2.4-1,4.1-3.2,2.8-5.7c-2.8-0.9-5.7-1.2-8.6-1C840.1,109.2,838.2,110.3,838.8,112L838.8,112z M89.3,417.4
		c-3.3,2.9-6.3,6.9-5.1,11.5c2.4,2.3,4,5.5,7,7.1c2.8,1.7,6,3.3,9.3,3.5c-1.4-2.2-3.7-3.6-5.6-5.3c-2.4-2.9-4.7-7.1-2.1-10.6
		c2.1-5.1,8.1-6.4,13-7.3c2.3-0.3,6.5-0.4,6.2,3c-6.5-1.6-14.7,1.2-17,7.9c2,6.7,8.8,10.1,14.5,13.3c6.1,1.2,12.4,1.9,18.6,1
		c-5-1.4-10.4,0.4-15.3-1.8c-4.1-1.4-8.8-2.3-11.5-6.1c-1.8-1.8-1.1-4.4-1.3-6.6c3.3-2.7,7.2-6.8,11.9-4.8c1.8-0.4,3.7-0.6,5.5-1
		c-0.1-1-0.2-2.1-0.3-3.1c1.6,0.2,3.9,0.4,4.4,2.3c0.9,2.6-2.3,4.2-1.5,6.8c1.6-0.7,3.2-1.5,4.7-2.4c0.7-2.5,1.2-5.6-1.1-7.6
		c-3.2-3.8-8.2-4.9-12.8-5.7C103.6,411.5,95.1,411.9,89.3,417.4L89.3,417.4z M163.3,411.4c0.7,4.1,0.8,8.5-1.2,12.3
		c2.4-1,5-0.6,7.2,0.8c0,0.5-0.1,1.6-0.1,2.1c-2.8,0.5-5.9,0.7-8.2-1.5c-0.8,1.3-1.7,2.6-2.6,3.8c2.6-0.5,5,0.4,7.5,1
		c-0.2,1.2-0.5,2.4-0.8,3.5c-2.8-0.1-9.3,1-7.7-3.8c-2.3,1-3.9,3.2-4.8,5.5c3.7,0.3,8.1-0.1,11,2.8c-1.2,0.9-1.9,2.9-3.7,2.6
		c-3.3-0.2-8.5-0.4-8.6-4.8c-3.1,2.6-6.7,4.5-10.4,5.9c3.3,0.3,6.8,0.1,10-0.8c2.5,1,5.3,1.6,7.1,3.7c1.8,2.5,2.7,5.5,3.6,8.5
		c5.3-3.2,7.5-9.3,11.2-14c3.8-5.7,2.2-13-0.1-18.9C170.4,416.5,167.6,412.9,163.3,411.4L163.3,411.4z M780.6,438.1
		c3.9,4.9,6.1,11.5,11.8,14.8c1.3-3.8,2.5-8,5.8-10.6c1.9-0.3,3.8-0.8,5.7-1.4c2.9,1,6,0.8,9.1,0.9c-4.4-1.4-7.8-4.6-11.8-6.8
		c-0.8-2.2-2.4-3.8-4.1-5.3c0.5,4.6-5,3.9-8.1,3.7c-0.8-1.1-0.7-2.4-0.7-3.6c2.2-0.5,4.5-1,6.8-1.2c-0.5-1-0.9-2.1-1.5-3
		c-1.4-1-2.2,1.2-3.5,1.4c-1.9,0.2-3.7-0.1-5.5-0.4c0.3-3.5,4.8-3.8,7.4-2.7c-2.1-3.8-1.6-8.2-1.3-12.4
		C780.8,415.7,776.1,428.5,780.6,438.1L780.6,438.1z M829.8,417.8c-1.9,2-1.1,4.8-0.6,7.1c1.5,0.8,2.9,1.9,4.6,2.1
		c1.2-2.5-2.2-4.1-1.3-6.6c0.6-2.2,3-2.2,4.9-2.1c0,0.8,0,2.3-0.1,3.1c2.9,0.5,6,0.4,8.9,0.1c2.8,1.5,5.7,3,7.7,5.6c0,1.6,0,3.3,0,5
		c-1.1,1.1-2.2,2.4-3.5,3.1c0.5,0.4,1,0.8,1.5,1.2c3.1-2.5,6-5.3,7.5-9.1c-2.7-6.1-10.1-10.1-16.6-7.7c-0.8-0.8-1.7-1.6-2.7-2.2
		c1.5,0.7,2.7-0.4,4-1.2c5.2-0.3,10.5,1.1,14.9,3.9c1.3,1.8,2.5,3.8,3.2,5.9c0.7,3.1-1.2,5.9-3.1,8.1c-1.8,1.7-4.6,2.8-5.1,5.6
		c6.7-1.4,12.9-5.5,16-11.7c0.5-3.5-1.8-6.7-3.8-9.4c-4.6-5.2-11.6-6.6-18.2-7.1C841.6,411.3,834.2,412.6,829.8,417.8L829.8,417.8z
		 M108.2,425.3c-1.8,1-4.7,2.8-3.7,5.3c2.2,2.4,5.8,1.6,8.7,1.8c0.8-1.2,1.7-2.4,2.5-3.6C114,426.4,111.3,424.4,108.2,425.3
		L108.2,425.3z M838.3,428.9c0.8,1.2,1.7,2.3,2.6,3.5c3,0.4,6,0.1,8.8-1.2c1.1-3.1-2-5.3-4.6-6C842.1,424.6,840,426.9,838.3,428.9
		L838.3,428.9z M109.6,435.3c0.2,0.2,0.7,0.7,1,1c4.4,1.2,9,1.7,13.5,2.2c-1.4-0.4-2.8-0.7-4.2-0.9c-1.3-0.9-2.6-1.7-3.9-2.6
		C113.9,435.1,111.8,435.1,109.6,435.3L109.6,435.3z M833.8,437.6c2.4,0.3,4.8,0,7.2-0.2c-0.2,0.7-0.7,2.1-1,2.9
		c-4.7,1-9.6-0.2-14.2,1c4.9,0.5,10.5,1.4,15.1-0.8c3.9,0.7,7.1-2.1,10.2-4c-0.8,0.1-2.3,0.3-3,0.4c-2.2,1.5-5,1.9-7.6,1.9
		c0.3-2.2,2.8-2.2,4.1-3.6C840.8,434.7,836.8,435,833.8,437.6L833.8,437.6z M145,444.6c2,3,6.1,3.3,8.4,6c1.6,1.3,2.6,3.3,4.6,3.9
		c-0.4-2-0.7-4-1.8-5.7C154.1,444.9,149,444.1,145,444.6L145,444.6z M799.6,446.8c-2.5,1.8-3.4,5.1-3.3,8c2.8-1.8,4.3-4.9,7.3-6.3
		c1.8-1.3,4.7-1.7,5.3-4.1C805.7,444.5,802.1,444.4,799.6,446.8L799.6,446.8z M121.8,448.6c-3.4,0.4-6,2.8-8.9,4.4
		c-5.1,3.1-9.5,7.4-12,12.9c-2.5,3.1-1.8,7.3-1.4,11c0.7,5.8,5.5,9.5,8.9,13.7c2.4,1.6,5,2.8,7.3,4.5c4.3,2.1,9,3.3,13.5,5
		c12.8,2.1,26.3,0.7,38-5.1c4.5-3.1,9.7-5.6,12.6-10.4c2.3-2.8,4.4-6,4.5-9.8c-2.2-3.7-5.9-6.2-9.6-8.1c0.8,2.5,1.8,5.5,0.1,7.9
		c-2.6,2.9-7.1,3.2-10.7,2.4c-5.4,2.3-11,0.4-16.4-0.7c-0.3-0.5-1-1.4-1.3-1.9c-4.1-0.3-6.1-4.5-10-5.2c-2-2.8-3.6-6.1-3.2-9.7
		c0.5-0.3,1.5-1,2-1.3c-1.3-1.4-2.3-4-0.4-5.5c3.6-3.6,8.8-2.1,13.3-2.5c1.4,1.9,2.3,4.1,2.1,6.5c1.7,2.2,3.7,4.3,6.3,5.5
		c0.3-1.5,0.8-3.2-0.2-4.6c-3.7-5.8-9.8-9.7-16.3-11.7C133.9,444,127.3,446,121.8,448.6L121.8,448.6z M798.6,456.6
		c-1.6,1.4-1.3,3.6-1.5,5.5c4.4-1,7.4-5.2,7.1-9.7c1.5-0.8,2.8-2.3,4.7-2c3.8-0.3,8.1-0.3,10.8,2.8c1.7,1.7-1.2,4,0.3,5.7
		c2.1,3.2-0.3,6.9-1.6,10c-4.4,0.4-6.4,5.5-11,5.5c-0.2,0.5-0.7,1.6-0.9,2.1c-5.5,0.6-11.3,3.4-16.5,0.2c-3,1.3-6.9,0.8-9.5-1.1
		c-3.1-1.9-2-6.2-0.5-8.8c-4.1,1.3-7.9,4.3-10.1,8c0.1,2.9,1.7,5.5,3,8.1c9.8,13.2,27.3,18.6,43.2,17.9c3.7-0.4,7.6,0.1,11-1.8
		c2.8-0.1,5.2-1.9,7.9-2.5c3.7-0.6,6.2-3.7,9.6-5.1c4.8-4.4,10.2-9.4,10.5-16.4c0.1-2.7,0.9-5.8-1-8.1c-2.7-3.9-4.7-8.5-8.7-11.1
		c-4.2-2.8-8.3-6.2-13.4-7.4c-4-1.9-8.5-2.9-13-3.3C811.1,446.2,803.3,450,798.6,456.6L798.6,456.6z M195,449.2
		c-7.5,1.8-14.6,4.7-21.9,7.1c-2.2,0.7-4.3,1.8-6.1,3.2c4.4,0.3,8.8,0.8,13.2,0.8c5-0.2,10.9,3.2,10.5,8.8c2.8-1.1,5.8-2.3,7.8-4.7
		c2.6-1.1,5.2-2.3,7.6-3.9c-2.3,0.3-4.8-0.2-5.9-2.5c-0.8-3.2,3.6-4.5,5.6-2.7c1.5,0.8,1,2.9,1.2,4.3c1.7-0.5,3.4-0.9,5.2-1.2
		c-1.1-1.9-2.9-3.4-2.6-5.7c1.6-0.2,3.2-0.3,4.7-0.3c0.5,1.4,1,2.8,1.5,4.2c5.8-1.2,11.6-1.8,17.5-0.7c-6.2-6.4-15.8-6.6-24.2-7.7
		C204.3,446.9,199.7,448.9,195,449.2L195,449.2z M722.6,453.7c-0.1,0.5-0.4,1.4-0.5,1.9c5.4-0.9,10.8-0.1,16.2,0.8
		c0.5-1.4,1-2.7,1.5-4.1c1.5,0,3.1,0.1,4.6,0.1c0.4,2.3-0.9,4-2.3,5.6c1.8,0.4,3.7,0.8,5.4,1.7c-0.5-1.6-0.5-3.4,0.9-4.5
		c1.4-1.6,3.7-0.4,5.4-0.1c0,1.4-0.1,2.8-0.2,4.2c-1.3,0.5-2.6,1-3.9,1.6c1.6,1.7,3.8,2.4,5.8,3.5c2.2,2.1,5,3.5,7.8,4.6
		c-0.3-5.1,4.7-8.8,9.5-8.9c4.7,0,9.4-0.6,14.2-0.7c-2.9-2.4-6.5-3.3-9.9-4.6c-5.6-1.9-11.1-3.7-16.7-5.5c-3.8-0.4-7.6-1.2-11.4-1.7
		C740,448.6,730.6,449,722.6,453.7L722.6,453.7z M137.6,456.6c0.2,0.5,0.7,1.5,0.9,2c1.1,1.6,0.6,3.6,0.8,5.5v-0.3
		c1,0.8,1.9,1.7,2.9,2.5c0,0.4,0,1,0,1.4c3,0.5,5.4,2.2,7.5,4.4c2,0.6,3.9,1.8,6,1.8c1.8,0.1,3.6,0.1,5.4,0.1
		c0.4-0.1,1.2-0.2,1.6-0.3c2.6,0.6,5.2,0.9,7.8,0.5c1.9-0.9,1.2-3.2,1.3-4.8l-0.4,0.1c-3.8-1.1-7.9-0.8-11.7-1.1
		c-0.2-1.6-1-1.9-2.5-1c-2.1-3.4-6.7-4.3-9-7.5c-1.2-2-1.4-4.4-2.3-6.5c-2.3-0.5-4.8,0-7.1-0.1C138.3,454.2,137.9,455.4,137.6,456.6
		L137.6,456.6z M804.5,461.4c-3.7,2.4-7.2,5.4-11.5,6.6c-3.6,1.1-7.3,0.6-11,1.4c0.1,1.6,0.3,3.1,0.4,4.7c2.8,0.2,5.7,0.4,8.5-0.3
		l0.1,0.1l0.1-0.1c3.2,0.1,6.4,0.3,9.5-0.1c0.4-0.4,1.3-1.1,1.7-1.5l0.4,0.4c0.4-0.3,1.2-0.9,1.6-1.1c3-2.3,6.8-3.5,9.2-6.6
		c2-1.3,0.9-3.9,0.9-5.9c0.7-1.3,1.5-2.5,2-3.9c-1.5-3.1-5.5-1.1-8.1-1.9C807.1,455.8,806.8,459.2,804.5,461.4L804.5,461.4z M89,456
		c0.6,0.6,1.3,1.3,1.9,1.9c-0.5,1-0.9,2.1-1.4,3.2c1.1,1.4,2.9,2.8,2,4.8c-1.3,5.4,1,10.6,0.9,15.9c0.9,0.8,1.7,1.6,2.6,2.4
		c-0.3,1.4-0.7,2.9-1,4.3c0.9,0.7,1.7,1.3,2.6,2c1.1-0.1,2.2-0.3,3.3-0.4c0,4.5-2.8,8.5-1.3,13c3.5-0.1,7,0.4,10.4-0.4
		c0-0.4,0-1.1,0.1-1.5c-2.8-1.6-5.8-2.9-8.2-5.2c1.2-1.4,2.6-2.6,3.9-3.9c-2.8-4.3-7.6-7.5-8.6-12.9c-0.7-4.6-1.2-9.8,1.2-14
		c0-1.4,0-2.9,0-4.3C96.1,457.2,92.7,455.6,89,456L89,456z M860.4,456.4c-2,0.6-2.8,2.8-3.9,4.4c0,1.4,0,2.8,0.1,4.3
		c2.2,4.3,2.2,9.4,1.2,14.1c-1.4,5.1-5.5,8.8-8.5,12.9c0.8,1.5,3,2.2,3.4,4c-2.3,2.5-5.4,4.2-8.7,4.9c0.3,0.4,0.8,1.3,1,1.7
		c3.4,0.6,6.9,0.6,10.4,0.3c2.1-4.5-1.8-8.3-1.2-12.8c0.8,0.1,2.3,0.3,3.1,0.4c1-0.8,1.9-1.6,2.9-2.4c-0.4-1-0.8-2-1.2-3.1
		c0.2-1.5,1.7-2.4,2.5-3.5c0.1-5.6,2.5-11.1,0.8-16.6c0.4-2.4,3.7-5.1,0.4-7.1c0.8-0.5,1.6-1.1,2.4-1.6
		C863.6,456.2,862,456.1,860.4,456.4L860.4,456.4z M784,465.2c-0.8,0.6-1.5,1.2-2.2,1.8c1.1-0.3,2.2-0.7,3.2-1.1
		c3.9,1.3,7.7-0.9,11.3-2c-1-1.6-3-1.1-4.5-1C789.1,463,786.5,463.9,784,465.2L784,465.2z M157.5,463c1.8,2.4,5.1,2.1,7.6,3.4
		c0.8-0.2,2.2-0.4,3-0.6c1.6,0.6,3.2,1.1,4.9,0.7c-1.1-0.5-2.1-1-3.2-1.5C166.2,463,161.8,462.4,157.5,463L157.5,463z M171,463.6
		c5.2,1.1,10,3.5,13.6,7.5c0.6-1.1,1.2-2.1,1.8-3.2c-1.7-1.5-3.1-3.6-5.4-3.9C177.7,463.5,174.2,461.7,171,463.6L171,463.6z
		 M768.2,467.3c-0.3,1.3,0.7,2.5,1,3.8c2.6-2.1,5-4.7,8.3-5.7c1.8-0.9,4.2-0.8,5.2-2.8C777.8,463.5,771.6,462.9,768.2,467.3
		L768.2,467.3z M190.2,480c-1.5,5.1-0.5,11.3,4.3,14.4c7,4.6,15.8,9,24.2,5.6c2-1.5,4-2.9,5.9-4.6c0.2-0.7,0.6-2,0.7-2.7
		c-0.4-0.4-1.1-1.3-1.4-1.8c0.4-0.6,1.2-1.7,1.6-2.2c1,0.8,2,1.6,3,2.5c-0.1,2,0.2,4.3-1.3,5.9c-2.7,5.1-9.1,5.9-14.2,7
		c-3.4-0.5-6.9-0.9-10.2-2c-3.4-1.8-6.9-3.3-10.5-4.9c4,6.6,11.4,10,18.7,11.2c7.1,0.2,14.6-1.7,20.3-6.3c3.1-2.4,4.6-6.5,4.5-10.4
		c-0.9-4.6-4.7-7.7-8.8-9.5c-5.1-1.2-11.6-2-15.4,2.3c3.9,1.1,7.6-2.4,11.4-0.8c1.4,0.4,2.1,1.5,1.9,2.9c-1.4-0.2-2.8-0.4-4.2-0.5
		c-1.2,2.4-0.2,5.1-1,7.5c-1.9,2-4.4,3.4-6.9,4.6c-2.6,0.4-5.3,0.2-7.9,0.3c-1.2-0.7-2.5-1.1-3.9-1.4
		C194.4,494,190.8,487.2,190.2,480L190.2,480z M718.2,491.8c0,4.1,1.4,8.6,5.1,10.9c4.2,3.3,9.5,4.8,14.7,5.8
		c9.7,0.9,19.9-4,24.8-12.6c-3.1,2.8-7,4.2-10.7,6c-7.2,2.8-15.8,2.7-22.5-1.5c-3-2.3-4.5-5.7-3.9-9.5c1-0.6,1.9-1.3,3-1.8
		c1.7,0.9,0.8,2.7,0.2,4c1.1,4.1,5.2,6.3,9,7.5c4.7,1.7,9.5-0.4,14-1.8c4.1-2.3,9-4.2,11.3-8.6c1.8-2.2,0.8-5.1,0.9-7.6
		c-1.9,2.5-1.9,5.9-3.7,8.6c-3.2,3.3-7,5.7-11.4,7.3c-5.2,0.5-10.5-0.7-14.3-4.4c-2.3-2-0.1-5.2-0.7-7.8c-1.8,0.1-3.5,0.2-5.2,0.3
		c-0.4-2.4,2.2-3.2,4.1-3.2c3.3-0.6,6.1,2.1,9.4,1.2c-3.7-4.7-10.3-3.6-15.3-2.4C723,484.2,719.1,487.3,718.2,491.8L718.2,491.8z
		 M194.5,483.1c0.1,3.8,2.6,6.9,5,9.6c0.2-1.5,0.4-2.9,0.5-4.4C197.8,487,196.1,485.1,194.5,483.1L194.5,483.1z M754,488.4
		c0.2,1.5,0.4,2.9,0.6,4.4c2.5-2.8,4.7-6,5.2-9.8C758,484.9,756.3,486.9,754,488.4L754,488.4z M204.2,489.5c-1,2.3,0.5,4.2,1.8,6
		c3.7,0.5,7.1-0.7,9.9-3.2c-0.7-2.2-3-3.3-5-4C208.6,488.1,206.4,489.1,204.2,489.5L204.2,489.5z M738,491.1c1.9,3.6,6,4.8,9.9,4.3
		c0.8-1.1,1.7-2.1,2.6-3.2c-0.2-0.7-0.6-2-0.8-2.7c-1.9-0.5-3.7-1.1-5.6-1.3C741.7,488.4,740,490.1,738,491.1L738,491.1z
		 M239.4,490.2c0,1.9,0,3.8,0,5.7c-1.3,2.2-2.2,4.6-3.7,6.7c-2.6,2.9-5.9,5.5-9.6,6.8c-1.3,0.6-2.9,0.7-3.9,1.9
		c5.6,0.5,11.2,0,16.8,0.1c140,0,280,0,420,0c23.9,0.1,47.9-0.3,71.8,0.2l0.1-1.4c-5.5-1.2-10.6-4.8-13.4-9.5
		c-0.8-1.3-1.6-2.6-2.5-3.8c-0.4-2.2-0.4-4.4-0.4-6.7c-4.1-0.7-8.3-0.2-12.5-0.4c-16,0.4-32-0.3-48.1-0.1c-61,0-122,0-183,0
		C393.8,489.9,316.5,489.3,239.4,490.2L239.4,490.2z M110.7,501c1.6,1.7,4.6,0,6.8,0.5c0.1,0.6,0.2,1.9,0.3,2.5c1,0.4,2,0.8,3,1.2
		c3.4-1.4,6.8-0.6,10.1,0.5c8.3-0.3,16.9,1.7,25.1-0.4c1.3,0.1,2.6,0.4,3.9,0.7c0.8,1.8,1.8,2.1,2.9,0.4c0.6,0.1,1.7,0.2,2.2,0.2
		c0.4-0.3,1.1-1,1.5-1.4c0.9,0.8,1.8,1.4,2.8,2c0.1-1.4-0.2-2.7-0.8-3.9c-4-1.5-8.3-2.2-12.5-1.5c-13.7,2.9-28.4,2.1-41.1-3.9
		C113.5,499,111.3,499.2,110.7,501L110.7,501z M824.1,502.8c-9,1.3-18.3,1-27.1-1c-3.9-0.5-7.8,0.5-11.5,1.7c-0.4,1.1-0.7,2.3-1,3.4
		c1.2-0.2,2.4-0.6,3.5-1.2c1.7,0.6,3.4,1.2,5.1,1.9c1-2.2,3.8-2.1,5.8-1.9c8.6,1.1,17.2,0,25.9,0.1c2.4-2.2,5.8-1.2,8.5-0.3
		c1.8-0.7,3.4-1.7,3.4-3.8c2.5,0.1,5,0.2,7.5,0.1c-0.8-2.1-3.2-2.8-5.1-3.5C834.1,499.7,829.3,502.1,824.1,502.8z"/>
	<path class="st0" d="M790.5,48.6c6.9-1.6,13.2-5.3,20.5-5.3c6.3-0.8,11.9,2.6,17.8,4c0.6-0.4,1.3-0.8,1.9-1.2
		c-0.4,0.4-1.2,1.3-1.6,1.7c2.4,3,5.5,5.7,9.2,6.8c4.3,1.2,7.2,5,9.1,8.9c0.3,3.7,0.6,7.9-1.8,11.1c-1.6,2.1-3,4.4-4.5,6.6
		c-1.7,2.7-5.6,3-6.8,6c-0.8,1.8-2.5,2.9-3.9,4.1c-2.1-0.1-4.3-0.4-6.4,0c-1.5,0.5-2.9,2.3-4.6,1.1c-0.5-1.2-0.5-2.6,0.5-3.5
		c3.1-1.1,6.7,0,9.7-1.7c-1.4-1.5-3-2.7-4.2-4.3c-0.3-4.7-1.5-10.1,1.1-14.4c-1.6-1.6-3.7-2.4-5.8-3.3c-1.5-0.2-3-0.3-4.5-0.5
		c-0.5-3-2.8-5.3-5.4-6.6c-2.1-0.3-4.1,0.4-6,1.1c-4.7,0.1-9.3,0.1-14,0c-3.6-0.1-6.6-2.5-10.2-2.6c0.6,2.5-0.4,4.7-2.6,5.9
		c-2,0-5.3-0.1-4.8-3.1c0.8,0,2.5,0.2,3.3,0.2c0.1-1.6-0.1-3.5,1-4.9c1.5-1.3,3.5-1.5,5.2-2.1C785.9,52.2,787.7,49.3,790.5,48.6
		L790.5,48.6z M806,47.3c-3.5,0.7-7,1.5-10.3,2.8c-3,1.1-7.4,1.6-7.6,5.6c0.8,0,2.3,0.1,3.1,0.1c5.6-0.2,11.3,0.4,16.7-1.4
		c4.4-1.2,7.3,2.9,10.4,5.2c3.4,3.4,8.6,3.9,12.3,6.8c2.1,1.5,0.1,4-0.2,5.8c-2.1,2.7-1.4,6.5-1.2,9.7c2.6,2.6,5.9,0.2,8.2-1.6
		c0.7-1.1,1.8-2,2.2-3.3c2.2-3.2,4.8-6.9,3.6-11c-0.1-1.9-2.2-2.6-3.4-3.7c-0.9,0-2.6,0.2-3.5,0.2c-0.2-0.6-0.7-1.8-0.9-2.4
		c1.1-0.6,1.9-1.4,2.3-2.6c-1.3-0.7-2.7-1.3-4-2c-1-0.2-2.1-0.3-3.1-0.4c-0.6-0.9-1.2-1.8-1.7-2.6c-1.5-1.7-4.3-3.3-6.3-1.5
		c-2.3,1.9-4-0.9-5.4-2.4C814.5,45.3,809.7,47.5,806,47.3z"/>
	<path class="st0" d="M127.5,46.5c3.6-1,7.1-2,10.6-3.2c6-0.5,12.1,0.5,17.7,2.8c4,1.7,8.7,1.9,12.2,4.9c2.1,2.5,5.9,1.6,8.3,3.7
		c1.1,1.3,0.9,3.2,1,4.9c0.8,0,2.5-0.1,3.4-0.2c0.5,4.4-5.7,3.5-7.3,0.6c0-0.9-0.1-2.6-0.1-3.5c-4.2,0.4-7.9,3.2-12.2,2.7
		c-5-0.2-10.1,0.6-15-0.9c-3.1-1.3-5.2,1.5-7.2,3.3c-0.1,2.8-2.4,3.7-4.9,3.4c-2.1,0.9-4.4,1.6-6.3,2.9c-0.3,2.1,1.6,3.8,1.6,5.9
		c0.1,2.9,0.1,5.9-0.6,8.8c-1.2,1.6-2.8,3-4.1,4.5c3.2,2.4,8.6-0.4,11,3.6c-0.3,3.1-3.6,2.3-4.9,0.5c-2.5-0.1-5.1-0.1-7.6,0
		c-1.3-1.5-2.6-3.1-3.6-4.8c-1.6-3.2-6.1-3.3-7.4-6.7c-1.8-3.7-5.6-6.5-5.5-11c-1-4.5,1.2-8.8,4.6-11.8c2.4-2.4,6.1-2.6,8.9-4.5
		C122.8,51.1,124.1,47.5,127.5,46.5L127.5,46.5z M138.9,47.1c-2.7,0.6-3.1,4.5-5.9,4.6c-2.2-1.3-5.3-2.2-7.3,0l0.2-0.4
		c-0.9,1.3-1.8,2.7-2.6,4c-1.1,0.1-2.1,0.1-3.2,0.2c-1.4,0.8-3.4,1.2-3.8,3c0.5,0.4,1.5,1.3,2,1.7c-0.2,0.5-0.6,1.7-0.8,2.2
		c-2.5-0.5-5.1,0.5-6.5,2.7c-1.4,3.2,0.1,6.6,1.6,9.5l-0.1,0.2c1.3,1.9,2.8,3.7,4.3,5.5c1.4,1,2.7,2,4.1,3c1.3-0.4,2.6-0.9,3.8-1.3
		c0.1-3.9,0.5-8-1.8-11.3c-1.3-1.7-0.2-3.5,0.8-5c1.2-0.6,2.4-1.1,3.4-1.8c2.2-0.1,4.3-1,5.9-2.5c2.1-0.9,3.5-2.8,5.2-4.3
		c1.5-0.9,3-1.9,4.5-2.9c6.3,0.8,12.6,2.1,19,1.6l-0.4-1.7c0.1,0.4,0.4,1.2,0.5,1.6c1.6,0,3.1,0,4.7,0c-1.2-3.6-5-4.6-8.3-5.5
		c-3.1-1.2-6.3-2.3-9.5-3C145.4,47.4,142.1,46.2,138.9,47.1z"/>
	<path class="st0" d="M481.4,56.3c0.2,0.3,0.6,0.8,0.7,1.1c1.1,4.1,1.4,8.4,1.4,12.7c-0.2,4.2,2.3,8.4,0.1,12.5
		c-2.1-1.1-4-1-3.4,2.3c1.3-0.6,3.4-0.9,4.1,0.8c0.6-0.2,1.2-0.4,1.8-0.7c3,3.9,6.4,7.5,8.3,12.1l-0.2,1.1l-1.2,0.7
		c-2.7-3.1-4.3-7-7.2-10c1.1,3.2,2.8,6.1,4,9.2c-2.4-0.5-4.6-1.5-6.9-2.2c-3,0.4-5.9,1.7-8.9,2.3c0.8-4,4.4-6.5,5.2-10.4
		c-3.2,3.3-4.8,7.8-8.2,11c-0.4-0.2-1.3-0.5-1.8-0.7c2.3-5.3,5.9-10.1,10.2-14c-0.8-3.3,0-6.6,0.5-9.8
		C480.1,68.1,481.5,62.2,481.4,56.3z"/>
	<path class="st0" d="M189.4,81c0.9-2.3,2.3-4.3,4.6-5.5c0.9,0.1,2.6,0.2,3.5,0.3c0.6,2.4-0.7,4.7-1.9,6.7
		C193.6,84.4,190.4,83.4,189.4,81z"/>
	<path class="st0" d="M756.8,75.8c3.3-1.6,6.7,1.2,7.7,4.2c0.4,3-3.5,4.3-5.7,3.2C757.7,81,755.4,78.4,756.8,75.8z"/>
	<path class="st0" d="M473.9,106.8c2.2-3.6,5.4-6.4,7.9-9.7c3.1,3.1,7.1,6.2,7.5,10.9c-0.1,2.3,2.5,3,4.3,3.3
		c-0.6-1.3-1.1-2.6-1.7-4c1.6,1,3.1,2.1,4.9,2.8c-0.1,0.3-0.4,1-0.5,1.3c2.5-1,6.2,2.6,7.8-0.6c-0.8,0-2.3-0.1-3-0.2
		c-2.1-1.6-4.9-2.2-6.9-4c-2.1-1.7-3.6-4-4.8-6.4c5.3,0.9,10.5,2.1,15.8,2.5c4,1.1,9,2.1,11.1,6.1c-0.6,1.5-1.3,3.4-3.1,3.6
		c0.2,0.6,0.5,1.8,0.6,2.4c-6-0.7-12-0.7-18-1.7c-2.8-1.2-5.9-1.3-8.6-2.5c-1-0.7-3.9-0.1-2.2,1.3c3.9,2.1,8.6,2.2,12.2,4.7
		c2,1.6,4.6,0.9,6.9,1.1c8.7,0.7,17.4,1.7,26.1,1.5c3.7,0.1,7.4-0.4,11,0.5c6.2,1.6,12.7,0,18.8,1.6c4.6,1.3,9.5,0,14.1,1.5
		c3.3,1.1,6.9-0.1,10.1,1.1c3.3,1.3,7,0.2,10.3,1.6c2.7,1.2,6-0.2,8.5,1.7c2.4,0.3,4.9-0.1,7.1,0.9c2.2,1.1,4.9,0.4,7.1,1.5
		c2.5,1.1,5.4,0.3,7.8,1.9c2.1,0.1,4.3,0.3,6.1,1.5c13.2,2.3,26,6.9,38.5,11.6c2.1,1.2,4.3,2.3,6.5,3.3c-1.1-0.3-2.3-0.6-3.4-0.9
		c-7.5-2.2-14.8-5.6-22.4-7.4c-4.9-1.8-10-3.5-15.2-4.1c-0.3-0.3-1-0.8-1.3-1.1c-1.2-0.1-2.5-0.1-3.7-0.2c-2.1-1.8-5-1-7.4-2
		c-6.7-1.5-13.3-3-20.1-3.9c-3-1.5-6.4-0.6-9.5-1.7c-3.3-1.2-6.9,0-10.1-1.5c-3.2-1.3-6.9,0.2-10.1-1.2c-4.1-1.6-8.7,0-12.9-1.4
		c-5-1.5-10.3-0.4-15.3-1.2c-8.1-2-16.5-0.2-24.7-1.4c-9.6-1.4-19.3-0.5-29-1.2c-5.7-0.3-11.3,0.5-17,0.1c-5-0.2-10,0.7-14.9,0
		c-13.1,2.1-26.4,1.4-39.6,1.5l0.2,1c-4.5-0.4-9,1.1-13.6,0.3c-3.6,0.1-7.5-0.2-10.8,1.5c-4.4-0.1-8.7-0.3-13,0.3
		c-3.2,2.2-7.7,0.1-11.3,1.2c-4.4,1.8-9.4,0.3-13.8,2.2c-2.8,1.1-6.1-0.4-8.7,1.2c-2,1.1-4.4,0.4-6.6,0.5c-0.8,0.5-1.6,1.1-2.4,1.6
		c-5.6-0.3-10.9,2-16.4,2.8c-4.5,0.6-8.6,2.6-13.1,2.8c-1.9,1.8-4.9,0.7-6.8,2.5c-3.8-0.3-7,2.4-10.8,2.3c2.1-1.7,5.3-0.9,7.4-2.9
		c4.2-0.9,8.1-3.1,12.4-3.4c4.8-2.1,10.2-2.1,15-3.8c3.8,0.1,7.3-2.3,11.1-1.4c0.8-0.5,1.7-1,2.5-1.5c2.1-0.1,4.2-0.1,6.3-0.2
		c3.3-2.2,7.5-0.5,11.1-2c4-1.8,8.9,0.7,12.5-2c3.5,0.1,6.9,0.2,10.4-0.2c5.1-2.3,11.1,0.1,16.4-1.8l0.1-0.7
		c5.8-1.4,11.8,0.6,17.7-0.2c1.8-1.6,4.5-0.6,6.8-1c13.4-0.2,26.7,0.1,40-1.6c2.8,0,5.4-1.2,7.9-2.4c3.2-1.1,7.5-1.5,8.9-5.1
		c-2.8,0.3-5.4,1.4-8.1,2.2c-1.1-0.9-2.3-1.7-3.7-2.2l0.8,1.6l2.2,0.6c-1.6,1.7-4.2,0.7-6.3,1.6c-3.8,1.2-7.7,0.8-11.5-0.2
		c-1.1-0.6-1.6,0.9-2,1.6c-5.5,1.5-11.4,0.3-17,0.9c0.1-0.5,0.3-1.4,0.4-1.8c-4.6,0.4-9.3,0.1-13.9,0.6l-1.1,1.6
		c4.4-0.1,8.8-0.4,13.2,0.2c-6,1.4-12.1-0.4-18.1,0.5c-7.9-0.2-15.9,0.4-23.8,0.8c-0.2-0.7-0.5-2-0.6-2.6c-0.9,0-2.6-0.1-3.5-0.2
		c0.2-0.2,0.5-0.8,0.7-1c5.4-1.2,11.2,1.9,16.2-1.1c4.3-0.3,8.6,0,12.8-0.7c0.1-0.4,0.2-1.1,0.3-1.5l0.2,1.4c10.7-0.1,21.3-0.6,32,0
		c-0.2-0.9-0.7-2.8-1-3.7c3.8-5.5,10.9-4.7,16.7-5.8c3.6-0.3,7-1.7,10.3-3.1c-0.9,3.2-3,5.9-5.8,7.7c-0.2,0.3-0.5,1-0.6,1.3
		c1.6,0.4,2.8-0.9,4.2-1.5c-1,1.1-1.6,2.4-2,3.8c1.5-0.3,2.9-0.6,4.4-0.9C474.3,109.6,474,107.7,473.9,106.8L473.9,106.8z
		 M481.4,101.4c-2.2,2.7-4.6,5.3-6.8,8c3.2-0.2,5.1-3.2,7-5.5c1.7,1.6,3.4,3.2,5.5,4.4C485.6,105.7,483.6,103.4,481.4,101.4
		L481.4,101.4z M495.8,105.2c0.8,2.1,3.2,2.8,5,3.9c2.9,0.1,5.5,1.9,8.4,2c1-4.3-5-2.3-6.3-5.4C500.5,105.7,498.1,105.4,495.8,105.2
		L495.8,105.2z M460.5,106.4c-0.3,0.4-0.9,1.2-1.2,1.6c-2.4-0.4-5.6,0.5-4.8,3.6c4.5-1.3,9.3-2.5,13.1-5.4
		C465.2,106.3,462.9,106.4,460.5,106.4L460.5,106.4z M479.8,108.4c-0.4,2.7,2.5,0.7,4,0.5c-0.6-0.5-1.2-1.1-1.7-1.6
		C481.4,107.6,480.3,108.2,479.8,108.4L479.8,108.4z M465.1,109.6c-0.7,1.7-0.1,2.2,1.7,1.5C467.1,109.4,466.6,108.9,465.1,109.6
		L465.1,109.6z M460.6,111.1c-1,1.5,1.8,1.9,2.6,1.2C464.5,110.8,461.4,110,460.6,111.1L460.6,111.1z M435.6,115.2
		c5.1,0.4,10.4,0.4,15.4-1c-0.4-0.5-1.2-1.5-1.7-2C445,114.6,439.5,112,435.6,115.2z"/>
	<path class="st0" d="M151.5,102.9c2.5-3.2,7.4-3.7,11-2.4c1.3,1,0.8,2.9-0.6,3.3c-2.9,0.8-6,1-8.9,1.6
		C152.6,104.8,151.9,103.6,151.5,102.9z"/>
	<path class="st0" d="M790.5,103.1c0.6-1.2,0.8-2.9,2.4-3.3c3.6-0.6,7.3,0.6,10,3.1c-0.5,0.6-1.4,1.9-1.9,2.5
		C797.4,104.9,793.8,104.5,790.5,103.1z"/>
	<path class="st0" d="M787.1,107.7c2.9-1.2,6.5-1.4,9.3,0.3c1.4,1.3-0.9,3.6-2.4,3.4C791.3,111.3,787.4,111.4,787.1,107.7z"/>
	<path class="st0" d="M519.1,113.6c0.8-1.4,2.5-1,3.8-1.2c13.4-0.3,26.7,1.3,40,1.4c0.5,0.4,1.6,1.1,2.1,1.5c4.8,0,9.7-1.1,14.4,0.4
		c-1.4,0.6-3,0.7-4.5,0.9l0.6,1.5c3.6,1,7.5-1,11.3-0.2c2-0.3,2.4,2.4,4.4,2.2v-1.9c3.2-0.5,6.6-0.4,9.7,0.6
		c4.2,1.3,8.8,0.3,13.1,1.3c-12.6,1.6-25.3-0.4-37.9-1c-8.5,0.3-16.8-1.8-25.3-2.3c-2.5,2-5.8,0.7-8.7,0.6c-0.2-0.2-0.7-0.5-1-0.6
		c-6.7,0-13.5-0.1-20.2-0.3c-2.1,0.1-4.3-1-6.4-0.1c0.4-0.7,0.9-1.5,1.3-2.2l1.6,1l-0.1-1.7C517.8,113.3,518.7,113.5,519.1,113.6
		L519.1,113.6z M520.6,113.6l-0.2,1.3c3.9,0.2,7.7-0.9,11.6-0.6C528.2,113.8,524.4,113.7,520.6,113.6z"/>
	<path class="st0" d="M376.9,117.7c4.4-1.7,8.8,0.1,13.2,0.6c-10.4,1.5-20.9,0.7-31.4,1.2c-2.9,1.2-6.6,1.1-9.5,0
		c1.7,0.1,3.3,0.2,5,0.1C361.5,117,369.4,117.4,376.9,117.7z"/>
	<path class="st0" d="M473.3,146.8c2.4-0.4,4.7-1,6.8-2.1c1.8-1.1,3.3,0.9,4.8,1.6c0.8,0,2.5-0.1,3.3-0.2c-0.3,1.8-1.5,3.1-2.7,4.3
		c4.2,0.9,7.7,3.5,11.4,5.3c-0.5,0.6-1.3,1.8-1.8,2.4c3.6,0.2,7.1,1.1,10.7,1.7l-0.4-1.3c0.8-0.6,2.4-1.7,3.2-2.3
		c-2.7-0.4-7,1.9-8.5-1.5c0-2.1,2.5-2.7,3.8-3.9c-0.3,1.2-0.9,3.5-1.2,4.7c2.5-0.5,1.8-2.5,1.3-4.2c3,0.1,5.9-0.3,8.9-0.2
		c1.5,0.3,1.7,2.2,2.5,3.3c1.4,0.1,2.8,0.1,4.3,0.2c-1.3-3.3,3.5-2.3,5.1-1.1c-0.4,0.7-1.1,2.1-1.5,2.8c1.8,0.1,3.6,0.2,5.5,0.3
		c0.9,0.9,2.7,1.7,2.2,3.3c-0.6,1.6-2.5,2-3.7,2.8c0-1.8,2.8-2.6,1.3-4.3c-1.2-0.2-2.4-0.3-3.7-0.3c0.9,0.9,4.8,2.4,1.1,3
		c0.3,0.3,1,0.9,1.3,1.3c-2.9,0.5-6.8,2.4-9-0.6c-1.2-1.8-3.7-1.4-5.4-2.4c0,0.7,0,2.2,0,2.9c-1-1-1.9-2-2.8-3c-1-0.1-3-0.2-4.1-0.2
		c1.1,1.7,2.1,3.5,2.8,5.4c6.5,0,13,0.8,19.5-0.1c6.4,0.1,12.9-1.3,19.1,0.6c4-0.5,7.9-1.1,11.8,0c11-0.2,22,0.4,33.1,0
		c1.6-0.3,2.9,0.5,4.1,1.4c-1.7,0.1-3.5,0.1-5.2,0.1c-0.3,1.1-0.5,2.7-2,2.5c-3.4,0.4-6.7,0-10-0.5c-3.4,4-9.2,3.2-13.8,2.1
		c-3.6,2.3-8.1,0-12.1,0.7c-4.7,0.7-9.4-0.1-14-0.8c-9.4-0.1-18.7-0.4-28.1-0.3c-4.4,0.1-8.5-1.8-12.9-1.6c-2.1,0.2-4-1-6-1.4
		l0.7,1.1l2.4,0.4c-1,2.8-4.9,0.8-7.2,1.4c-0.9-0.7-2-1.1-3.1-1.4c0.7,0.6,2.1,1.7,2.8,2.3c-4.1,1.2-8.4,0.5-12.5,0.5
		c-0.3-0.4-0.8-1-1-1.4c-2.6-0.1-5.2,0-7.9-0.2c1.8-1.6,4.7-1.7,6-3.9c-0.5,0.4-1.5,1.1-2,1.5c-1.9-0.3-4-0.7-5.5,0.9
		c-5.3,0.2-10.3,2.1-15.6,1.8c-7.7-0.1-15.3,0.3-23,0.2c-5-0.2-9.9,1.7-14.9,1c-4.7-0.9-9.5,0.9-14.1-0.5c-4.7,0.3-10.4,1.6-14-2.3
		c-3.8,0.2-7.7,1.2-11.3-0.1c-0.1-0.5-0.2-1.6-0.3-2.1c-1.9,0.1-3.8,0.1-5.6,0.1c1.1-1.8,3.4-1.9,5.3-1.7c4.2,0.6,8.5,0.1,12.7,0.1
		l0.1,1.4c-1.9,0.1-3.8,0.1-5.6,0.1c0,0.2,0,0.6,0,0.8c2.1,0,4.2,0.1,6.4,0.1c-0.1-0.6-0.2-1.8-0.3-2.4c5.6,0.2,11.1-0.4,16.7,0.1
		c4.7-0.7,9.5-1.4,14.2,0c5.3-2.5,11.8,0.2,17-1.3c0.4-2-1.9-2.8-2.9-4.1c2.7-3.9,7.8-1.5,11.5-3.4l-1.2-2.1c-0.3,0.7-0.9,2-1.2,2.7
		c-1.5-0.9-2.5-2.1-1.1-3.7c2.5,0.5,5,1.7,7.7,1.3c1.1-1.1,2.1-2.4,3.4-3.2c2.5-0.2,5,0.1,7.5-0.1c-0.3,0.7-0.6,1.5-0.9,2.2
		c0.5,0,1.4,0,1.8-0.1l-0.1,1.8c0.6-0.1,1.7-0.3,2.2-0.4c-0.5-0.6-1.6-1.9-2.1-2.5c1.5,0.2,2.8,0.8,4,1.8c-0.1,0.5-0.2,1.5-0.2,2
		c-2,0.5-3.9,1-5.8,1.5c0-0.6,0-1.8,0-2.5l-1.1,0.2c-0.3-1-0.7-2-1-3.1c-0.9,0.2-3.6-0.8-2.6,0.8c0.5,0.2,1.4,0.6,1.9,0.8
		c0.2,0.6,0.6,1.7,0.7,2.2c1.4,0.9,2.4,2.4,2.4,4.2c3.5-1.6,7.4-1.9,11.2-2.2c-0.4-0.8-0.8-1.7-1.2-2.6c3.6-2,6.7-5.4,11.1-5.1
		C475.3,149.3,474.3,148,473.3,146.8 M477.2,152.9c0.9-0.6,1.8-1.2,2.8-1.8c0.9,0.3,1.9,0.5,2.8,0.6c1.6,1.4,3.1,3,4.4,4.8
		c-4-0.9-8.1-1.7-12.1,0.1c0.2-0.9,0.6-2.6,0.8-3.5c-1,1.3-2,2.7-3.1,3.9c-0.4-0.8-0.9-1.6-1.3-2.4c0.2,0.7,0.5,2.1,0.7,2.8
		c-1.1-2.4-2.3-2.7-3.4-1c2,0.9,4.1,1.6,6.1,2.4c-1.5,1-3,1.9-4.5,2.9c-1.1,0.7-2.1-0.5-3.1-1c-2.8,0.1-5.4,1.2-8.1,1.8
		c0,0.5,0.1,1.5,0.1,2c1.8-0.5,3.6-1,5.4-1.5c0.2,0.6,0.6,1.9,0.8,2.6c0.6-2.7,2.8-2.4,4.8-1.7c0.2-0.4,0.6-1.2,0.8-1.6
		c0.3,0,0.8-0.1,1.1-0.1l0.5,1.4c0.8-0.1,2.5-0.2,3.3-0.3c-0.4-0.5-1.3-1.6-1.8-2.1c1.7-2.1,4-4.2,6.7-4.7c2.9,1.2,7.7,3.4,5.3,7.3
		c1.8,0,3.3-1.1,4.9-1.8c-1.3-1-2.6-2-3.9-2.9l0.2-0.9c1.8-0.3,3.4-1.2,5-2c-1-0.5-2.8-3.6-2.5,0.3c-3.2-1.9-6.4-3.8-8.9-6.6
		C479.8,150.8,478.5,151.8,477.2,152.9 M520.9,154.2C519.6,157.3,524.5,154.4,520.9,154.2 M442.5,156.4c-0.6,1.6,0,2.1,1.6,1.6
		C444.8,156.3,444.2,155.8,442.5,156.4L442.5,156.4z M432.1,159.4c-1.1,1.1,0.9,2.9,2.1,2.3C435.2,160.5,433.3,158.5,432.1,159.4
		L432.1,159.4z M446.1,160.8c-0.7,0-2,0-2.6,0c-0.5,0.9-1,1.8-1.5,2.7c-2.6,0.8-6.3-1.5-8.2,0.6c0.2,0.2,0.6,0.6,0.8,0.8
		c5.9,0.1,11.8,0.1,17.6-0.3c1.1,0.8,2.2,1.5,3.3,2.2c0.1-0.3,0.2-0.8,0.2-1.1c-3.7,0.4-2.2-3.7-1.1-5.5c-2.6-0.4-4.7,1-6.8,2.1
		c-0.1-0.8-0.4-2.3-0.5-3.1C447.1,159.6,446.5,160.4,446.1,160.8L446.1,160.8z M438.9,160.5c-0.5,1.6,0,2.1,1.7,1.6
		C441.1,160.5,440.5,159.9,438.9,160.5L438.9,160.5z M493,161.3c0.6,0.4,1.9,1.3,2.5,1.7c-0.4,0.5-1.3,1.4-1.7,1.9
		c0.7-0.1,2-0.3,2.6-0.4c0.1-0.4,0.4-1.2,0.5-1.6c1.8-0.2,3.7,1.7,5.7,0.6c-0.1-2.5-4.2-1.1-5.6-3.1
		C495.7,160.6,494.3,160.9,493,161.3L493,161.3z M480,161.8c-0.6,1.5,0,2.1,1.6,1.7C482.2,162,481.6,161.4,480,161.8L480,161.8z
		 M505.7,165.8c0.9,1.3,1.8,1.2,2.7-0.1C507.5,164.3,506.6,164.3,505.7,165.8L505.7,165.8z M390.1,166.3c0.1,0.3,0.1,0.9,0.2,1.2
		c0.7-0.1,2.1-0.3,2.8-0.4c1.7,2.6,4.1,0.5,6.2-0.1v-0.9C396.3,166.2,393.2,166.9,390.1,166.3L390.1,166.3z M402.1,166.3
		c0,0.2,0,0.7,0,1c1.8,0,3.6,0.5,5.2,1.2c0-0.6,0.1-1.7,0.1-2.2C405.7,166.3,403.9,166.3,402.1,166.3L402.1,166.3z M427.6,166.7
		l-0.1,1.2c-3.9-0.1-7.8-0.2-11.6,0.6c1.4,0.1,2.7,0.2,4.1,0.4c5.3-1.1,10.7-0.6,16-0.7c3-0.1,6-0.7,9.1-0.5c2.7,0.4,5.8,2,8.3,0.3
		c-4.2-0.1-8.1-1.8-12.3-1.5C436.6,166.4,432,166.1,427.6,166.7L427.6,166.7z M514.8,166.7c-2.4,1.5-5.6,0.5-8.2,1.6
		c3.4,0.7,6.9,0.4,10.2-0.7c4.1-0.1,8.1,0.7,12.1,0.5c4.3,0.2,8.7-0.4,12.9,0.8c1.1-0.2,2.2-0.4,3.4-0.6c-3.7-0.9-7.5-0.3-11.3-0.9
		c-1.2-0.8-2.5-1.2-3.9-1.1C525,166.3,519.9,166.4,514.8,166.7L514.8,166.7z M554.2,166.3c0.1,0.5,0.4,1.5,0.5,2
		c2.9-1.4,6.2-0.9,9.3-1c0.8,0.5,1.6,1.1,2.4,1.6c0.6-0.5,1.7-1.6,2.3-2.1C564,165.7,559.1,166.9,554.2,166.3L554.2,166.3z
		 M576.7,166.7c1.9,1.7,5.6,1.3,7.3-0.4C581.5,166.2,579,166.2,576.7,166.7z"/>
	<path class="st0" d="M425.9,206c17.3-6.1,35.3-11.5,53.8-11.2c-1,4.3-5.7,2.7-8.8,3.3c-8.3,1.5-16.8,2.2-24.7,5.2
		c-3.3,1.5-6.8,2.4-10.1,3.6c-1.8,2-4.4,2.5-6.6,3.7c-10.1,5.8-19.5,13.5-25.5,23.6c5.8-0.7,11.4,0.9,17.1,2c3,0.7,5.9,1.7,9,1.6
		c3.5-0.4,6.6-2.4,10.2-2.4c1.4-1,3.2-1.1,4.9-0.9c-4.6,1.4-9.1,3.3-13.9,4.1c-1.4,2.4-4.3,2.1-6.7,2.2c0.1-0.6,0.4-1.8,0.6-2.4
		c-2.5-0.8-5.1-1.7-7.8-1.7c-4.7,0.1-9.4-1.2-14.1-1.6c-2.1,3.5-3.5,7.5-5.7,10.9c0.5,3.1-1.1,6-1,9.1c0,1.7,0.5,3.6-0.9,4.9
		c-0.5,7.7-0.1,15.5,1.1,23.2l0.7,0.9c0,1.1,0,2.2,0.1,3.3c1,1.1,2.7,1.8,2.1,3.7l1.4-0.5c-0.1,0.6-0.3,1.7-0.4,2.2
		c0.4,0.5,1,1.6,1.4,2.2c-1.4-1.6-2.5-3.3-3.4-5.2h-0.8c-0.4-1.7-0.9-3.4-1.4-5c-0.4,0.3-1.2,0.8-1.6,1.1c0.3,5.4,4.2,9.7,5,14.9
		c2.9,10.3,12.8,16.7,22.6,19.5c9.8,2.9,20.7,4.7,30.5,1.1c3.9-1.8,8.4-0.7,12.5-1.1c0.4,0.6,0.8,1.2,1.3,1.8
		c-2.4,6.9-5.5,13.7-9.4,19.9c-2.6,4.1-6.3,7.3-9.5,10.9c5.5,7.7,10.8,15.6,14.4,24.5c5,11.5,7.6,24.1,7.3,36.7
		c2.3,0.7,4.5,1.8,6.9,2c-0.6-1.2-1.4-2.3-2.2-3.3c2.3-1.5,5-2.3,7.8-2.2c0.9,0.7,1.8,1.3,2.6,2c-1.5,0.8-2.8,2.9-0.9,4.1
		c8.6-3.7,18-6.6,27.5-5.9c4.2,0.4,7.2,3.7,8.7,7.5c-2.1,3.3-5.1,5.9-8.9,7c-0.1,0.5-0.4,1.5-0.5,1.9c4.4-1,7.5,5.2,3.8,8
		c-5.9,4.9-14.4,4.4-21.3,2.4c-3.2,5-6.2,10.7-11.5,13.8c1.9-5.6,5.5-10.7,8.7-15.7c-0.7-0.3-1.4-0.6-2.1-0.9
		c-1.8,5.4-4.5,10.7-8.4,14.9c-0.5,0.1-1.6,0.2-2.1,0.2c-0.5,1.8,0.1,3,1.6,3.6c1.4-0.5,2.8-1.1,4.3-1.7c0.5,6.5-1.1,12.9-1.5,19.4
		c-1,3.9-1.9,7.7-2.6,11.6c-0.4,0-1.1,0-1.5-0.1c0.1-4.5-0.4-9-1-13.5c0-5.6-1-11.2-1.3-16.8c0.4-0.3,1.3-0.8,1.7-1
		c-4.4-4-7.8-8.9-10.2-14.3c-7.9,2.3-18.2,3.4-23.9-3.9c0-0.8,0.1-2.4,0.1-3.2c1.6-2.6,4.9-3.1,7.1-5.1c-4.8-0.5-10.2-3.3-10.2-8.8
		c2.6-3.7,7.4-5.9,12-5.6c5.8-0.4,11.4,1.7,17,3c-0.9-4-3.1-7.5-4.2-11.5c-2.4-8.1-4.3-16.3-7.6-24c-1.8-4.5-4.2-8.6-5.9-13.1
		c-3.1-2.6-4.6-6.5-7.1-9.6c-8.2,6.2-17.1,12.1-27.1,14.9c-3.9,0.5-8.1,1-12,0c-2.4-0.4-3.1-3-3.8-4.9c-7.9,2.8-16.4,4.4-24.7,3.1
		c-4-1.1-8.4-3.1-9.7-7.4c-7.8,0.4-15.8,2.1-23.7,1.5c-6.8-0.4-14.2-1-19.6-5.7c-3.2-2.4-4.1-6.9-3.2-10.6c0.5-2.7,3.1-4.1,5.2-5.4
		c-0.6-1-1.2-2-1.8-3c2.5-0.3,4.3,1.4,6.3,2.6c6.7-1.7,15.6-0.9,19.7,5.4c-0.7,1.1-1.4,2.2-2.2,3.2c2.2,0.2,4.5,0.4,6.7,1
		c7.8,1.1,15.7-0.6,23.5-0.8c15.6-2,31.4-4.4,46.2-10c-8.4-6.2-17.5-11.8-24-20c-3-2.9-4.8-6.6-7-10.1c-1.5-4.1-3.8-7.9-4.6-12.1
		c-1.6-3.2-1.7-6.8-2.9-10.2c-2.7-4.5-1.8-9.8-2.6-14.8c1.1-4.9,1.7-10,1.4-15c1.5-7.8,3.8-15.6,7.6-22.6c-7.2-1.2-14.5-0.2-21.7,0
		c-1.6,0.1-3.3,0.2-4.8,0.7c-6.8,0.5-13.5,1.9-20.1,3.3c-2.7,0.6-6,2.4-5.8,5.6c-0.3,3.3-1.1,6.5-3.1,9.2c-2.2,2.7-0.1,6.2,1.3,8.7
		c0.1-2.9,1.3-6.1,3.9-7.7c5.9-4.3,15-4,20.2,1.3c2.9,2.5,2.9,7.6,0.1,10.1c-3.5,4.5-9.7,4.9-14.9,4.6c-5.8-2.5-12.2-6-14-12.6
		l-0.5-0.1c-7.7,6.3-17.3,9.8-27.1,11.6c-0.4,5.4,2.4,10,4.3,14.7c-1-5.4,2.5-10.6,6.9-13.4c5.6-3,12.4-4.2,18.5-1.9
		c6.1,1.5,12,6.7,11.6,13.5c-1.2,2.2-1.9,4.8-3.9,6.5c-5.7,5.1-13.9,6.2-21.1,4.5c-4.9-1.4-9.2-4.4-13-7.7
		c-4.4-3.7-6.2-9.7-6.5-15.3c-8.7-0.1-17.5,1-26.1-1c-10.9-1.7-22.4-6.1-29.1-15.3c-2.3-3.3-3.1-7.4-4.4-11.1
		c0.3-4.6,2.8-9.2,6.3-12.2c4.3-5.5,11.7-7.1,18.3-7.4c5,0,10.1-0.4,15,0.9c1.8,0.2,3.7,1.2,5.4,0.4c0.3-1.2,0.6-2.5,0.9-3.7
		c-2.7-1.9-6.1-2.2-9.3-3c-3.8-0.7-7.6,1.8-11.4,0.4l0.1-1.4c0.4-0.3,1.3-0.9,1.8-1.1c-1.3-3.4,2.5-3.8,4.8-4.3
		c-1.8-1.4-4.6-2.1-5.2-4.5c0.3-3,3.8-2.8,6-2.5c3.8-1.5,9.8-1.1,11.7,3.1h0.9v1.4c0.4-0.1,1.4-0.2,1.8-0.2c0.3,1.6,0.6,3.2,1.1,4.8
		c-0.8,0.8-1.6,1.5-2.4,2.3c2.9,1,5.6,2.6,7.4,5.2c-1.2,2.5-2.7,4.8-4.2,7.1c2.9,1,3.4,4.9,1.4,7c0.1,2.7,0.6,5.4,0.9,8.1
		c-0.4,0.5-1.3,1.5-1.8,2c-6.9,3.1-14.5-0.2-21-2.9c-0.6-1.1-1.1-2.2-1.7-3.3c-2.5-1.3-7.1-2.3-5.5-6.1c2.8-1.7,5.5-3.6,8.4-5.2
		c2.4,0.3,5.5-0.8,7.3,1.3c0.7,1.1,0.5,2.5,0.6,3.8c-0.6,0-1.9-0.1-2.5-0.1c-0.3-0.6-0.9-1.8-1.2-2.4c-2.3,0.3-3.8,2-4.7,4
		c4.7,1.2,9.5,1.3,14.3,1c-0.5-2.5,0-5.4-1.3-7.7c-3.3-2.5-7.7-1.5-11.5-2.6c-4.2,0.4-8.5,0.3-12.6,1.4c-3.9,1.8-7.8,4-10.2,7.6
		c-2.5,4.4-4.6,9.6-2.7,14.6c3,7.8,10.5,12.8,18,15.6c11.7,3.7,24.4,5.2,36.6,3c0.3-1.7,0.4-3.5,0.9-5.2
		c6.2-7.4,12.8-15.2,21.9-19.1c11.4-4.7,23.4-7.8,35.7-9c10.2-1.8,20.5-0.7,30.7-0.4c1-1.1,2-2.1,2.8-3.4c4.7-6.9,11-12.5,17.9-17
		C416.6,210.5,421.5,208.7,425.9,206L425.9,206z M276.8,204.4c-1.2,0.8-2.3,1.7-3.5,2.6c0.8,1,1.6,1.8,2.6,2.5
		c1.9-0.2,3.6,0.5,4.9,1.8c-2.3,0.8-6.2,1.1-5.7,4.4c3.5-0.2,6.8-1.4,10-2.5c0.2-1.5,0.6-3,1.2-4.4c-0.7-1.7-1.6-3.2-2.9-4.5
		C281.3,204.5,279,204,276.8,204.4L276.8,204.4z M418.9,212.5c-1.3,2.6-4.1,3.4-6.3,5.1c-6.5,5-12.1,11.2-16,18.4
		c-1.8,3.7-3.5,7.5-5.6,11c-1,1.5-0.7,3.4-0.9,5.1c-2.2,5.7-1.8,12-2.7,18c2.3-0.6,3-3,3.9-4.9c1-5.7,1.8-11.4,2.7-17.1
		c0.4-0.5,1.2-1.4,1.6-1.9c0-0.7,0.1-2.2,0.1-3c4.9-12.8,14.6-23.2,25.8-30.7C420.6,212.5,419.7,212.4,418.9,212.5L418.9,212.5z
		 M276.3,238.4c-0.1,0.3-0.2,1-0.2,1.4c3.5,3,8.3,4.6,12.9,3.9c-0.3-2.2-1-4.3-1.6-6.4C283.7,237.3,280,237.8,276.3,238.4
		L276.3,238.4z M321.1,248c-3.3,1.6-5.1,5-8,7.1c-2.6,1.9-3.5,5.2-5.7,7.4c-1.3,1-0.9,2.8-1.1,4.2c7.4-1.4,14.6-4,20.4-8.9
		c5-3.3,8.6-9,8.7-15.1c-0.4-0.2-1.2-0.5-1.5-0.6C329.3,243.4,324.9,245.2,321.1,248L321.1,248z M353.2,253.6c1.5,1.2,3,2.5,4.1,4.1
		c0,0.9,0,2.6,0,3.5c-3.4,4.4-11.3,5-14.6,0.2c-1.9-1.5-0.5-3.7,0-5.5c-1.9,1.4-3.9,3.7-2.6,6.3c1.1,4.9,6.9,5.3,10.9,6.3
		c3.8-0.7,8.1-1.8,10-5.5C362.6,258.1,358,253.5,353.2,253.6L353.2,253.6z M343.5,259c0.9,1.9,2.6,3.2,4.3,4.4
		c0.9,0,2.6-0.1,3.4-0.1c2.9-0.9,5.9-3.6,3.5-6.7c-1.2-0.6-2.4-1.2-3.6-1.9c-0.8-0.1-2.4-0.2-3.3-0.3
		C346.1,255.7,344.6,257.2,343.5,259L343.5,259z M323.1,270.8c0.2,0.4,0.7,1.1,0.9,1.4c-0.5,1.2-2.1,1-3.1,1.7c-2.7,1.6-3.6,6-1,8.1
		c2.7,2.5,6.7,2.5,10.2,2c2.9-0.9,6.5-3.7,5-7c-1.1-3.3-4.9-3.8-7.7-4.9c5.4-3.3,13.6,5.1,8.9,10.3c-5.1,5-15.4,5.5-19.5-1.2
		c-1.8-2.8,0.1-5.9,1.3-8.5c-4.7,1.6-7.1,8.2-4,12.3c1.7,3,5.1,4.5,8.2,5.6c6,1.3,13.3,1.3,18-3.3c3.5-3.1,4.2-8.8,0.8-12.3
		c-3.1-3-7.7-5.8-12.1-4.4c-1.1,0.1-2.1,3-3,1.4c-0.2-0.4-0.6-1.2-0.7-1.6C324.7,270.5,323.6,270.7,323.1,270.8L323.1,270.8z
		 M392.5,293.1c0.4,2.1,0.9,4.2,1.2,6.3c2.4,4.5,3.8,9.6,7.2,13.5c1,2.5,3.2,4.2,4.8,6.3c5.7,7.1,13.2,12.3,20.7,17.3
		c0.9,0.5,1.9,1.6,3,1c9.8-4,19.4-8.7,27.7-15.3c-4.7,1.3-9.3,2.9-14.2,3.2c-7.1,0.4-14.1-1.4-21-2.9c-7.2-2.3-14.2-5.5-19.7-10.8
		C397.9,306.2,394.5,299.9,392.5,293.1L392.5,293.1z M461.8,324.3c-7.4,7-14.9,14-23,20.1c1.7,2.7,4.9,3.8,7.1,6.1
		C453.4,343.4,458.9,334.3,461.8,324.3L461.8,324.3z M446.2,332.3c-4.8,2.3-9.7,4.6-14.7,6.5c0,0.4-0.1,1.1-0.1,1.5
		c0.6,0.1,1.7,0.4,2.3,0.5c2.6-2,5.8-3,8.3-5c2.4-1.3,4.9-2.4,6.7-4.6c1.2-0.7,2.5-1.4,3.8-2.1c0-0.2,0-0.6-0.1-0.8
		C450.4,329.7,448.3,331,446.2,332.3L446.2,332.3z M375,351.5c-9.6,0.3-19.5,1.5-28.9-0.7c-5.2,2.7-12.2,2.8-16.2-2
		c0.8-0.4,2.4-1.2,3.2-1.6c-0.5-1.5-2-2.3-3.2-3.1c-1.2-0.6-2.6-2.4-3.9-1.1c-4.6,2.7-4.1,10,0.2,12.9c6.7,5.2,15.8,4.4,23.8,4.5
		c5.8,0.3,11.4-1.2,17.1-1.8c2.5-2.5,5.2-4.8,8.8-5.5c0.6,0.6,1.2,1.2,1.9,1.8c-2,0.6-4,1.2-5.9,2.3c1.7,0.3,3.5,0.5,5.1-0.4
		c3-0.5,6.1-0.8,9-1.5c-2.2-0.8-4.6-0.7-6.9-0.7c-0.7-0.6-1.4-1.1-2.1-1.6c4.6-0.8,9.3-0.6,13.8,0.7c5.5,0.1,10.7-2.2,16.1-3.1
		c7.3-2.5,14.8-4.4,21.8-7.4c-0.7-1.4-2.2-3-3.9-2C408.9,347,391.9,349.6,375,351.5L375,351.5z M332,341.8c2.5,4.1,8,5,12.2,6.7
		c1.5-1.2,1.9-3.8-0.1-4.8C340.5,341.8,336.1,341.8,332,341.8L332,341.8z M420.5,348.3c-8.5,3.2-17.4,5.3-26.2,7.4
		c0,1.2,0,2.4,0,3.7c-3.2,4.4-9.5,3.9-14.4,3.6c-2-0.6-4.5-1.2-4.8-3.6c-1.6,0.3-3.3,0.6-4.9,1c-0.5,3,2.6,4.2,4.8,5.2
		c8.6,2.8,17.8,0.5,26-2.5c9.7-4.2,19.5-8.7,28.2-14.9c1.3-1.1,3.8-1.7,3.6-3.8C428.4,344.6,424.7,347.3,420.5,348.3L420.5,348.3z
		 M433.9,347.8c-8.6,6.1-17.9,11.4-27.8,15.3c-1.8,0.5-1.3,2.8-1.7,4.1c2.8,2.2,6.4,1.4,9.7,1.4c2.9-0.1,5.5-1.6,8.2-2.5
		c7-3.2,13.6-7.3,19.6-12.2c0.4-1.6-1.4-2.6-2.2-3.6C437.9,349.1,436.2,346.3,433.9,347.8L433.9,347.8z M334.1,348.3
		c1.4,3.1,4.8,2.2,7.5,2.4c0-0.4,0.1-1.1,0.1-1.4c-2,0-3.9,0-5.9,0.1C335.4,349,334.5,348.5,334.1,348.3L334.1,348.3z M377.6,359.3
		c3.1,3.6,8.5,2.1,12.3,0.7c1.7-0.4,2-3,0.2-3.5C386,357.5,381.6,357.8,377.6,359.3L377.6,359.3z M451.7,413.5
		c6.6,1.7,12.7,5.2,17.8,9.9c2.3,2.4,3.1,5.8,1.8,8.9c4.6,2.2,10.4,4.4,14.9,0.7c2.3-0.6,1.1-2.7,0.6-4.2c1.1-1.7,2-3.5,2.6-5.5
		c3-2.6,6.6-4.2,10-6.2c2-1.2,4.7-1.7,5.9-3.9c-1.9,0.1-4,0.2-5.5,1.7c-1.8,1.8-3.8-0.4-5.6-0.5c-5.8,2-11.1,5.5-15.1,10.2
		c-2-3.2-4.2-6.7-7.9-8.1c-2.5-0.9-4.8-2.2-7.4-2.5c1,2.5,4.6,2.9,4.7,6c-0.5-0.1-1.6-0.4-2.1-0.5
		C462.8,415.6,457.3,412.1,451.7,413.5L451.7,413.5z M495.8,422.6c2.9,0.1,5.8,0,8.7,0c0.1-0.6,0.2-1.9,0.2-2.5
		c2.2-0.1,4.3-0.8,6.2-2c0-1.2-0.1-2.5-0.1-3.7C506.1,417.6,499.4,417.6,495.8,422.6L495.8,422.6z M454.3,419.7
		c0.3,0.5,0.9,1.4,1.2,1.9c2.5,0.1,5.1,0.6,7.6,0.9c-3.4-4.8-9.8-5.1-14.5-7.8C446.6,418.3,451.4,420.2,454.3,419.7L454.3,419.7z
		 M476.5,417.2c0.9,1.2,1.9,2.3,3,3.3c0.7-1.1,1.4-2.1,2.1-3.1C479.9,417.2,478.2,417.2,476.5,417.2L476.5,417.2z M456.8,425.7
		c-1.3,0.4-2.6,0.8-3.9,1.1c0.9,0.3,1.8,0.6,2.8,0.9c2.3-1.9,5-0.6,7.5,0c0.8,1.2,1.8,2,3.3,2.4c-0.5,0.3-1.5,0.9-2,1.2
		c0.1,0.7,0.2,2,0.2,2.7c-1.3-1.1-2.8-1.7-4.5-1.6l-0.1-1.2l2.1-0.4c-1.1-2.4-5-2-6.6-0.3c1.4,0.4,2.8,0.8,4.2,1.2
		c0.3,1.8,2.1,2.1,3.5,2.8c-3.5,0-7,0-10.4,0.4c-1.8-1-3.4-2.2-4.7-3.8c0.8-0.4,1.5-0.8,2.3-1.2c0.2,0.6,0.8,1.7,1,2.3
		c1.9,1.3,3.9,2.4,6.3,1.8c-0.6-1.5-2.2-1.7-3.4-2.5c-1.5-1.5-2.9-3.2-3.5-5.2c-2.1,1-4,2.2-6,3.5c0.2,1.2,0.3,2.3,0.5,3.5
		c4.7,3.7,10.8,3.9,16.5,3.1c1.1-0.6,2.2-1.2,3.3-1.8c0-0.8-0.1-2.3-0.1-3.1c0.8-0.1,2.4-0.4,3.3-0.5c-0.1-0.7-0.2-1.4-0.3-2.1
		C464.3,428.4,460.9,425.5,456.8,425.7L456.8,425.7z M505,431c-0.9,1.3-3.4,1-3,3.1c2.5,0.4,5.1-1.3,5.9-3.7c0.5,0,1.6-0.1,2.1-0.2
		c0,2.5-2.2,3.6-4.2,4.5c-3.2,0-6.4-0.4-9.5,0.1c0.1-0.6,0.3-1.7,0.4-2.3c-0.8,0.6-1.6,1.2-2.5,1.8c2.2,3.3,6.4,2.1,9.7,2.4
		c4.3-0.1,9.2-2.2,10.1-6.8c-1.9-1-3.9-2-5.3-3.7C507.1,427.3,506.4,429.5,505,431L505,431z M490.3,429.6c0.1,0.4,0.2,1.2,0.3,1.7
		c1.1,0.3,2.2,0.6,3.4,0.9c-0.3-0.6-0.9-1.9-1.2-2.6c0.6,0,1.9,0,2.5,0C494.6,426.5,492.3,430.4,490.3,429.6L490.3,429.6z
		 M496.3,431c2.3,1,4.7,0.4,6.9-0.4C501.3,428.9,497.8,428.6,496.3,431z"/>
	<path class="st0" d="M479.8,195.3c2.1-0.3,4.1-0.7,6.2-0.7c14,1.4,27.7,4.6,41,9.3c1.9,0.8,3.9,1.4,6,1.9c2.4,2.5,6.1,3.2,8.9,5.2
		c6.5,3.2,11.9,8.1,17.3,12.9c2.5,3,4.9,6.1,7.4,9.1c9.8-0.6,19.7-0.5,29.5-0.1c13.2,1.5,26.3,4.5,38.7,9.5c5.4,2.7,11,5.3,15.1,9.9
		c4.5,4.2,10.4,8.4,10.8,15.2c14.3,1.4,29.5,0.6,42.2-6.7c5.4-3.6,10.6-8.8,11.3-15.6c-0.1-6.3-3.4-12.1-8.5-15.8
		c-5.1-4.6-12.4-4.1-18.8-4c-3.1,0.5-6.8,0.1-9.5,2c-0.7,2.6-1.2,5.3-1.9,7.9c4.9,0.2,9.8-0.2,14.6-1.1c-0.8-1.4-1.5-3.1-3-3.8
		c-2.1,0.4-3.2,2.8-5.6,2.1c0.1-1.8,1-3.4,2.2-4.8c2.1,0,4.2-0.1,6.4-0.1c3.1,1.8,6.4,3.5,8.8,6.2c-1,2.9-3.6,4.4-6.5,5
		c-1,1.8-2.2,3.6-4.2,4.3c-4.9,1.8-10,3.2-15.2,3.4c-1.7-0.9-3.3-1.9-4.7-3.1c0-3.9,2-8-0.6-11.4c0.8-1.5,1.9-2.8,3-4
		c-1.4-2.3-3.3-4.5-4.2-7.1c1.8-2.4,4.3-4,7-5c-0.7-0.9-1.3-1.8-2-2.7c-0.1-2.8,0.4-5.8,2.9-7.5c5-2.8,11.1-2.9,16.5-1.4
		c1.3,0.2,3,1.4,2.3,2.9c-0.9,2.2-3.2,3.3-5.2,4.3c1.4,0.4,2.9,0.8,4.3,1.2c-0.1,2.3,0.9,4.2,2.4,5.8c-3.7,0.5-7.2-0.5-10.9-0.7
		c-3.6,0.6-7.4,1-10.5,3c0.7,1.6,0.7,5,3.5,3.9c7.6-2.1,15.8-2,23.5-0.9c5.8,0.7,9.8,5.3,13.2,9.6c4.7,5.7,4.8,14.8,0.4,20.6
		c-4.5,6-11,10.1-18.1,12.2c-11.3,4.4-23.6,4.4-35.5,4c0,4.3-2.1,8.2-4.1,12c-4.1,5.1-9.9,9-16.2,10.9c-7.8,2-17,0.2-22.3-6.1
		c-0.8-1.3-2.7-2.7-1.5-4.4c-1.2,0.3-2.5,0.6-3.7,0.9c-0.1-1.2-0.2-2.3-0.3-3.5c0.2,0.6,0.5,1.8,0.6,2.4c0.7,0,2.1,0,2.8,0.1
		c-1.4-4.9,2.3-9.1,6-11.7c8.8-5.5,21.8-4.3,28.4,4c2,2.2,1.9,5.3,2.2,8c2.9-3.8,3.4-8.6,4-13.1c-9.7-2.2-19.5-5.2-27.3-11.6
		c-3.6,8.9-15,15-24.2,11c-3.6-1.2-6.3-4.4-7.1-8.1c0.1-5.2,5.4-8.4,9.9-9.3c3.9-1.2,7.8,0.2,11.5,1.4c0,0.8,0.1,2.3,0.2,3.1l-1-0.9
		c1.7,2.6,1.7,5.7-0.6,7.9c-4.1,2.6-10.3,2.2-13.2-2c-1.8-3,1.6-5.9,4.1-7c-0.8-0.2-1.5-0.4-2.3-0.6c-2.8,1.4-5,3.6-6.4,6.4
		c0.2,3.4,2.5,6.1,5.5,7.5c4.1,1.7,8.7,1,12.6-1c2.9-1.3,4.6-5,3.2-7.9c-0.5-1.4-1.7-2.8-0.9-4.4c2.3,1.8,3.3,4.5,4.2,7.2
		c1-1.7,2.7-3.7,1.5-5.7c-1.9-3.6-4.9-7.1-4.5-11.4c0.7-2.5-1.7-4.3-3.7-5.2c-16.2-4.7-33.3-4.8-50.1-4.7c1,4.2,4.5,7.3,4.7,11.7
		c1.5,8,2.8,16,3.7,24.1c-1.5,5.3,0.3,10.9-1.5,16.1c-1.5,12.6-6.2,25.4-15.9,34c-4.8,5.5-10.5,10.2-16.5,14.4
		c-1.9,1.6-4.3,2.6-5.6,4.8c5.5,0.8,10.8,3.1,16.3,4.1c10.2,1.9,20.4,4.2,30.8,4.6c9.9,1.3,20,1.2,29.9-0.3
		c-0.4-1.8-2.2-3.7-0.4-5.2c5.3-4.5,12.8-4.4,19.4-3.7c1.8-1.1,3.4-2.6,5.7-2c-0.5,0.6-1.5,1.8-2,2.4c2,1.7,5.3,2.6,5.7,5.6
		c0,3.6-0.3,7.8-3.3,10.3c-6,5.3-14.4,5.5-21.9,6.1c-7.6-0.5-15.3-0.7-22.9-1.8c-1.1,5.1-6.6,7.1-11.1,8c-8.4,1.2-16.9-0.3-24.9-2.8
		c0.3,2.6-1.3,4.9-4,5.2c-4.6,0.2-9.5,0.8-13.9-0.9c-8.7-3.5-16.8-8.3-24.3-13.8c-2.6,2.4-4.1,5.7-6.8,8c-1.9,1.8-2.1,4.6-3.4,6.8
		c-0.8,1.2-1.4,2.5-1.6,4c-4.2,7.1-5.9,15.2-8.2,23c-2,5.1-4.5,10-5.5,15.4c-0.1-3.5-1.2-7-0.4-10.4c1.7-11.5,6.3-22.3,10.9-33
		c0.8-1.8,1.9-3.5,3.3-4.9c0.4-1.9,1.8-3.3,3-4.7c2-2.3,3-5.3,5.3-7.3c-3-2.6-5.3-5.8-8.1-8.5c-0.8-1.9,2.2-1.5,3.2-1.1
		c2.3,2.6,3.8,6.1,7.2,7.5c2.1-2.1,4.4-3.9,7-5.3c-1.7-2-4.2-3.1-6-5c1.2-0.1,3.5-0.2,4.7-0.2l-0.1,1c1.5,0.8,2.9,1.7,4.5,2.3
		c-0.5-2.5-4.8-1.4-3.8-4.6c2.3-0.1,4.2,1.6,6.2,2.6c0.9-0.6,1.8-1.2,2.8-1.9c-8-2.6-15.6-6.2-22.8-10.4c1.2,1.2,2.7,2.1,4.1,3
		c2.3,2.5,5.8,3.5,8.4,5.7c-1.5,0.7-2.9,1.5-4.5,2c-1.7-1-3.2-2.3-4.6-3.6c-4.1-3.8-8.8-6.9-12.4-11.2c0.7,5.9,4.9,10.5,7.1,15.9
		c-1.2-0.1-2.3-0.3-3.4-0.6c-3.3-4.3-5.2-9.5-7.2-14.4c-0.6-1.5-0.4-3-0.6-4.6c2.7-0.4,5.3-1.5,8-1.2c3.4,0.9,6.5,2.7,10,3.3
		c10.3,1.6,20.9-0.4,30.6-4c7.3-3.7,15.2-8.3,18.4-16.3c1.7-3.3,1.6-7,2.7-10.5c0.8-0.1,2.2-0.4,3-0.6c-0.1,9.5-5,19.1-13.5,23.8
		c-9.9,7.3-22.3,9.5-34.2,10.3c-5.4-0.6-11-0.7-15.8-3.6c-0.3,0.1-0.6,0.3-0.9,0.4c7.5,5.6,15.8,10.3,24.6,13.4
		c2.1,0.7,4.4,1.9,6.6,1.1c6.1-4.8,13-8.8,18.1-14.8c6.6-6.6,12.8-14.1,15.6-23.2c0.3-2,0.3-4,0.3-6c1.1-0.3,2.2-0.6,3.3-0.9
		c0-2.2-0.2-4.5-0.8-6.7c-0.4,0.7-0.7,1.5-1,2.2c-2.9-0.5-3.1-3.8-3.3-6.2c0.6-3.3,0.9-6.7,1-10.1c0.4-3.7-3.4-6.3-2.5-10
		c-0.7-1.4-1.3-2.8-1.9-4.2c-1.4-0.9-2.5-1.9-3.4-3.2c0.7,0,2.1,0,2.8-0.1c-0.3-2.5-0.6-5.1-0.3-7.7c-1.5-3.6-3.2-7.1-5.3-10.3
		c-0.9,0-2.6,0-3.5,0c0.7-0.7,1.3-1.5,2-2.2c-5.1-6.9-11.7-12.4-18.4-17.5c-4.4-3.2-9-6.8-14.7-6.7c0.4-0.8,0.8-1.5,1.3-2.2
		c-5.8-1.1-10.7-4.6-16.6-5.6c-6.3-1.7-12.7-2.3-19.1-3.4C484.5,197.7,480.7,198.6,479.8,195.3L479.8,195.3z M677.9,206.8
		c-1.5,1.6-1.9,4.2-0.9,6.2c3.1,1.5,6.6,2.5,10.1,2.9c0.4-3-3.1-3-4.8-4.3c0.1-2.3,3.1-2.1,4.7-3c1.4-0.2,0.4-2,0.7-2.9
		C684.3,205.2,680.8,205.2,677.9,206.8L677.9,206.8z M536.1,212.1c0.5,0.2,1.5,0.7,2,0.9c5,5.6,11.7,9.5,16.4,15.4
		c1.4,1.8,2.7,3.8,4.7,4.9c1.3,4.3,5.7,8.1,4.2,12.9c0.4,0.4,1.4,1.1,1.8,1.5c0.2,5.3-0.3,13,5.5,15.5c-0.4-2.9-0.3-6-1.4-8.8
		c-1.2-2.6-0.1-5.7-1.6-8.3c-2.1-4.1-3.6-8.7-6.9-12.1c-4.1-7.5-11-13.1-17.9-17.9C540.7,214.8,538.8,212.8,536.1,212.1L536.1,212.1
		z M674.2,237.3c-1,1.9-1.2,4.2-1.6,6.3c4.8,0.8,10.1-1.3,13.3-4.8C682.1,237.4,678.1,237,674.2,237.3L674.2,237.3z M625.4,242.2
		c-0.2,6.8,4.1,12.9,9.5,16.7c6.8,3.2,13.6,6.7,21.2,7.7c-1.5-5.6-5.4-10.3-10-13.7c-3.3-3.7-7.7-6.1-12.1-8.2
		C631.3,243.5,628.5,241.9,625.4,242.2L625.4,242.2z M606.4,260c2.5,4.8,10.4,4.2,12.1-1c-1.2-1.7-2.5-3.2-4.1-4.4
		c-0.9,0-2.8,0.1-3.7,0.1C609,256.1,605.4,257.2,606.4,260L606.4,260z M623,273.1c-2.8,2-5.3,5.2-4.6,8.8c0.7,2.8,2.5,5.3,4.9,6.8
		c6.2,3.7,14.2,3.5,20.5,0.1c3.3-1.9,6-5.8,5-9.7c-0.3-3.4-3.4-5.5-6-7.2c1.4,2.5,4.1,5.1,2.5,8.1c-2.5,7-12,7.4-17.6,4.1
		c-4-1.5-4.6-7.1-1.7-9.8c1.3-2.3,4.3-2,5.9-3.9C628.8,269.5,625.6,271.3,623,273.1L623,273.1z M630.4,273.5
		c-2.7,0.8-4.4,3.9-3.6,6.6c3.3,5.8,13.2,5.7,16.8,0.1c0-0.8,0-2.5,0-3.3C641.1,272.1,634.9,271.8,630.4,273.5L630.4,273.5z
		 M531.9,340.9c0.1,2.5,2.8,2.6,4.6,3.4c10.3,3.7,20.9,6.7,31.6,8.9c6.1-1.7,12.8-2.1,19.1-0.5c3.4,0.7,5.1,4.9,8.8,4.8
		c3.7,0.2,7.3,1.4,11,1.3c9.7,0.4,20.4,1.2,29-4.3c4.6-2.9,4.8-11.5-1-13.3c-2.5,0.6-4.4,2.6-6.6,3.9c1.1,0.7,2.2,1.3,3.3,2
		c-1.8,3.1-5.6,3.5-8.7,4.4c-3.2,0.5-5.7-2.8-8.8-2c-8.6,1.7-17.4,1-26.1,0.9c-15.7-1.3-31.4-3.5-46.5-7.9
		C538.4,341.4,535.2,339.9,531.9,340.9L531.9,340.9z M620.6,341.4c-1.8,0.6-4,0.7-4.8,2.6c0.3,1.4,1.4,3.5,3.2,2.5
		c3.9-1.4,8.4-2.6,11.2-5.8C626.9,340.5,623.7,340.4,620.6,341.4L620.6,341.4z M527.3,344.6c4.3,4.1,10.1,6.7,15.1,10
		c10.8,5.6,22.1,11.5,34.6,11.2c5.1,0.2,10.6-1.2,13.9-5.3c-0.2-1.2-0.9-1.9-2-2.2c-0.5-1.1-0.3-3-1.7-3.4
		c-4.5-1.2-9.7-2.8-14.2-0.7c5,0.8,10.1,1.5,15,2.5l0.8,1.8c-0.7,0-2.2,0-2.9,0c-3.9,5.5-11.5,3.5-17.2,3c-1-0.8-2-1.6-2.9-2.5
		c-0.4-1.3,0.4-2.6,0.7-3.8c-11.3-2.9-22.7-5.6-33.6-9.9C531.2,344.6,529.2,343.5,527.3,344.6L527.3,344.6z M517.3,352.2
		c5.5,5.9,13.2,9.4,20.2,13.1c4.1,2.4,9,3,13.6,3.1c1.2-0.6,2.5-1.1,3.8-1.6c-0.2-1.5,0.5-3.9-1.5-4.4c-10-4.3-19.4-9.9-28.5-15.9
		C522.4,348.4,520,350.5,517.3,352.2L517.3,352.2z M619.4,348.4c0.9,1.5,4.9,0.9,5.9-0.2C623.4,347.8,621.2,347.6,619.4,348.4
		L619.4,348.4z M569.5,355.5c0,1.1-1,2.9,0.5,3.5c3,2,6.8,1.2,10.3,1.4c1-0.8,2.3-1.4,2.8-2.8C578.5,357.6,574,356.2,569.5,355.5z"
		/>
	<path class="st0" d="M470.8,229.5c2.9-0.1,5.9,0.1,8.8-0.1c0,0.5,0,1.4-0.1,1.9c-4.9-0.2-9.8,0.2-14.6-0.5
		C467,230.6,469.2,231,470.8,229.5z"/>
	<path class="st0" d="M482,230.1c5.3-1.6,10.7,0.3,16.1,0.4c3.2,1,6.7,0.8,9.8,2c1.1,0.3,2.1,0.6,3.2,0.9c-4-0.2-8.1,1-11.9-0.8
		c-5.2,0.6-10.1-2.8-15.2-1.2C483.3,231.1,482.6,230.6,482,230.1z"/>
	<path class="st0" d="M446.2,233.4c-0.1-1.4,3.7-1.4,3.5,0C448.5,234,447.3,234,446.2,233.4z"/>
	<path class="st0" d="M516.8,234.2c4.2,0.5,8.9,1.1,12.2,3.8c-2.2,0.2-4.4,0.5-6.6,0.4C520.5,237.1,518.7,235.5,516.8,234.2z"/>
	<path class="st0" d="M532.8,237.6c6.2-1.6,12.5-2.7,18.8-3.5c-0.1,0.6-0.4,1.7-0.6,2.2c-5.5,0.1-10.8,1.3-16.1,2.3
		C534.4,238.4,533.3,237.9,532.8,237.6z"/>
	<path class="st0" d="M542.3,242.5c0.9-1.1,3.2,0,2.3,1.4C543.8,245.3,541.3,243.9,542.3,242.5z"/>
	<path class="st0" d="M553.3,298.1c1.4,5.3-2.2,10.1-6.1,13.2c-4.1,2.2-8.5,4.2-13.2,4.8c-3,0.6-6,1.7-9,0.9
		c4.7-2.9,10.3-3.4,15.2-5.8c3.9-1.9,7.8-4,10.9-7.1C552.2,302.2,552.5,300,553.3,298.1z"/>
	<path class="st0" d="M407.3,300.3c3,4.4,7.1,7.9,11.4,10.9c2.4,1.3,5.4,1.5,7.6,3.2c0.5,0.1,1.4,0.3,1.9,0.3
		c0.9,0.7,1.8,1.4,2.7,2.1c-7.9-1.3-17.1-2.8-21.8-10.1C407.3,305.1,407.5,302.6,407.3,300.3z"/>
	<path class="st0" d="M493.4,415.4c1.1,0.3,2.2,0.8,3.3,1.4c-2,0.9-3.6,2.6-5.7,3.2C491.5,418.3,492.5,416.8,493.4,415.4z"/>
	<path class="st0" d="M470.5,418.5c4.4,1.1,5.1,6.6,8.7,8.9c3.3-2.3,5.1-6.3,7.7-9.3c0.4,0.4,1.1,1.3,1.4,1.8
		c-0.1,5.8-4.8,10.2-9.2,13.2C475.8,428.5,470.9,424.5,470.5,418.5z"/>
	<path class="st0" d="M798.6,435.2l0.5-0.2c0.8,0.2,2.3,0.5,3,0.7c1.6,2.9-2.2,4-4.2,4.7c-2.2-0.2-4.5,0-6.5-1
		c-1.5-3.5,4.8-4.1,6.9-3.3C798.5,435.8,798.6,435.4,798.6,435.2z"/>
	<path class="st0" d="M820.3,447.4c1.2-0.6,2,1,3,1.5c2.6,0.2,5.4,0,8,0.6c2.4,1,3,3.8,4.5,5.7c2.4,1.8,5.7,2.9,6.9,6
		c1.1,2.9,4.2,4.7,4.6,7.9c0.5,2.3,0.4,4.6,0.5,7c-0.9,2.4-2.2,4.8-4.2,6.5c-3,3.1-7.8,3.2-10.9,6.1c-2,1.8-3.5,4.3-6.2,5
		c-3.8,1.2-7.5,2.4-11.4,3.4c-5.7-0.6-11.9-0.1-16.9-3.2c-3.8-1.6-8.3-1.6-11.5-4.4c-2.6-2.3-6.2-2.4-9.1-4.1
		c-0.3-1.5-0.5-3.1-0.7-4.6c-0.8,0-2.4,0.1-3.2,0.2c-0.8-4.5,5.6-3.1,7.5-1c0,0.9-0.1,2.7-0.1,3.6c2.8,0,5.2-1.8,7.9-2.3
		c7-0.1,14.3-1.1,21.1,1c3.4-0.5,5.1-3.9,6.6-6.6c3.7-0.3,7.2-1.5,10.3-3.4c-2.9-4.5-1.8-9.9-1.4-14.8c1.6-1.7,3.8-3,4.2-5.5
		c-3.2-0.3-6.8,0.7-9.7-1C818.5,450.3,818.7,447.7,820.3,447.4L820.3,447.4z M829.1,458.9c-0.1,3.8-0.3,7.9,2.4,11
		c0.5,3.1-2.3,4.9-4.4,6.5c-5.1,1.2-9.7,4.3-12.8,8.4c-2.6,0.9-5.4,1.4-8.1,0.6c-4.6-1.3-9.4-0.7-14-0.7c-1.3-0.1-2.6-0.1-3.9-0.1
		c0.1,0.9,0.2,1.7,0.5,2.5c3.2,1.9,6.7,3.2,10.4,3.8c5,2.1,10.8,2.5,16.2,2.4c0.4-0.4,1.1-1.2,1.5-1.6c1.6-0.9,2.9-2.2,4.3-3.4
		c1.8,1.3,3.9,2.8,5.9,1c1.4-1,2.2-2.6,3.3-3.8c1.3-0.4,2.6-0.8,3.9-1.1c0.1,0,0.2-0.1,0.2-0.1c1.6-0.5,2.7-1.7,3.9-2.8
		c-0.7-0.4-2.2-1.3-2.9-1.7c0.7-1.6,2.4-1.8,4-2.1c1.3-0.8,3-1.2,3.9-2.6c0.4-2.7,1.3-6.1-1-8.1l-0.4-1.1c-2-3.1-4.2-6.2-7.3-8.4
		C832.6,456.9,830.3,457.1,829.1,458.9z"/>
	<path class="st0" d="M130.9,448.9c0.5-0.5,1.6-1.5,2.1-1.9c0.6,0.5,1.9,1.6,2.5,2.1c-2.1,4.1-7.4,2.3-11.1,3.2
		c1.3,1.8,2.8,3.3,4,5.1c0.8,4.9,1.6,10.4-1.3,14.8c2.8,1.5,5.8,3,9,3.2c2-0.4,2,2,2.9,3.2c1.4,1.5,2.8,3.1,4.8,3.6
		c6.2-1.6,12.8-1.3,19.1-1.1c3.7-0.3,6.6,2.7,10.3,2.4c-0.1-0.9-0.2-2.7-0.2-3.6c2.1-2.2,7.3-3.3,7.8,0.8c-1.3,0.1-2.6,0.1-3.9,0.2
		c1.9,4.6-3.4,6.5-7,6.7c-4.6,5-11.8,4.5-17.3,7.9c-4.4,1.1-9.1,1.3-13.6,1.5c-3.8-1.1-7.7-2.1-11.4-3.4c-2.9-0.9-4.5-3.7-6.8-5.4
		c-3-2.7-7.6-2.6-10.3-5.6c-5.6-4.7-5.4-14.3-0.2-19.3c1.4-3.2,3.6-5.8,6.8-7.3c2.9-1.3,2.8-5.2,5.7-6.5
		C125.4,448.7,128.2,449.1,130.9,448.9L130.9,448.9z M118.6,457.7c-1.5,2.2-3.3,4.3-5.2,6.1v0.6c-2.4,3.6-4.8,9.3-0.7,12.6
		c1.6,0.5,3.3,1.3,5.1,0.8c0.2,0.4,0.6,1.2,0.8,1.5c-0.1,0.3-0.2,1-0.3,1.3c-0.6,0.1-1.9,0.2-2.5,0.3c0.9,0.7,1.2,2.4,2.6,2.3
		c0.2,1.6,1.2,2,2.7,1.1c0.6,0.2,1.9,0.6,2.5,0.8c0.2,0.3,0.5,0.6,0.7,1c1.5,3,5.7,4.9,8.3,1.9c1.2,0.4,2.1,1.4,3,2.3h0.1
		c1.1,1,2.1,1.9,3.2,2.8c2.7,0,5.4,0,8.1-0.2c4.2-1.2,8.5-2.1,12.7-3c0.5-0.3,1.4-0.8,1.8-1c2-0.9,4.6-1.9,4.1-4.6
		c-0.9,0-2.8,0.1-3.8,0.1l-0.2,0.4c-3.5-0.9-7.2-0.4-10.8-0.3c-3.3,0.8-6.7,1.5-10,0.4c-2.1-1.9-4.1-3.8-6.5-5.2l0.7-0.1
		c-0.8-0.4-1.6-0.7-2.5-0.9c-0.9-0.6-2.7-1.7-3.6-2.3l0.4-0.2c-2.4-0.4-4.5-1.6-6.7-2.5c-0.2-1.6-0.9-3.4,0.2-4.9
		c2.4-3.4,2.7-8.1,1-11.8C122.3,457.2,120.4,457.3,118.6,457.7z"/>
	<path class="st0" d="M189.7,458.8c1-1,2.2-1.8,3.3-2.6c3.5,1.3,4.2,5.1,5.4,8.2c-2.2-0.3-5,0.9-6.7-1
		C190.5,462.1,189.7,460.5,189.7,458.8z"/>
	<path class="st0" d="M759.3,457.1c2-1.5,4,0.5,5.6,1.6c-0.6,1.4-1.2,2.9-1.9,4.3c-2.3,1.3-4.8,1.8-7.4,1.4
		C756.8,462,757.1,458.9,759.3,457.1z"/>
</g>
<g id="_x23_214281ff">
	<path class="st1" d="M238.7,39.1c14.2,1,28.5,0.5,42.8,0.2c27.2,0.6,54.3,0.1,81.5,0.2c99.7,0,199.4,0,299.1,0
		c5,0.2,10-0.6,15.1-0.2c12.7,0.6,25.5-0.4,38.2,0.5c-0.4,0.4-1.2,1.2-1.5,1.7c-17.2,1.2-34.5,0.5-51.8,0.7
		c-9-0.9-17.9-0.4-26.9-0.5c-32,0-64,0.2-96-0.1c-24.7,1.3-49.4,0.1-74,0.5c-7.7-0.5-15.3-0.5-23,0.1c-17,0.1-34,0-51-0.4
		c-6-0.2-12,0.8-17.9,0.2c-26.7,0.1-53.4-0.8-80,0.2c-13.7,0.2-27.3,0-41,0c-4.6,0.1-9.1-0.2-13.6-0.9
		C238.5,40.8,238.6,39.7,238.7,39.1z"/>
	<path class="st1" d="M109.2,130.8c2.5-0.2,4.9-0.4,7.4-0.5c-0.4,4.6-0.2,9.1-0.2,13.7c0,59.4,0,118.7,0,178.1
		c-0.2,28.6,0.3,57.2-0.2,85.8c-1.5-0.2-3-0.4-4.4-0.7c-0.1-51.7,0.4-103.5-0.2-155.2c-0.5,10.3-0.2,20.7-0.2,31
		c-0.1,39.7,0,79.3,0,119c-0.1,2,0.3,4.2-1.5,5.6c-0.7-26.9,0-53.8-0.3-80.6c0-46.7,0-93.3,0-140c-0.2-18.4,0.2-36.9-0.3-55.4
		L109.2,130.8z"/>
	<path class="st1" d="M839.7,130.6c1.8-0.2,3.7-0.3,5.4,0.7c0.7,4.2,1.5,8.5,1.3,12.8c0,52.3,0.1,104.6,0,157
		c-0.3,25.6,0.2,51.3,0,77c0.1,1.6,0.4,3.3,0.6,4.9c-1.4,7.6-0.2,15.4-0.9,23.1c-1.1,2.4-4.4,1.4-6.5,2c-0.5-26-0.1-52-0.2-78
		C839.8,263.5,839.4,197.1,839.7,130.6z"/>
	<path class="st1" d="M400.3,356.3C400.8,356.8,400.8,356.8,400.3,356.3z"/>
	<path class="st1" d="M790,436.4c2.6-0.3,5.2-0.8,7.7-1.5c0.2,0.1,0.7,0.3,1,0.4c0,0.2-0.1,0.6-0.2,0.8c-2.1-0.7-8.4-0.1-6.9,3.3
		c2,1.1,4.3,0.8,6.5,1c-2.2,0.7-4.6,0.7-6.8,0.5C790.3,439.5,790.2,437.9,790,436.4z"/>
	<path class="st1" d="M715,496.9c0.9,1.2,1.7,2.5,2.5,3.8c-12.1,0.3-24.3,1-36.4,0.2c-13.3,0.5-26.7,0.3-40,0
		c-4.7,0.2-9.3,0.6-14,0.1c-7.1-0.7-14.1,0.7-21.2,0.2c-15.3-0.1-30.5-0.3-45.8,0c-18,0.1-36-0.7-54-0.1c-13.6-0.8-27.3,0.3-40.9,0
		c-6.7-0.5-13.4-0.4-20.1-0.1c-8.7,0.5-17.3-0.5-26-0.1c-18.3,1-36.7-0.6-55,0.2c-15.6-0.8-31.3,0.3-46.9-0.2
		c-10,0.6-20.1-0.4-30.1,0.3c-16.3,0-32.7-0.4-49-0.4c0.5-0.3,1.6-1,2.2-1.3c7.2-1.5,14.6-0.4,21.9-0.6c6.7,0.2,13.4-0.6,20.1,0
		c7.3,0.6,14.6-0.8,21.9-0.3c31,0.2,62-0.1,93,0.2c13,0.9,26-0.9,39-0.1c10.7-0.2,21.3-0.5,32,0.2c19.3-0.5,38.7-0.4,58-0.2
		c15-0.4,30,0.8,45,0c8,0.4,15.9-0.4,23.9,0.1c12.3-0.1,24.7-0.9,37,0c11.7-0.4,23.3-0.4,35,0c6.4,0.2,12.8-0.7,19.1-0.2
		c9.8,0.9,19.5-0.9,29.3,0.4C715.2,498.8,715,497.5,715,496.9z"/>
</g>
<g id="_x23_ef1a15ff">
	<path class="st2" d="M148.7,47.1c3.3,0.7,6.4,1.8,9.5,3c-0.9,0.1-2.6,0.4-3.4,0.5c2,0.7,4.1,1.4,6.1,2.2l0.3,1.1l0.4,1.7
		c-6.4,0.5-12.7-0.7-19-1.6c-1.5,1-2.9,2-4.5,2.9c0.2-0.5,0.6-1.3,0.8-1.8c-3.3,2-6.6,4.1-9.3,6.8c1.1-0.2,2.2-0.5,3.3-0.7
		c-1.6,1.5-3.7,2.5-5.9,2.5c0.5-0.5,1.4-1.3,1.9-1.8c-2,0.9-3.9,1.8-6,2.5c-1.1,1.6-2.2,3.3-1.6,5.3c0.9,3.4,1.6,6.9,1.3,10.5
		c-2,0-4,0-6,0c-1.5-1.8-3-3.6-4.3-5.5l0.1-0.2c0.1-0.4,0.4-1.1,0.5-1.5c-0.1-2.9-1-5.9,0.3-8.7c1.7-0.7,3.6-0.9,5.2-1.8
		c1.7-1,0.8-3.2,1.1-4.7c1.3-0.3,2.6-0.6,3.9-1c-1-0.8-2.2-1.3-3.5-1.4c1.1-0.1,2.1-0.1,3.2-0.2c0.9-1.3,1.7-2.7,2.6-4l-0.2,0.4
		c-0.2,0.4-0.4,1.2-0.6,1.6c3.7-0.5,7.4-0.4,11-1.1c0.7-1.2,1.1-2.5,1.7-3.7c5.6-0.4,11.1,0.6,16.6,1.3c-1.5-0.3-3-0.6-4.6-0.9
		C149.6,48.5,149,47.6,148.7,47.1z"/>
	<path class="st2" d="M795.7,50.1c3.3-1.3,6.8-2.1,10.3-2.8c-1.5,2-4.2,2-6.4,2.7c5.4-1.2,11-1.8,16.6-1.3c0.1,0.7,0.4,2.1,0.6,2.8
		c4.3,1.8,9.6,0.4,13.1,4.1c-0.2-0.7-0.7-2.2-0.9-3c0.6,0.9,1.2,1.7,1.7,2.6c1,0.2,2,0.3,3.1,0.4c-1.3,0-2.4,0.4-3.4,1.3
		c1.3,0.3,2.6,0.6,3.9,0.9c0.2,1.7-0.4,3.7,0.8,5.1c1.6,0.7,3.4,0.8,5.1,1.1c2.6,4.2-0.3,8.7-0.6,13c-0.4,1.2-1.5,2.2-2.2,3.3
		c-2,0-4,0-6,0.1c-2.2-3.5,0.1-7.1,1.4-10.5c-0.8,0.7-1.6,1.5-2.4,2.3c0.3-1.8,2.3-4.3,0.2-5.8c-3.7-2.9-8.9-3.4-12.3-6.8
		c-3.1-2.3-6.1-6.4-10.4-5.2c-5.4,1.8-11.1,1.2-16.7,1.4c0.6-3.9,5.1-3.6,7.9-5C798.3,50.6,796.6,50.2,795.7,50.1z"/>
	<path class="st2" d="M161,66.4c3.4,0.3,6.8-1.5,10.1-0.2c-5.7,0.8-11.6-0.3-17.3,0.9l-1.2,1.4c5.1,0.4,10.1,0.1,15.2-0.3
		c0.2,0.7,0.6,2.1,0.8,2.7c0.8-0.2,2.5-0.5,3.3-0.6c-0.5,0.2-1.4,0.6-1.9,0.9c-4.6-1.4-8.7,1.8-13.1,2.4c-0.4,0-1.3,0.1-1.8,0.1
		c-5,1.9-10,6.1-10.1,11.8c-1.7,0.4-3.4,0.1-5-0.4c1.4-3.4,2-7.1,2-10.8l0.1-1.2l0.6,0.8l0.7,0.8c3.3-1.8,6.3-3.9,8.8-6.7
		c0.3-0.3,0.9-1,1.2-1.4C156.1,66.2,158.5,66.2,161,66.4z"/>
	<path class="st2" d="M782.8,71c-0.3-1.3-0.5-2.7-0.6-4c0.2,0.8,0.6,2.5,0.7,3.3c1.3-0.1,2.7-0.2,4-0.3c-0.4-0.4-1.3-1.2-1.8-1.7
		c5.6-0.5,11.2,0.4,16.8,0.4c3.6,2.6,7.5,5,10.6,8.3c-0.9,2.7,0.1,5.3,1.9,7.4c-1.9,1.9-4.7,1.2-7.1,1.2h-0.1c0-0.8,0-2.5,0-3.3
		c0.4,0.1,1.3,0.3,1.7,0.4c-1.4-2.1-2.6-4.4-4.5-6.1c-2.5-1.7-5.3-2.9-7.9-4.4c0.6,0.9,1.3,1.8,2,2.7c-3.1-1.6-6.4-2.7-9.6-4
		C786.9,70.8,784.8,70.9,782.8,71z"/>
	<path class="st2" d="M813,75c3.4,1,1.6,5.7,2.5,8.4C813.2,81.1,815.4,77.3,813,75z"/>
	<path class="st2" d="M139.4,81.1c0-1.7,0-3.4,0-5.2c0,1.9,0.1,3.8,0.2,5.6c-0.6,1.3-1.2,2.7-1.7,4.1l-0.6-0.1
		C138,84,138.7,82.6,139.4,81.1z"/>
	<path class="st2" d="M137.6,456.6c0.3-1.2,0.7-2.3,1.1-3.5c2.4,0.1,4.8-0.4,7.1,0.1c0.9,2.1,1.1,4.5,2.3,6.5c2.3,3.3,6.9,4.2,9,7.5
		c0.5,1,1.3,1.3,2.5,1c3.9,0.3,8,0,11.7,1.1c-0.6,0.1-1.9,0.4-2.5,0.5c-0.1,0.6-0.4,1.7-0.6,2.2c-1.5,0.1-2.9,0.1-4.4,0.3l-1.2,1.2
		c-0.4,0.1-1.2,0.2-1.6,0.3c0.5-0.6,1.5-1.7,2-2.3c-2.7-0.2-5.3,0.2-7.9,0.8l0.5,1.4c-2.1,0-4-1.2-6-1.8c-2-2.1-4.5-3.9-7.5-4.4
		c0-0.4,0-1,0-1.4c-0.1-3.5-0.2-7-1.6-10.3c0.3-0.7,1-2.1,1.3-2.8c-1.9-0.1-3.3,0.7-4,2.4c2.1,2.3,1.8,5.3,1.5,8.2v0.3
		c-0.2-1.8,0.3-3.9-0.8-5.5C138.3,458.1,137.8,457.1,137.6,456.6z"/>
	<path class="st2" d="M804.5,461.4c2.3-2.2,2.5-5.6,3.9-8.3c0,0.8,0,1.6,0,2.4c1.8,0,3.6,0,5.5,0c-1.3,3.3-1.6,7.1-3.3,10.3
		c-2.6,1.9-5.4,3.9-8.7,4.3c-0.2,0.5-0.3,0.9-0.4,1.4c0.2,0.2,0.7,0.6,0.9,0.8c-0.4,0.4-1.3,1.1-1.7,1.5c-2.4-2.2-7.7-3.5-9.5,0.1
		l-0.1,0.1l-0.1-0.1c-1.2-1.8-3.6-1.2-5.4-1.6c-0.1-0.7-0.3-2.2-0.4-2.9c-3.2-0.1-3,2.5-2.8,4.9c-0.2-1.6-0.3-3.1-0.4-4.7
		c3.6-0.9,7.4-0.4,11-1.4C797.3,466.8,800.8,463.8,804.5,461.4z"/>
	<path class="st2" d="M118.6,457.7c1.8-0.5,3.7-0.6,5.6-0.4c-0.8,0.1-2.3,0.3-3.1,0.4c-1.8,0.4-3.3,1.8-3.9,3.6
		c1.4-0.7,2.9-1.4,4.3-2.2c3.5,4.2-0.2,9.5-0.1,14.2c0.4,0.2,1.2,0.5,1.6,0.7c2.2,0.9,4.3,2.1,6.7,2.5l-0.4,0.2
		c-0.8,0.5-1.6,0.9-2.3,1.4c1.9,0.5,3.9,0.9,5.9,0.9c0.9,0.1,1.7,0.4,2.5,0.9l-0.7,0.1c-0.5,0.1-1.6,0.2-2.2,0.3
		c1.7,1.4,3.5,2.8,5.2,4.2c1.1,0.2,2.3,0.5,3.4,0.7c3.3,1.1,6.7,0.3,10-0.4c3.6-0.1,7.3-0.6,10.8,0.3c-0.7,1.4-1.5,2.8-2.2,4.1
		l2-0.1c-0.5,0.3-1.4,0.8-1.8,1c-1.4-1.6-3.3-0.8-4.9-0.2c-6.1,2.3-12.9,1.8-19.2,0.5h-0.1c-0.9-0.9-1.8-1.9-3-2.3
		c-2.7-0.8-5.4-3-8.3-1.9c-0.2-0.3-0.5-0.7-0.7-1c-1.3-2-3.3-3.3-5.3-4.6c0.1-0.3,0.2-1,0.3-1.3c1-1.1,0.8-1.7-0.8-1.5
		c-1.8,0.5-3.5-0.3-5.1-0.8c0.1-4.2,0.5-8.4,0.7-12.6v-0.6C115.3,462,117,459.9,118.6,457.7z"/>
	<path class="st2" d="M834.5,457.6c3.1,2.2,5.3,5.2,7.3,8.4c-0.5-0.2-1.5-0.8-2-1c0.6,2.3,1.6,4.6,1.7,7c-0.4,2-1.3,3.8-2,5.7
		c-1.5,0.3-3.2,0.5-4,2.1c-0.5-0.6-0.9-1.2-1.3-1.7c0.2,1.3,0.4,2.6,0.6,3.9c-2.8,1.8-5.6,3.9-9.1,3.8c-0.7,1.2-1.4,2.4-2.1,3.6
		c0.9,0,2.6-0.1,3.4-0.1c-2.1,1.8-4.1,0.3-5.9-1c-1.4,1.2-2.7,2.5-4.3,3.4c0.3-0.4,0.9-1.2,1.2-1.6c-5.8,2.4-12.2,1.3-18.2,0.2
		c-2.8-1.5-7.5-1.6-7.7-5.6c4.7,0,9.5-0.6,14,0.7c2.7,0.9,5.5,0.3,8.1-0.6c3.2-0.3,5.3-3.1,7.8-4.7c2.2-1.4,4.6-2.5,6.9-3.9
		l-1.9,0.2c2.1-1.6,4.9-3.4,4.4-6.5c0.1-2.7-0.8-5.3-1-8c0.3-2.2,2.8-2.1,4.5-2.5L834.5,457.6z"/>
	<path class="st2" d="M842.2,467.1c2.4,2,1.4,5.4,1,8.1C843.3,472.4,843.2,469.6,842.2,467.1z"/>
	<path class="st2" d="M118.3,483.4c1.1-0.1,2,0.3,2.7,1.1C119.4,485.4,118.5,485.1,118.3,483.4z"/>
	<path class="st2" d="M834.3,484.4c0.1,0,0.2-0.1,0.2-0.1C834.5,484.4,834.3,484.4,834.3,484.4z"/>
</g>
<path class="st0" d="M477.4,175.4c0.6,3.5,3.1,2,0.6,3.5c-2.5,1.6-8.2-2.7-2.5,1.6c5.7,4.3,1.8,9.4,5.7,4.3c3.9-5.1,8.8-5.9,3.9-5.1
	s-7,3.7-4.9,0.8c2.2-2.9,4.7,2.6,2.2-2.9s-3.5-3-2.2-4.7C481.2,171.2,476.8,171.9,477.4,175.4z"/>
</svg>
