<?xml version="1.0" encoding="utf-8"?>
<!-- Generator: Adobe Illustrator 26.0.0, SVG Export Plug-In . SVG Version: 6.00 Build 0)  -->
<svg version="1.1" id="Layer_1" xmlns="http://www.w3.org/2000/svg" xmlns:xlink="http://www.w3.org/1999/xlink" x="0px" y="0px"
	 viewBox="0 0 1084 719.4" style="enable-background:new 0 0 1084 719.4;" xml:space="preserve">
<style type="text/css">
	.st0{opacity:0.95;enable-background:new    ;}
</style>
<g id="_x23_000000f3">
	<path class="st0" d="M626.7,0.2h3.2c0,0.8,0.2,1.6,0.2,2.4c7,0.1,13.9-1.5,20.5-0.3c-0.8,1.5-2.2,2.9-3.7,4.3
		c4.7,0.1,9.5,0.3,14,0.1c1.2-0.3,3.3-0.8,4.7-1.1c-0.2,1.3-2.2,2.4-3.8,3.6c0.8-0.1,2.2-0.1,3-0.2c0.2-0.3,0.5-1.2,0.7-1.6
		c5.2-0.3,10.5-1.1,15.5-0.2c6.7,0.1,13.5,0.1,20.2,0.1c0.2-0.3,0.5-0.9,0.7-1.2c-5.7,0.1-11.2-0.4-16.4-1.3c-2.2,0.5-4.2,1-6.3,1.5
		c-0.2-0.5-0.8-1.5-1-2.1c-1.7,0-3.3-0.1-5-0.1c-0.8,0.9-0.3,2.2-2.7,2.7c-3-1-5.5-2.2-8-3.3c13.9-1.7,28.5-1,42.9-1.3
		c18.2-1.1,36.7-0.1,55.1-1.5L758.8,0h17c4.2,0.5,8.5,0.9,13,1c7.5,2.2,16.7,2.8,25.7,3.3c8.2,0.3,16.5,1.5,24.9,0.8
		c13.4-0.9,27-0.1,40.4-0.2c9-0.1,18.2,0,27.4,0c6.3-0.1,13.9,0.3,17.9-2.1c4.2,0.3,8.7,0.5,13,0.8c-0.5-1.2-2-2.1-4.3-2.6
		c1.3,0.1,3,0.1,4.7,0.1c3.3,2.5,10.5,2.1,16.5,2c10,2.3,22.4,2.4,33.6,2.2c5.8,0.1,11.9,0.5,17.7-0.2c2.7-0.1,5.2-0.2,7.7-0.3
		c4.3,0.3,8.8,0.9,13.4,0.8c4.3-0.3,8.5-1.1,12.9-1.4c-1.8,0.9-3.7,1.7-5.3,2.5c3.2,0,6.5-0.1,9.7,0.2c1.3,3.8,0.7,7.6-1.2,11.3
		c-0.3,3-0.2,6.1-2.2,9c-0.5,0.1-1.3,0.3-2,0.3c-3,0-4.8-1.1-7-1.7c0-1,0.2-1.8,0.2-2.8c-4.8-1.2-10.5-1.5-16-2
		c-2.2-1.2-4.2-2.4-6.5-3.6c0.2,0.7-0.7,1.5,0.7,2c3.8,2.2,10.9,2,16.4,3c4.2,0.5,3,2.9,2.2,4.3c-0.8,0.5-1.3,1.2-2.2,1.7
		c-0.5,1.5,1.3,2.8,4,3.9c0.5,0.3,1.3,1,2,1.3c-1.7-1.6-3.7-3.3-3.8-5.1c2,0.3,3.8,0.8,5.8,1.1c-1.7-0.7-5.3-1-4-2.2
		c1.7-0.9,4.7-0.5,6,0.3c2.3,1.2,6.8,1.4,8.2,2.9c6,5.3,8,11.2,9,17c2-0.8,3.8-1.5,5.8-2.2c-0.3,0.8-0.7,1.4-1,2.2
		c-1,0.1-3,0.3-4.2,0.4c2.3,4.5,2.8,9.1-0.3,13.6c-1,8-8.7,16-7,24.1c-0.7-1.8-1-3.8-1.3-5.5c1.3,5.2-1.3,10.3-3,15.5
		c-2.2,5.3-2.2,10.5-3.8,15.9c-2.3,4.6-2.2,9.3-2.2,13.9c0,2.9,3,5.8,4,8.7c0.3,4.9,2.7,9.6,2,14.3c1.7-0.5,3.3-1.2,5-1.7
		c-0.3-0.8-0.7-1.5-1.2-2.2c0.7-2.4,2.2-5.1-0.5-7.4c2-1,2.2-2.2,1.8-3.5c-0.2-0.3-0.7-1-1-1.4c3-6.4,1.2-12.8,2.2-19.3
		c3.8-2.8,1.3-6,0.2-9c0.8-0.2,1.8-0.4,2.8-0.7c-2-3.6,2.2-7.1-0.2-10.5c-1.2-1.4,3.3-2.4,2.3-3.9c-2.2-3.5-0.8-7.2,0-10.8
		c0.7-2.5,0.2-5.1,1-7.6c0.7-1.7,3.2-3.6,1.7-5.4c0.5-1.3,1-2.6,1.8-4c0,2.5-1.3,5.1,0.2,7.6c-0.8,0.3-2.3,1.1-3.2,1.4
		c1,1.8,4.2,3.6,4.3,5.5c-1.3,4.6-1,9.1-1.2,13.8c0.2,1-2.3,1.7-3.3,2.6c0.8,0.3,2.3,0.9,3.2,1.2c-4,2.8,4.7,7.1-3,9.3
		c1.3,0.9,2.7,1.7,4,2.6c-1.2,0-3.7,0-4.7,0.1c-0.7,0.8-1.2,1.5-1.3,2.2c2.2,6,0.7,12.2-0.5,18.1c-0.8,0.2-2.3,0.7-3,0.9
		c3.8,2.8-0.8,6.1,0.7,9.1c-0.5,0.5-1.2,1-1.7,1.6c-0.2,1.1,1.2,2.2,0.5,3.3c-1.7,3.2-0.7,6.3-1.7,9.6c-1.3-0.1-4-0.1-5.3-0.2
		c0.2,0.5,0.3,1.7,0.3,2.3c2.8,1.1,3.2,2.6,3.8,4.2c-1.7,3.6-0.7,7.3-1.3,11c-0.7,0.1-2,0.1-2.7,0.2c-0.2-1-0.3-2-0.5-3
		c-4,1.3-2.7,3.5-3,5.2c0.8,0.2,2.7,0.5,3.3,0.8c0,0.3,0,1,0,1.3c-1.3,0.4-2.7,0.9-3.8,1.3c1.7,2.5,2.8,5.1,2.2,7.7
		c-0.8,3.3,0.7,6.4,2.2,9.7c2.8-0.3,5.5-0.5,8.2-0.8c1.3,0.7,2.7,1.3,3.8,2c1.3-0.1,2.7-0.1,3.8-0.1c0-0.8,0.2-1.7,0.3-2.5
		c-2.8-0.2-5.7-0.4-8.5-0.5c-0.5-2.4,6.8-2,10.7-1.7c7.7,1.7,4.3,5.8,6,8.6c1.3,1.6,0.5,3.4-1,4.9c-3.3,0.3-6.5,1-9.7,1.5
		c-4.2,0.3-7.5-0.8-10.9-1.5c1.7,1.5,5.8,1.8,9.5,2.2c1.3,1.5,2.8,2.9,4.2,4.5c-4.3,0.1-5.8-1.3-7.2-2.6c-1.8,0-3.7,0-5.3,0
		c1.3,3.9,2,7.7,1.3,11.7c1.3,0,3.8,0,5,0c0.2,1.6-2,2.7-5.3,3.5c0.2,0.8,0.3,1.5,0.7,2.4c3.3,0.1,5-1.1,6.8-2.1
		c0.8,0.1,2.7,0.1,3.3,0.1c0.2,0.5,0.2,1.2,0.2,1.7c-4.7,1.4-9,2.9-13.7,4.5c-0.2,1.3-0.3,2.4-0.5,3.8c2.2,0,4.7-0.1,6.8-0.1
		c-0.3,1,0.2,2.2-2.7,2.6c-1.8-0.3-3.7-0.7-5.3-1c-1.3,3.8-2.8,7.4-5,11.1c-3.7,9-1.3,18.1-2.7,27.2c0.5-0.3,1-0.8,1.3-1.1
		c-0.2,4.3-0.2,8.6-0.2,12.9c-0.3,5.3,2.3,10.4,5.2,15.5c2.7,4.9,0.5,9.9,1.8,14.7c1.3,4.5,0.2,8.8,1.8,13.3c1.2,2.8,0,5.9,1.2,8.8
		c3.8,11.5,10.2,22.9,8.8,34.6c-1.3,7.2-3,14.5-3,21.7c0.2,3.8-1.7,7.6-1.7,11.4c-0.3,3,3.7,5.8,5.5,8.6c3.7,4.2,2.8,8.7,5.3,13
		c1.2,2.1,1.8,4.2,2.3,6.4c0.5,0.1,1.7,0.3,2.2,0.3c-1.3,0.1-4,0.1-5.3,0.1c2.2,4.1,5.8,8,7,12.2c0.5-0.3,0.8-0.8,1.3-1.2
		c-1,5.1,0.5,10.2-1,15.2c-5.2,4.5-1.3,9.3,0.8,13.8c2.2,4-2,7.8-1.3,11.8c0.2,4,0.2,7.8,0,11.7c-1.8,6.6-0.8,13.3-4.8,19.8
		c-1.3,2.4-1,5-2,7.5c-0.7,4-4.7,7.6-6.3,11.5c-3.2,3.8-4,7.7-6.8,11.5c-3.8,4.5-2.2,9.3-2,13.9c-0.7,6,0.8,12.2,3.3,18
		c1.3-2.4,2.2-5,2.2-7.5c0.7,0.1,1.8,0.3,2.2,0.3c-0.2,6,1.8,12.2-1.3,18c5.5,2.6,2.3,6.2,3.2,9.2c-0.5,4.9,2.2,9.7,1.7,14.3
		c-0.3,2.2,1.3,4.5,1.8,6.7c-0.3,8.7-0.5,17.4,0.7,26.1c-0.7,1.7-0.8,3.7,1.3,5.3l-0.3,0.5c-1.2,3.2,0.2,6.3-0.7,9.5
		c-4.7-2.2-2.3-5.4-2.7-8c0.2-0.3,0.7-1.1,0.8-1.4c-1.7-2.2-3-4.3-2.2-6.5c-1.2-0.1-3.3-0.2-4.3-0.3c-0.3,0.3-1,1-1.3,1.3
		c0-2.5-1-5.1-2.7-7.5c-1.7-2.1,0.3-4.7-3.7-6.4c-2,2.8-0.3,6-0.5,8.9c-0.3,2.3,3,4.6,1.2,6.7c-1.7,2.7-3.3,6.3,1.7,8.5
		c1,2-0.3,4-2,5.8c2.7,4.9-3.2,10,1,14.9c-1,0.4-2,0.9-2.8,1.3c0.8,1.8,4,3.6,2.8,5.5c-1.2,1.5-2.8,2.8-3.3,4.5
		c-2,0.8-3.8,1.5-6.3,2.1c-3.8,0.1-7.2-0.3-10.9-0.5c3,1.5,8.7,1.3,11,3c-6.5,0.2-12.2-1.3-18.5-1.3c-5.3-0.1-10.5,0.1-15.9-0.1
		c5.5-1.3,11.9,0.4,17.7-0.1c-4.3-0.3-10,0.3-13-1.3c1.3-0.1,4.2-0.2,5.7-0.3c0.2-0.3,0.5-0.8,0.7-1.1c-1.7,0.1-3,0.1-4.7,0.2
		c-3.3,1-7,2.4-11.5,2.4c-8.7-0.3-15.7-2.6-24.4-2.9c-5,0.2-10.2,0.5-15.4,0.4c-4.7-0.2-8.2,1-11.9,1.8c-2.2,0-4.3,0.1-6.5,0.1
		c-1-0.4-2.2-1-3-1.4c-3.2,0.5-6.5,1.1-9,2.1c-4.2-0.1-7.8-1-11.9-1.4c-6.7-0.5-13,0.8-19.7,0.9c-9.7,0.8-19.4-0.3-29-0.2
		c-5.8,0-11.4-1.1-17.2-0.5c-4.7,0.4-9,0-13.5-0.5c-0.7,0.2-1.3,0.5-2,0.8c0,0.5,0,1.5,0,2.1c-2.2,0.1-4.7,0.1-6.7,0.1
		c0.2,0.4,0.7,1.4,1,1.8c1.3-0.2,3-0.3,4.7-0.5c5.2,0.8,10.7,0.4,16.4,0.5c0,0.2,0,0.8,0,1c-4.7,0.1-9.5,0.1-13.9-0.5
		c-5.8,1.3-13-0.1-18.7,1.3c-0.8-0.4-1.3-0.8-2.2-1.2c-8.2-0.7-16.7-0.5-24.9-1.3c-3.8-0.3-7.8,0.8-11.7,0.3
		c-8-0.9-16.4-0.3-24.5-0.4c0,0.5,0.2,1.5,0.2,2.1c-1.3-0.4-3-0.8-4.3-1.3c-3.2-0.2-6.5-0.4-9.7-0.7c-1.7,0.5-3.3,1.1-5,1.7
		c0-0.5,0.2-1.7,0.2-2.3c-2.2,0.5-4.3,1-6.7,1.5c-5.2-1.7-12.4-2.1-18.9-1.6c-7,0.8-14.4,0.8-21.5,1.4c-1.3,1.1-3,2.2-4.3,3.3
		c-0.7-1-0.2-2-0.2-2.9c-24.5,1.5-49.3,2-73.8,1.3c-6.7-0.3-13.5-1-19.9,0c-2.8-0.4-5.7-1.3-8.8-0.8c-4.2,0.5-8.7-0.1-12.7-0.4
		c-0.2,0.3-0.7,1.2-0.8,1.5c-1.8,0.5-3.7,1-5.2,1.5c3.7,0.4,6.8,0,9-1.1c0.7,0,2-0.1,2.7-0.1c0,0.5,0,1.2,0,1.7c-1.8,0-3.7,0-5.3,0
		c-2.2,0.4-3.8,1.3-6.3,1.3c-1.2-2.4,1.3-4.9,1-7.2c-1.8,2.5-1.3,5.1-1.3,7.7c-1,0.2-2.8,0.7-3.8,0.9c-3.3-0.5-7-1.1-10.5-1.5
		c-0.3,0.4-0.8,1.2-1,1.6c-11-0.2-23.4,2.1-33.2-0.9c-1,0.5-2.2,1.1-3,1.7c0-0.5,0.2-1.7,0.2-2.3c-4.8,2-11.5,2.4-18.2,2
		c-0.5,0.7-1.2,1.3-1.7,2c-0.5,0-1.7,0-2.2,0c-0.8-0.3-2.3-1.1-3-1.4c-1.7,0.2-3.2,0.5-4.8,0.8c-1.3,0-3-0.1-4.7-0.1
		c-0.7-0.9-1.3-1.7-2.2-2.6c-3.7,0.3-7.2,0.8-10.7,1c-2.3-0.9-5-1.7-7.8-2.3c-1.3,0.3-3,0.8-4.3,1.2c1-0.9,2-1.7,2.8-2.6
		c-3-0.5-6.3-0.8-9.2,0c1.2,0.4,3.3,1.4,4.7,1.8c-2.8,0.3-5.5,0.5-8.2,0.8c0-0.5,0-1.7,0-2.3c-2,0.3-3.8,0.8-5.7,1.2
		c2.2,0.4,4.7,0.9,7,1.3c-5.2,1.6-11.7,0.2-14-2c-2.2,0.4-4.7,1.2-7.2,1.4c-1.3-0.3-2.3-0.7-3.8-1c-5,0.5-10.5,1.7-15.5,0.5
		c-0.8-0.8-1.3-1.6-2.2-2.4c-2.2,0-4.7,0-6.8,0.1c1.3,0.7,2.8,1.3,4.2,1.8c-4.3,0.1-8.8-0.1-13-0.5c-3.8,0.2-6.5,2-10.5,1.8
		c-3.3,0.1-5.3-1.3-7.7-2c-3,0.5-6,1.1-9,1.6c-1-0.5-2-1.1-3-1.6c-9.9,1.2-20.4,1.7-30.6,1.3c-0.7-0.3-1.8-1-2.2-1.3
		c-6.5,0.2-13,1.3-19.7,0.3c-4.3,1.6-10.7,0.2-15.5,1.3c-0.5,0.3-1.3,1-1.7,1.3c-0.7-0.1-1.2-0.1-1.7-0.1c0.3-0.5,0.7-1.2,1-1.7
		c2.2-0.1,4.7-0.3,6.7-0.4c-3.7-0.1-7-0.1-10.5-0.2c-0.7,0.2-2.2,0.5-3,0.8c-11.7-0.3-22.4,2.4-33.7,2c3.3,0.1,6.8,0.1,10.2,0.4
		c-4.2,0.3-8.7-0.3-13,0.1c-8.5,0.8-17.2,1.3-26,1.1c-4.7-0.1-9-0.8-13.7-0.9c-7.7,0.1-15,0.7-22.7,0.8c-5.3-0.7-8.8-2.6-12.9-4.2
		c-10.5,0.1-20.7-0.1-31.2,0.4c-8.5,0.3-17-0.1-25.5,0.3c-7.7,0.8-15.4,1.7-23.2,1.7c-3.7-0.1-6.5,0.7-8.8,1.7c-3.2,0-6.5,0-9.7,0
		c-0.5-1-1-2-1.3-2.9c-2.2-0.1-4.7-0.1-6.8-0.1c-1-0.4-2.2-0.8-3-1.2c-3.8,0.3-7.8,0.1-11.4-0.5c-0.7-1-1.3-2-2.2-2.8
		c-1.8-0.1-3.8-0.2-5.5-0.3c-1.2-3.2,1.2-6.2,2-9.3c-1.2,0-3.7,0.1-4.7,0.1c-4.3-2.2-2.2-5.3-7.5-7.2c-1.2-1.2-0.2-2.6-0.2-3.8
		c0.8,0,2.2,0,3,0c0-0.5,0-1.5,0-2.1c-2-0.1-4-0.1-6-0.2c2.2-0.1,4-0.1,6.2-0.1c-0.2-2-0.2-4-0.5-6c-0.5-0.7-1.8-1.3-1-2
		c2.3-3.3,1.2-6.5,1.2-9.8c-0.2-3.3,0.5-6.8-4.7-9.6c-3.8-2.8-8.7-5.5-10.7-8.6c2.8-0.3,5.3-0.8,8-1c1,0.7,2,1.3,3,2
		c-0.7-0.7-1.3-1.3-1.8-2c1.3-1.2,3.2-2.3,3-3.7c-0.3-6,3-12,3.2-18c2.2-5.5,0.3-11.2,1.3-16.7c0.5-2.2,3.3-4,3-6.2
		c-0.2-5.1,3.2-9.1,3.2-13.3c0.2-4.2,0.7-8.3,0.2-12.4c-0.3-4.5-5.8-8.5-6.3-13c-0.3-3.2-1.3-6.2-1.2-9.3c0.2-7.2-1.3-14.5,0.8-21.7
		c0.8-4-0.2-7.8,1-11.8c2-5.5,1-11.3,1.3-16.8c0-3.4,1-6.7-1.8-9.9c-4-5-1.8-10.3-5.2-15.2c-3.7-5.5-11-11-10-17
		c0.5-4.2-3.3-8.3-3-12.4c0.2-4.8,1.8-9.6,2.8-14.2c0.5-4.3-1-8.7,1.2-12.9c1.8-3.5,3-7.1,3.8-10.6c0.7-1.5-1.8-2.7-1.7-4.2
		c1.2-1.3,3.2-2.5,4-4c2.2-6.5,3.2-13.1,5.8-19.7c1.8-4.3,0.3-8.7,1.8-13c2.2-9.5-5.7-18.6-6.2-27.9c-1.7-7-3.2-14-1.3-21.1
		c0.5-7.1,0.3-14-0.2-21.1c0.2-3.7,0.7-7.3-0.3-11c-1.3-8.1,0.3-16.4-0.3-24.7c0.3-0.1,1-0.1,1.3-0.1c-0.3-7.5,1.8-15.1,1.3-22.6
		c0.3-7.4-2.2-14.8-3.2-22.2c0-4-2-7.9-1.2-12c1-5.8,3-11.5,2.3-17.4c2-8,4.3-16.1,4.7-24.2c1-5.8,4.3-11.5,2.2-17.2
		c-1.2-3.3-0.2-6.6-1.3-9.9c-1.7-4.2-0.2-8.4-0.5-12.6c0.2-4.2-2-8.3-3-12.4c-0.8-4.9-3.8-9.7-6.7-14.2c-2.8-3.8,1.3-7.5,0.2-11.3
		c-1.2,0-3.2-0.1-4.3-0.1c1.3-0.8,3-1.5,3.8-2.4c-0.2-1-0.8-2-1-2.8c1.7-1.8,3.8-3.7,4.2-5.5c0.5-2.7,3.7-5.2,5.3-7.8
		c1.7-2.3-2.2-4.7,0.7-7c2.3-1.7,2-3.9,1.3-5.8c0.7-0.1,2-0.4,2.7-0.5c-2.2-0.8-4.7-1.4-6.5-2.3c-1-1.6,0.8-3.3,1.3-4.8
		c-3.8-0.8-10.9,0.2-11.9-2.1c-1.7-2,0.3-3.8,3.2-5.3c3.3,0.1,6.8,0.1,10,0.1c-0.3-3-0.5-6.2,0.8-9.1c0.8-1.1-0.7-2.2-1.3-3.2
		c-3-2.6,3-5.1,3.8-7.6c2.5-0.9,4.7-1.5,7.2-2c2.7,0.1,5.2,0.3,8,0.5C42.7,7,41.6,6.3,40.9,6c-2,0-3.8,0.1-5.8,0.1
		c-0.2-0.3-0.5-1-0.5-1.4c7.5-0.1,14.4,1.5,21.7,1.5l0.8-0.5c0.5-0.7,1-1.3,1.3-2c0.7-0.1,1.3-0.2,2-0.3c-0.2,0.3-0.3,1.2-0.5,1.5
		c2.8,1,6.7,0.4,9.9,0.5c0-1,0-1.8,0.2-2.7c0.3,0.1,1.7,0.3,2,0.5c0.2,1,0.3,2,0.7,2.8C86.3,6,100,6.4,113.5,5.5
		c0.8-0.3,1.7-0.8,2.3-1.2c2.3,0.5,4.8,1.2,7.2,1.7c2.3-0.1,4.8-0.1,7.2-0.1c1,0.8,2.2,1.5,3,2.2c4.2-0.1,8-0.8,10.5-2.2
		c2.3,0,4.8,0,7.2,0c0,0.5,0.2,1.5,0.3,2c2.7,0,4.8-0.5,6.8-1.3c7.5,0,14.9-0.4,22.4-0.8c8.7,0.1,16.9-0.9,25.4-1.3
		c0-0.3,0.2-1,0.2-1.4c1.3-0.4,2.3-1,3.7-1.5c2,0.2,4,0.5,6,0.8c2.2,1.3,4.2,2.7,4.2,4.5c1.3,0.1,2.7,0.1,3.8,0.2
		c-1.8-1.3-4.7-2.9,0-3.9c4.2-0.1,7.7,1.1,11.2,2c-1,0.5-2,1-3,1.5c-0.2,0.5-0.2,1-0.3,1.6c0.5-0.1,1.3-0.1,1.8-0.1
		c1.3-0.8,3.3-1.8,6-1.3c1.3,1,2,2.3,2.8,3.5c1.8-0.3,3.8-0.5,5.5-0.9c0.8-0.7,1.7-1.4,2.3-2.1c-3-0.3-5.7-0.5-8.5-1.1
		c-2-1,1.7-2.4,3.7-3c1.8,0.5,3.7,1.2,5.5,1.6c4-0.7,8-1.4,12.5-1.3c0.7-0.5,1.3-1.3,2-1.8c1.3-0.1,3-0.1,4.7-0.1
		c-0.7,0.8-1.2,1.6-1.8,2.4c8.8,0.3,17.5,1.3,26.2,2.2c-3,0.8-5.5,1.7-7.5,2.9c3.8,0.4,6.8-0.3,9.7-1.3c1.2,0.2,3.7,0.8,4.7,1
		c0.8-0.3,2.2-1,3-1.4c-1.3-1.7-3.2-3.4-1.7-5.1c2.2,0,4.3,0,6.7-0.1c0,0.4,0.2,1.3,0.3,1.7c3-0.5,6-1,8.8-1.6
		c1.8,2.5,7.8,3.8,13.9,3.8c4.8,0.8,10.5,0.2,15.5,1c1-0.5,1.8-1.1,2.8-1.7c2.2,0.2,4.2,0.4,6.2,0.7c0.8-0.2,2.3-0.8,3.2-1
		c3.3,1.6,7.2,3.3,12,4.2c1-0.5,2-1.3,3-1.8c2,0.2,3.8,0.3,5.8,0.5c-1-1-2-2.1-2.8-3.2c2.2,0.7,4.3,1.4,6.7,2.2c1-0.8,2-1.5,2.8-2.2
		c4.7-0.7,9.5-0.9,14.4-0.9c0.2-0.8,0.3-1.5,0.5-2.3c3,0.7,3.7,2,4.7,3.2c3-0.3,5.7-0.5,8.7-0.9c-2.7-0.8-5.2-1.5-7.7-2.4
		c7.7-0.2,15,0.1,22.7,0.7c0,0.8,0,1.5,0,2.4c2.8,0,5.7,0,8.5,0c-1.8-1-3.8-2-5.5-2.8c3.8,0,7.7-0.1,11.4-0.2
		c-0.8,1-1.8,2.1-2.7,3.2c5,0,10,0,15,0c-0.2-1.5-3-2-6.2-2.2c0.3,0,1.2-0.1,1.7-0.1c3,0.3,6.3,0.4,9.7,0.5c0,0.3,0,1,0.2,1.4
		c3-0.2,6.2-0.5,9.2-1c0.5,0.1,1.7,0.3,2.2,0.4c4.7-0.3,9.5,0.2,14,0.4c0.7-0.2,2-0.8,2.7-1c4.3,0.8,9.2,1,14,0.9
		c0.7-0.2,2-0.7,2.7-0.9c2.2,0.1,4.3,0.1,6.7,0.2c0.7-0.2,1.8-0.8,2.2-1c3,1.5,9.5,1.2,11,3.4c0.7-0.1,1.2-0.3,1.8-0.5
		c-1.3-1-2.7-1.8-3.7-2.8c5.3,0.1,10.5,0.9,15.4,1.7c0.5-0.2,1.3-0.7,2-0.9c1-0.1,3-0.1,3.8-0.2c2.2-0.7,4-1.4,6.2-2.1
		c-1,1-1.8,1.8-2.8,2.8c5.2,1.3,11-0.2,16.5,0c11.5,0.1,23.2,0.1,34.7,0c3-0.1,5.5,0.3,8.2,0.8c0.7-0.7,1.3-1.3,2.2-2
		c0.7,0,2.2-0.1,2.8-0.1c0,0.3,0,1.1,0,1.5c2.3-0.1,4.8-0.1,7.2-0.1c0-0.4,0-1.4,0-1.8c1.3,0.1,2.8,0.3,4,0.4
		C625.7,1.5,626.2,0.9,626.7,0.2 M206.4,4c0.7,1.6,3.7,1.8,7,1.6c-0.8-1.2-1.7-2.4-2.2-3.7C209.5,2.6,208,3.3,206.4,4 M415.4,3
		c-0.8,2,5.3,1,8,1.3c0.2-0.3,0.5-1,0.7-1.4C421.4,2.8,418.4,2.9,415.4,3 M627.4,5.5c0,0.3-0.2,0.9-0.3,1.2c5.7,0,11.4,0,17,0.1
		c-0.2-1,0-2.1-0.5-3C638.1,4.1,632.4,4.6,627.4,5.5 M113.7,5.3c0,0.3,0.2,1.1,0.2,1.5c2.3,1,10.5,1.1,7.7-0.9
		C118.9,6.2,115.9,6.4,113.7,5.3 M87.8,7.2C88,7.5,88.3,8,88.5,8.4C96.3,9,104,8.3,111.7,8c-0.2-0.3-0.3-1.1-0.5-1.5
		C103.3,6.5,95.8,7.8,87.8,7.2 M314,8.4c-0.5,0.4-0.8,1-1.2,1.4c0.3,0,1,0.1,1.3,0.1C314.2,9.6,314.2,8.8,314,8.4
		c1.8,0,5-0.1,6.7-0.1c0.5,0.3,1.3,1,1.8,1.4c2.8,0,5.8,0.5,8.5-0.1c2-0.7,4.3-0.5,6.8-0.5c-0.8-0.4-1.3-0.8-2.2-1.3
		c-0.8,0.2-2.2,0.5-3,0.8c-3.8-0.8-8-0.9-12-0.5c0-0.1-0.2-0.5-0.2-0.7C318.9,8.3,316,7.9,314,8.4 M1044.8,192.6
		c0.2,1.3,0.2,2.5,0.3,3.9c2.2,0.1,4.2,0.1,6.5,0.2c-0.8-1.3-1.8-2.5-2.7-3.8C1047.3,192.8,1046,192.7,1044.8,192.6 M1055.6,193.6
		c-0.2,0.3-0.3,0.8-0.5,1.1c1,0,2.8,0,3.8,0c1.2-0.7,2.2-1.3,3.3-2.1C1060,192.9,1057.8,193.3,1055.6,193.6 M1060.1,195.6
		c-0.7,0.9-1.3,1.7-2,2.7c-1.2,0-3.3,0-4.7,0c0,0.3,0,1.1,0,1.5c3.8-0.3,8-0.5,11-1.6C1065.8,196.8,1063.3,195.8,1060.1,195.6
		 M1043.1,358.4c0.2,0.8,0.2,1.5,0.3,2.3c-0.8,0.3-1.7,0.8-2.2,1.2c0.8,0.1,2.3,0.2,3.2,0.3c2.8,2.4-5.2,3.3-6.5,5.1
		c1.7-0.4,3.2-0.8,4.8-1.3c6,1.3-5.5,3.4,1.2,4.6c-1.2,0.2-3.3,0.8-4.3,1c1.3,0.9,2.7,1.7,3.8,2.6c-2.8,1.2-1.3,2.8-1.8,4.5
		c-1.2,0.5-1.3,1.3-1.7,2c1.3,0.5,2.7,1.2,3.8,1.7c-1.3,0.5-2.7,1-3.8,1.5c3,2.2-0.3,4.5,0.2,6.7c-1,0.1-3,0.2-3.8,0.3
		c1.3,0.3,2.8,0.5,4.2,1c-0.2,0.5-0.2,1.3-0.2,1.8c-0.5,0.2-1.3,0.5-2,0.8c1.2,0.3,2.3,0.8,3.8,1.2c-0.2,1.3-0.2,2.6-0.5,4
		c-1,0.8-1.3,1.7-1.8,2.6c3.8-0.2,5.8,1,5.3,2.5c-0.7,0.2-1.8,0.7-2.3,0.9c1.2,0.1,3.2,0.3,4.3,0.5c-1,0.8-1.8,1.7-2.8,2.5
		c0.8-0.1,2.3-0.2,3.2-0.3c1.8-1.5,2.8-3.3,1.3-4.8c-1.7-1.6-1-3.4-1.2-5.1c-2.2-0.8-3.8-1.8-3.7-3.2c1.3,0,2.3,0.1,3.8,0.1
		c0-1.3-1.2-2.8,1.2-4c0.3-1.7,0.3-3.5,0.2-5.1c-1.8-0.8-3-1.5,0.5-1.7c-0.7-0.1-2.2-0.4-2.8-0.5c0.8-0.7,1.3-1.3,2.2-2
		c-3-1.1-0.7-2.6,0.2-3.9c-1.2-0.5-2.2-1-3.7-1.5c0.2-2,0.2-4,0.2-6c1.7-0.3,3-0.5,4.7-0.8c0-0.3,0.2-0.9,0.2-1.2
		c-2.2,0-4.7,0.1-7,0.1c0.8-0.9,1.7-1.7,2.3-2.6c1.2,0.1,3.3,0.1,4.3,0.1c-0.2-0.5-0.2-1.3-0.3-1.8c-1.2,0-3.7,0.1-4.8,0.1
		c0-1,0.3-2.1,0.7-3.2c1.3-0.1,3.8-0.2,5.2-0.3c-1.3-0.3-3-0.8-4.3-1.2c0.2-0.4,0.5-1.4,0.8-1.8
		C1046.5,358.4,1044.8,358.4,1043.1,358.4 M994.7,422.6c0,1.8-3.7,4.1,0.8,5.7c0.5-0.3,1.7-1,2.2-1.3c-1.3-2.3-1.3-4.7-1.2-7
		C993.4,420.3,995,421.7,994.7,422.6 M595.9,687.4c-0.2,0.3-0.7,0.8-1,1c2.7-0.1,5-0.1,7.7-0.2c4.3-1.5,8,0.4,9.7,2
		c0.8,0,2.7,0.1,3.7,0.1c-0.7-0.2-2-0.7-2.7-0.9c0.2-0.4,0.5-1.3,0.7-1.7c-1,0-3,0.1-4,0.1c-2.3-0.4-4.8-1.1-7.7-1.2
		C599.9,686.8,598,687.1,595.9,687.4 M497.5,696.5c3.3,0.1,8.8-0.1,7-2.2C501.5,694.6,497.2,694.7,497.5,696.5z"/>
	<path class="st0" d="M271.1,1.7c5.7,0.1,11.2,0.1,16.9-0.1c-0.2,0.3-0.7,1-0.8,1.4c-3.8,0.1-7.8,0.3-11-0.5
		C274.1,2.4,272.1,2.4,271.1,1.7z"/>
	<path class="st0" d="M367.8,3.6c0.8,0,2.7-0.1,3.3-0.1c0,0.3-0.2,1.1-0.2,1.5c-0.8,0-2.7,0-3.3,0C367.6,4.7,367.8,4,367.8,3.6z"/>
	<path class="st0" d="M135.7,4.3c1.7-0.4,3-0.4,4,0.2c0,0.8-2.8,1.4-4.2,0.9C135.7,5.1,135.7,4.7,135.7,4.3z"/>
	<path class="st0" d="M1045.1,19.8c0.5,0.2,1.3,0.5,2,0.8c1,2.5,3,5,7.2,7c-1.3,0.1-3,0.2-4.2,0.3c-0.5,0.3-1.7,1-2.2,1.4
		c-2.2-0.5-5.3-1.1-4.7-2.4C1044,24.6,1044.8,22.2,1045.1,19.8z"/>
	<path class="st0" d="M1058.5,29c0.3,0,1,0,1.3,0c0.3,5-0.3,10.1,0,15c-0.7,0-2.2,0-3,0.1c0.2-2.8-0.3-5.8,1.8-8.5
		c-0.3-0.3-1.2-0.8-1.3-1.1C1060,32.8,1058.1,30.8,1058.5,29z"/>
	<path class="st0" d="M14.4,108.8c1,0.5,2.3,1,2.2,1.8c0.3,5.2,2.7,10.4-0.2,15.5c-1-1.4-2.2-2.8-2.2-4.3
		C14.4,117.5,13.5,113.1,14.4,108.8z"/>
	<path class="st0" d="M1063.8,205.2c2.3-0.3,3.3,0,2.7,1C1063.8,206.5,1063,206.1,1063.8,205.2z"/>
	<path class="st0" d="M1067.7,209.5c0.8,0,2.2,0.1,3,0.1c-2,0.9-3.3,1.8-3.8,2.9c-1.8,0.3-3.7,0.5-5.2,0.8c-0.7-0.9-1.3-1.8-2.2-2.7
		c2.7,0.3,5.3,0.5,8,0.8C1067.5,211,1067.5,210,1067.7,209.5z"/>
	<path class="st0" d="M1059,228c2-0.8,3.3-2,6.3-2c4.2,0,5.7,2.1,5.7,3.5C1067.3,228.8,1062.7,228.8,1059,228z"/>
	<path class="st0" d="M1059,659c2-1.8,6.7,1,2,1.3C1060.5,659.9,1059.5,659.4,1059,659z"/>
	<path class="st0" d="M1058.6,661.8c1.3-0.1,3-0.2,4.3-0.3c0,1.6-1.2,3.3-2.8,4.8C1059.6,664.8,1059,663.3,1058.6,661.8z"/>
	<path class="st0" d="M956.5,687.2c8.8,0.5,18.5-2.3,26.2,0.3c-8.5,1-17.4,0.7-26.2,1C956.6,688.2,956.5,687.5,956.5,687.2z"/>
	<path class="st0" d="M918.6,689.5c3-0.1,3.7,1.2,3.3,2.2c-2.2-0.4-4.3-0.8-6.8-1c0.8,0.9,1.8,1.8,2.8,2.7c-0.5,0-1.3,0.1-2,0.1
		c0-1-1.2-1.5-3.3-1.5c0-0.5,0.2-1,0.2-1.5C915.1,690.5,916.9,690.1,918.6,689.5z"/>
	<path class="st0" d="M888.5,692.2c-0.3-1.3,0.2-2.3,4-2.1c-0.2,1.7,1.3,3.5,3.8,4.9c-0.7,0.3-1.8,1.2-2.3,1.5c-2.7,0-5,0-7.7,0
		c0-0.5,0.2-1.5,0.3-2c-0.3,0-1-0.1-1.3-0.1c0,0.5,0.2,1.7,0.3,2.2l-3.8-0.1c0-1.5,0.2-3,0.3-4.6
		C884.5,692.1,886.4,692.2,888.5,692.2z"/>
	<path class="st0" d="M865.3,692.3c3.8-1,8.2-0.7,12.4-0.2c0,0.9,0,1.7,0,2.7c-2.8-0.3-4-2.2-7.5-1.6c-0.2,0.5-0.3,1.6-0.5,2.2
		c-0.3-0.7-0.7-1.3-1-2C867.7,693.1,866.5,692.6,865.3,692.3z"/>
	<path class="st0" d="M688.3,698.5c-0.2-2.2-1.8-4.9,3.8-6.3c4,1.6,0.8,4,0.3,6C691.4,698.4,689.2,698.5,688.3,698.5z"/>
	<path class="st0" d="M921.7,693.9c1.3,0,2.8,0,4.2,0c0.7,0.7,1.3,1.3,2.2,2c0.8,0,2.7,0.1,3.3,0.1c1,0.3,2,0.8,3,1.2
		c-1-0.1-3-0.3-4-0.4c0,1,0.2,2,0.2,2.9c-1.7-0.2-3.7-0.4-4.7-1.1c3-0.3,4.2-1.2,3.8-2.4c-2.7,0.1-5,0.4-6.8,1.3
		c-1.7-0.3-3.2-0.8-4.7-1.1C919.4,695.5,920.6,694.7,921.7,693.9z"/>
	<path class="st0" d="M882.7,699.6c2-2.1,8.2-2.4,13-2.6c-0.7,0.8-1.3,1.6-2,2.5C890.2,699.6,886.4,699.7,882.7,699.6z"/>
</g>
</svg>
