<?xml version="1.0" encoding="utf-8"?>
<!-- Generator: Adobe Illustrator 26.0.0, SVG Export Plug-In . SVG Version: 6.00 Build 0)  -->
<svg version="1.1" id="Layer_1" xmlns="http://www.w3.org/2000/svg" xmlns:xlink="http://www.w3.org/1999/xlink" x="0px" y="0px"
	 viewBox="0 0 537 705" style="enable-background:new 0 0 537 705;" xml:space="preserve">
<style type="text/css">
	.st0{opacity:0.95;fill:#303030;enable-background:new    ;}
</style>
<g id="_x23_000000f3">
	<path class="st0" d="M313.5,0.2h1.6c0,0.8,0.1,1.6,0.1,2.4c3.5,0.1,7-1.5,10.3-0.3c-0.4,1.5-1.1,2.9-1.9,4.3c2.4,0.1,4.8,0.3,7,0.1
		c0.6-0.3,1.7-0.8,2.4-1.1c-0.1,1.3-1.1,2.4-1.9,3.6c0.4-0.1,1.1-0.1,1.5-0.2c0.1-0.3,0.3-1.2,0.4-1.6c2.6-0.3,5.3-1.1,7.8-0.2
		c3.4,0.1,6.8,0.1,10.2,0.1c0.1-0.3,0.3-0.9,0.4-1.2c-2.9,0.1-5.6-0.4-8.3-1.3c-1.1,0.5-2.1,1-3.2,1.5c-0.1-0.5-0.4-1.5-0.5-2.1
		c-0.9,0-1.7-0.1-2.5-0.1c-0.4,0.9-0.2,2.2-1.4,2.7c-1.5-1-2.8-2.2-4-3.3c7-1.7,14.3-1,21.6-1.3c9.2-1.1,18.5-0.1,27.7-1.5L379.9,0
		h8.6c2.1,0.5,4.3,0.9,6.5,1c3.8,2.2,8.4,2.8,12.9,3.3c4.1,0.3,8.3,1.5,12.5,0.8c6.7-0.9,13.6-0.1,20.3-0.2c4.5-0.1,9.2,0,13.8,0
		c3.2-0.1,7,0.3,9-2.1c2.1,0.3,4.4,0.5,6.5,0.8c-0.3-1.2-1-2.1-2.2-2.6c0.7,0.1,1.5,0.1,2.4,0.1c1.7,2.5,5.3,2.1,8.3,2
		c5,2.3,11.3,2.4,16.9,2.2c2.9,0.1,6,0.5,8.9-0.2c1.4-0.1,2.6-0.2,3.9-0.3c2.2,0.3,4.4,0.9,6.7,0.8c2.2-0.3,4.3-1.1,6.5-1.4
		c-0.9,0.9-1.9,1.7-2.7,2.5c1.6,0,3.3-0.1,4.9,0.2c0.7,3.8,0.4,7.6-0.6,11.4c-0.2,3-0.1,6.1-1.1,9.1c-0.3,0.1-0.7,0.3-1,0.3
		c-1.5,0-2.4-1.1-3.5-1.7c0-1,0.1-1.8,0.1-2.8c-2.4-1.2-5.3-1.5-8-2c-1.1-1.2-2.1-2.4-3.3-3.6c0.1,0.7-0.4,1.5,0.4,2
		c1.9,2.2,5.5,2,8.3,3c2.1,0.5,1.5,2.9,1.1,4.3c-0.4,0.5-0.7,1.2-1.1,1.7c-0.3,1.5,0.7,2.8,2,3.9c0.3,0.3,0.7,1,1,1.3
		c-0.9-1.6-1.9-3.3-1.9-5.1c1,0.3,1.9,0.8,2.9,1.1c-0.9-0.7-2.7-1-2-2.2c0.9-0.9,2.4-0.5,3,0.3c1.2,1.2,3.4,1.4,4.1,2.9
		c3,5.3,4,11.3,4.5,17.1c1-0.8,1.9-1.5,2.9-2.2c-0.2,0.8-0.4,1.4-0.5,2.2c-0.5,0.1-1.5,0.3-2.1,0.4c1.2,4.5,1.4,9.2-0.2,13.7
		c-0.5,8-4.4,16.1-3.5,24.2c-0.4-1.8-0.5-3.8-0.7-5.5c0.7,5.2-0.7,10.4-1.5,15.6c-1.1,5.3-1.1,10.6-1.9,16c-1.2,4.6-1.1,9.4-1.1,14
		c0,2.9,1.5,5.8,2,8.7c0.2,4.9,1.4,9.7,1,14.4c0.9-0.5,1.7-1.2,2.5-1.7c-0.2-0.8-0.4-1.5-0.6-2.2c0.4-2.4,1.1-5.1-0.3-7.4
		c1-1,1.1-2.2,0.9-3.5c-0.1-0.3-0.4-1-0.5-1.4c1.5-6.4,0.6-12.9,1.1-19.4c1.9-2.8,0.7-6,0.1-9.1c0.4-0.2,0.9-0.4,1.4-0.7
		c-1-3.6,1.1-7.1-0.1-10.6c-0.6-1.4,1.7-2.4,1.2-3.9c-1.1-3.5-0.4-7.2,0-10.9c0.4-2.5,0.1-5.1,0.5-7.6c0.4-1.7,1.6-3.6,0.9-5.4
		c0.3-1.3,0.5-2.6,0.9-4c0,2.5-0.7,5.1,0.1,7.6c-0.4,0.3-1.2,1.1-1.6,1.4c0.5,1.8,2.1,3.6,2.2,5.5c-0.7,4.6-0.5,9.2-0.6,13.9
		c0.1,1-1.2,1.7-1.7,2.6c0.4,0.3,1.2,0.9,1.6,1.2c-2,2.8,2.4,7.1-1.5,9.4c0.7,0.9,1.4,1.7,2,2.6c-0.6,0-1.9,0-2.4,0.1
		c-0.4,0.8-0.6,1.5-0.7,2.2c1.1,6,0.4,12.3-0.3,18.2c-0.4,0.2-1.2,0.7-1.5,0.9c1.9,2.8-0.4,6.1,0.4,9.2c-0.3,0.5-0.6,1-0.9,1.6
		c-0.1,1.1,0.6,2.2,0.3,3.3c-0.9,3.2-0.4,6.3-0.9,9.7c-0.7-0.1-2-0.1-2.7-0.2c0.1,0.5,0.2,1.7,0.2,2.3c1.4,1.1,1.6,2.6,1.9,4.2
		c-0.9,3.6-0.4,7.3-0.7,11.1c-0.4,0.1-1,0.1-1.4,0.2c-0.1-1-0.2-2-0.3-3c-2,1.3-1.4,3.5-1.5,5.2c0.4,0.2,1.4,0.5,1.7,0.8
		c0,0.3,0,1,0,1.3c-0.7,0.4-1.4,0.9-1.9,1.3c0.9,2.5,1.4,5.1,1.1,7.7c-0.4,3.3,0.4,6.4,1.1,9.8c1.4-0.3,2.8-0.5,4.1-0.8
		c0.7,0.7,1.4,1.3,1.9,2c0.7-0.1,1.4-0.1,1.9-0.1c0-0.8,0.1-1.7,0.2-2.5c-1.4-0.2-2.9-0.4-4.3-0.5c-0.3-2.4,3.4-2,5.4-1.7
		c3.9,1.7,2.2,5.8,3,8.6c0.7,1.6,0.3,3.4-0.5,4.9c-1.7,0.3-3.3,1-4.9,1.5c-2.1,0.3-3.8-0.8-5.5-1.5c0.9,1.5,2.9,1.8,4.8,2.2
		c0.7,1.5,1.4,2.9,2.1,4.5c-2.2,0.1-2.9-1.3-3.6-2.6c-0.9,0-1.9,0-2.7,0c0.7,3.9,1,7.7,0.7,11.8c0.7,0,1.9,0,2.5,0
		c0.1,1.6-1,2.7-2.7,3.5c0.1,0.8,0.2,1.5,0.4,2.4c1.7,0.1,2.5-1.1,3.4-2.1c0.4,0.1,1.4,0.1,1.7,0.1c0.1,0.5,0.1,1.2,0.1,1.7
		c-2.4,1.4-4.5,2.9-6.9,4.5c-0.1,1.3-0.2,2.4-0.3,3.8c1.1,0,2.4-0.1,3.4-0.1c-0.2,1,0.1,2.2-1.4,2.6c-0.9-0.3-1.9-0.7-2.7-1
		c-0.7,3.8-1.4,7.4-2.5,11.2c-1.9,9.1-0.7,18.2-1.4,27.4c0.3-0.3,0.5-0.8,0.7-1.1c-0.1,4.3-0.1,8.6-0.1,13
		c-0.2,5.3,1.2,10.5,2.6,15.6c1.4,4.9,0.3,10,0.9,14.8c0.7,4.5,0.1,8.9,0.9,13.4c0.6,2.8,0,5.9,0.6,8.9c1.9,11.6,5.1,23,4.4,34.8
		c-0.7,7.2-1.5,14.6-1.5,21.8c0.1,3.8-0.9,7.6-0.9,11.5c-0.2,3,1.9,5.8,2.8,8.6c1.9,4.2,1.4,8.7,2.7,13.1c0.6,2.1,0.9,4.2,1.2,6.4
		c0.3,0.1,0.9,0.3,1.1,0.3c-0.7,0.1-2,0.1-2.7,0.1c1.1,4.1,2.9,8,3.5,12.3c0.3-0.3,0.4-0.8,0.7-1.2c-0.5,5.1,0.3,10.3-0.5,15.3
		c-2.6,4.5-0.7,9.4,0.4,13.9c1.1,4-1,7.8-0.7,11.9c0.1,4,0.1,7.8,0,11.8c-0.9,6.6-0.4,13.4-2.4,19.9c-0.7,2.4-0.5,5-1,7.5
		c-0.4,4-2.4,7.6-3.2,11.6c-1.6,3.8-2,7.7-3.4,11.6c-1.9,4.5-1.1,9.4-1,14c-0.4,6,0.4,12.3,1.7,18.1c0.7-2.4,1.1-5,1.1-7.5
		c0.4,0.1,0.9,0.3,1.1,0.3c-0.1,6,0.9,12.3-0.7,18.1c2.8,2.6,1.2,6.2,1.6,9.3c-0.3,4.9,1.1,9.8,0.9,14.4c-0.2,2.2,0.7,4.5,0.9,6.7
		c-0.2,8.7-0.3,17.5,0.4,26.2c-0.4,1.7-0.4,3.7,0.7,5.3l-0.2,0.5c-0.6,3.2,0.1,6.3-0.4,9.6c-2.4-2.2-1.2-5.4-1.4-8
		c0.1-0.3,0.4-1.1,0.4-1.4c-0.9-2.2-1.5-4.3-1.1-6.5c-0.6-0.1-1.7-0.2-2.2-0.3c-0.2,0.3-0.5,1-0.7,1.3c0-2.5-0.5-5.1-1.4-7.5
		c-0.9-2.1,0.2-4.7-1.9-6.4c-1,2.8-0.2,6-0.3,9c-0.2,2.3,1.5,4.6,0.6,6.7c-0.9,2.7-1.7,6.3,0.9,8.5c0.5,2-0.2,4-1,5.8
		c1.4,4.9-1.6,10.1,0.5,15c-0.5,0.4-1,0.9-1.4,1.3c0.4,1.8,2,3.6,1.4,5.5c-0.6,1.5-1.4,2.8-1.7,4.5c-1,0.8-1.9,1.5-3.2,2.1
		c-1.9,0.1-3.6-0.3-5.5-0.5c1.5,1.5,4.4,1.3,5.5,3c-3.3,0.2-6.1-1.3-9.3-1.3c-2.7-0.1-5.3,0.1-8-0.1c2.8-1.3,6,0.4,8.9-0.1
		c-2.2-0.3-5,0.3-6.5-1.3c0.7-0.1,2.1-0.2,2.9-0.3c0.1-0.3,0.3-0.8,0.4-1.1c-0.9,0.1-1.5,0.1-2.4,0.2c-1.7,1-3.5,2.4-5.8,2.4
		c-4.4-0.3-7.9-2.6-12.3-2.9c-2.5,0.2-5.1,0.5-7.7,0.4c-2.4-0.2-4.1,1-6,1.8c-1.1,0-2.2,0.1-3.3,0.1c-0.5-0.4-1.1-1-1.5-1.4
		c-1.6,0.5-3.3,1.1-4.5,2.1c-2.1-0.1-3.9-1-6-1.4c-3.4-0.5-6.5,0.8-9.9,0.9c-4.9,0.8-9.8-0.3-14.6-0.2c-2.9,0-5.7-1.1-8.7-0.5
		c-2.4,0.4-4.5,0-6.8-0.5c-0.4,0.2-0.7,0.5-1,0.8c0,0.5,0,1.5,0,2.1c-1.1,0.1-2.4,0.1-3.4,0.1c0.1,0.4,0.4,1.4,0.5,1.8
		c0.7-0.2,1.5-0.3,2.4-0.5c2.6,0.8,5.4,0.4,8.3,0.5c0,0.2,0,0.8,0,1c-2.4,0.1-4.8,0.1-7-0.5c-2.9,1.3-6.5-0.1-9.4,1.3
		c-0.4-0.4-0.7-0.8-1.1-1.2c-4.1-0.7-8.4-0.5-12.5-1.3c-1.9-0.3-3.9,0.8-5.9,0.3c-4-0.9-8.3-0.3-12.3-0.4c0,0.5,0.1,1.5,0.1,2.1
		c-0.7-0.4-1.5-0.8-2.2-1.3c-1.6-0.2-3.3-0.4-4.9-0.7c-0.9,0.5-1.7,1.1-2.5,1.7c0-0.5,0.1-1.7,0.1-2.3c-1.1,0.5-2.2,1-3.4,1.5
		c-2.6-1.7-6.2-2.1-9.5-1.6c-3.5,0.8-7.2,0.8-10.8,1.4c-0.7,1.1-1.5,2.2-2.2,3.3c-0.4-1-0.1-2-0.1-2.9c-12.3,1.5-24.8,2-37.1,1.3
		c-3.4-0.3-6.8-1-10,0c-1.4-0.4-2.9-1.3-4.4-0.8c-2.1,0.5-4.4-0.1-6.4-0.4c-0.1,0.3-0.4,1.2-0.4,1.5c-0.9,0.5-1.9,1-2.6,1.5
		c1.9,0.4,3.4,0,4.5-1.1c0.4,0,1-0.1,1.4-0.1c0,0.5,0,1.2,0,1.7c-0.9,0-1.9,0-2.7,0c-1.1,0.4-1.9,1.3-3.2,1.3
		c-0.6-2.4,0.7-4.9,0.5-7.2c-0.9,2.5-0.7,5.1-0.7,7.7c-0.5,0.2-1.4,0.7-1.9,0.9c-1.7-0.5-3.5-1.1-5.3-1.5c-0.2,0.4-0.4,1.2-0.5,1.6
		c-5.5-0.2-11.8,2.1-16.7-0.9c-0.5,0.5-1.1,1.1-1.5,1.7c0-0.5,0.1-1.7,0.1-2.3c-2.4,2-5.8,2.4-9.2,2c-0.3,0.7-0.6,1.3-0.9,2
		c-0.3,0-0.9,0-1.1,0c-0.4-0.3-1.2-1.1-1.5-1.4c-0.9,0.2-1.6,0.5-2.4,0.8c-0.7,0-1.5-0.1-2.4-0.1c-0.4-0.9-0.7-1.7-1.1-2.6
		c-1.9,0.3-3.6,0.8-5.4,1c-1.2-0.9-2.5-1.7-3.9-2.3c-0.7,0.3-1.5,0.8-2.2,1.2c0.5-0.9,1-1.7,1.4-2.6c-1.5-0.5-3.2-0.8-4.6,0
		c0.6,0.4,1.7,1.4,2.4,1.8c-1.4,0.3-2.8,0.5-4.1,0.8c0-0.5,0-1.7,0-2.3c-1,0.3-1.9,0.8-2.9,1.2c1.1,0.4,2.4,0.9,3.5,1.3
		c-2.6,1.6-5.9,0.2-7-2c-1.1,0.4-2.4,1.2-3.6,1.4c-0.7-0.3-1.2-0.7-1.9-1c-2.5,0.5-5.3,1.7-7.8,0.5c-0.4-0.8-0.7-1.6-1.1-2.4
		c-1.1,0-2.4,0-3.4,0.1c0.7,0.7,1.4,1.3,2.1,1.8c-2.2,0.1-4.4-0.1-6.5-0.5c-1.9,0.2-3.3,2-5.3,1.8c-1.7,0.1-2.7-1.3-3.9-2
		c-1.5,0.5-3,1.1-4.5,1.6c-0.5-0.5-1-1.1-1.5-1.6c-5,1.2-10.3,1.7-15.4,1.3c-0.4-0.3-0.9-1-1.1-1.3c-3.3,0.2-6.5,1.3-9.9,0.3
		c-2.2,1.6-5.4,0.2-7.8,1.3c-0.3,0.3-0.7,1-0.9,1.3c-0.4-0.1-0.6-0.1-0.9-0.1c0.2-0.5,0.4-1.2,0.5-1.7c1.1-0.1,2.4-0.3,3.4-0.4
		c-1.9-0.1-3.5-0.1-5.3-0.2c-0.4,0.2-1.1,0.5-1.5,0.8c-5.9-0.3-11.3,2.4-17,2c1.7,0.1,3.4,0.1,5.1,0.4c-2.1,0.3-4.4-0.3-6.5,0.1
		c-4.3,0.8-8.7,1.3-13.1,1.1c-2.4-0.1-4.5-0.8-6.9-0.9c-3.9,0.1-7.5,0.7-11.4,0.8c-2.7-0.7-4.4-2.6-6.5-4.2
		c-5.3,0.1-10.4-0.1-15.7,0.4c-4.3,0.3-8.6-0.1-12.8,0.3c-3.9,0.8-7.7,1.7-11.7,1.7c-1.9-0.1-3.3,0.7-4.4,1.7c-1.6,0-3.3,0-4.9,0
		c-0.3-1-0.5-2-0.7-2.9c-1.1-0.1-2.4-0.1-3.4-0.1c-0.5-0.4-1.1-0.8-1.5-1.2c-1.9,0.3-3.9,0.1-5.7-0.5c-0.4-1-0.7-2-1.1-2.8
		c-0.9-0.1-1.9-0.2-2.8-0.3c-0.6-3.2,0.6-6.2,1-9.4c-0.6,0-1.9,0.1-2.4,0.1c-2.2-2.2-1.1-5.3-3.8-7.2c-0.6-1.2-0.1-2.6-0.1-3.8
		c0.4,0,1.1,0,1.5,0c0-0.5,0-1.5,0-2.1c-1-0.1-2-0.1-3-0.2c1.1-0.1,2-0.1,3.1-0.1c-0.1-2-0.1-4-0.3-6c-0.3-0.7-0.9-1.3-0.5-2
		c1.2-3.3,0.6-6.5,0.6-9.9c-0.1-3.3,0.3-6.8-2.4-9.7c-1.9-2.8-4.4-5.5-5.4-8.6c1.4-0.3,2.7-0.8,4-1c0.5,0.7,1,1.3,1.5,2
		c-0.4-0.7-0.7-1.3-0.9-2c0.7-1.2,1.6-2.3,1.5-3.7c-0.2-6,1.5-12.1,1.6-18.1c1.1-5.5,0.2-11.3,0.7-16.8c0.3-2.2,1.7-4,1.5-6.2
		c-0.1-5.1,1.6-9.2,1.6-13.4c0.1-4.2,0.4-8.3,0.1-12.5c-0.2-4.5-2.9-8.5-3.2-13.1c-0.2-3.2-0.7-6.2-0.6-9.4
		c0.1-7.2-0.7-14.6,0.4-21.8c0.4-4-0.1-7.8,0.5-11.9c1-5.5,0.5-11.4,0.7-16.9c0-3.4,0.5-6.7-0.9-10c-2-5-0.9-10.4-2.6-15.3
		c-1.9-5.5-5.5-11.1-5-17.1c0.3-4.2-1.7-8.3-1.5-12.5c0.1-4.8,0.9-9.7,1.4-14.3c0.3-4.3-0.5-8.7,0.6-13c0.9-3.5,1.5-7.1,1.9-10.7
		c0.4-1.5-0.9-2.7-0.9-4.2c0.6-1.3,1.6-2.5,2-4c1.1-6.5,1.6-13.2,2.9-19.8c0.9-4.3,0.2-8.7,0.9-13.1c1.1-9.6-2.9-18.7-3.1-28.1
		c-0.9-7-1.6-14.1-0.7-21.2c0.3-7.1,0.2-14.1-0.1-21.2c0.1-3.7,0.4-7.3-0.2-11.1c-0.7-8.1,0.2-16.5-0.2-24.8
		c0.2-0.1,0.5-0.1,0.7-0.1c-0.2-7.5,0.9-15.2,0.7-22.7c0.2-7.4-1.1-14.9-1.6-22.3c0-4-1-7.9-0.6-12.1c0.5-5.8,1.5-11.6,1.2-17.5
		c1-8,2.2-16.2,2.4-24.3c0.5-5.8,2.2-11.6,1.1-17.3c-0.6-3.3-0.1-6.6-0.7-10c-0.9-4.2-0.1-8.4-0.3-12.7c0.1-4.2-1-8.3-1.5-12.5
		C9.6,96,8.1,91.2,6.7,86.7c-1.4-3.8,0.7-7.5,0.1-11.4c-0.6,0-1.6-0.1-2.2-0.1c0.7-0.8,1.5-1.5,1.9-2.4c-0.1-1-0.4-2-0.5-2.8
		c0.9-1.8,1.9-3.7,2.1-5.5c0.3-2.7,1.9-5.2,2.7-7.8c0.9-2.3-1.1-4.7,0.4-7c1.2-1.7,1-3.9,0.7-5.8c0.4-0.1,1-0.4,1.4-0.5
		c-1.1-0.8-2.4-1.4-3.3-2.3c-0.5-1.6,0.4-3.3,0.7-4.8c-1.9-0.8-5.5,0.2-6-2.1c-0.9-2,0.2-3.8,1.6-5.3c1.7,0.1,3.4,0.1,5,0.1
		c-0.2-3-0.3-6.2,0.4-9.2c0.4-1.1-0.4-2.2-0.7-3.2c-1.5-2.6,1.5-5.1,1.9-7.6c1.3-0.9,2.4-1.5,3.6-2c1.4,0.1,2.6,0.3,4,0.5
		C19.7,7,19.1,6.3,18.7,6c-1,0-1.9,0.1-2.9,0.1c-0.1-0.3-0.3-1-0.3-1.4c3.8-0.1,7.2,1.5,10.9,1.5l0.4-0.5c0.3-0.7,0.5-1.3,0.7-2
		c0.4-0.1,0.7-0.2,1-0.3c-0.1,0.3-0.2,1.2-0.3,1.5c1.4,1,3.4,0.4,5,0.5c0-1,0-1.8,0.1-2.7c0.2,0.1,0.9,0.3,1,0.5
		c0.1,1,0.2,2,0.4,2.8c6.8,0,13.7,0.4,20.5-0.5c0.4-0.3,0.9-0.8,1.2-1.2c1.2,0.5,2.4,1.2,3.6,1.7c1.2-0.1,2.4-0.1,3.6-0.1
		c0.5,0.8,1.1,1.5,1.5,2.2c2.1-0.1,4-0.8,5.3-2.2c1.2,0,2.4,0,3.6,0c0,0.5,0.1,1.5,0.2,2c1.4,0,2.4-0.5,3.4-1.3
		c3.8,0,7.5-0.4,11.3-0.8c4.4,0.1,8.5-0.9,12.8-1.3c0-0.3,0.1-1,0.1-1.4c0.7-0.4,1.2-1,1.9-1.5c1,0.2,2,0.5,3,0.8
		c1.1,1.3,2.1,2.7,2.1,4.5c0.7,0.1,1.4,0.1,1.9,0.2c-0.9-1.3-2.4-2.9,0-3.9c2.1-0.1,3.9,1.1,5.6,2c-0.5,0.5-1,1-1.5,1.5
		c-0.1,0.5-0.1,1-0.2,1.6c0.3-0.1,0.7-0.1,0.9-0.1c0.7-0.8,1.7-1.8,3-1.3c0.7,1,1,2.3,1.4,3.5c0.9-0.3,1.9-0.5,2.8-0.9
		c0.4-0.7,0.9-1.4,1.2-2.1c-1.5-0.3-2.9-0.5-4.3-1.1c-1-1,0.9-2.4,1.9-3c0.9,0.5,1.9,1.2,2.8,1.6c2-0.7,4-1.4,6.3-1.3
		c0.4-0.5,0.7-1.3,1-1.8c0.7-0.1,1.5-0.1,2.4-0.1c-0.4,0.8-0.6,1.6-0.9,2.4c4.4,0.3,8.8,1.3,13.2,2.2c-1.5,0.8-2.8,1.7-3.8,2.9
		c1.9,0.4,3.4-0.3,4.9-1.3c0.6,0.2,1.9,0.8,2.4,1c0.4-0.3,1.1-1,1.5-1.4c-0.7-1.7-1.6-3.4-0.9-5.1c1.1,0,2.2,0,3.4-0.1
		c0,0.4,0.1,1.3,0.2,1.7c1.5-0.5,3-1,4.4-1.6c0.9,2.5,3.9,3.8,7,3.8c2.4,0.8,5.3,0.2,7.8,1c0.5-0.5,0.9-1.1,1.4-1.7
		c1.1,0.2,2.1,0.4,3.1,0.7c0.4-0.2,1.2-0.8,1.6-1c1.7,1.6,3.6,3.3,6,4.2c0.5-0.5,1-1.3,1.5-1.8c1,0.2,1.9,0.3,2.9,0.5
		c-0.5-1-1-2.1-1.4-3.2c1.1,0.7,2.2,1.4,3.4,2.2c0.5-0.8,1-1.5,1.4-2.2c2.4-0.7,4.8-0.9,7.2-0.9c0.1-0.8,0.2-1.5,0.3-2.3
		c1.5,0.7,1.9,2,2.4,3.2c1.5-0.3,2.9-0.5,4.4-0.9c-1.4-0.8-2.6-1.5-3.9-2.4c3.9-0.2,7.5,0.1,11.4,0.7c0,0.8,0,1.5,0,2.4
		c1.4,0,2.9,0,4.3,0c-0.9-1-1.9-2-2.8-2.8c1.9,0,3.9-0.1,5.7-0.2c-0.4,1-0.9,2.1-1.4,3.2c2.5,0,5,0,7.5,0c-0.1-1.5-1.5-2-3.1-2.2
		c0.2,0,0.6-0.1,0.9-0.1c1.5,0.3,3.2,0.4,4.9,0.5c0,0.3,0,1,0.1,1.4c1.5-0.2,3.1-0.5,4.6-1c0.3,0.1,0.9,0.3,1.1,0.4
		c2.4-0.3,4.8,0.2,7,0.4c0.4-0.2,1-0.8,1.4-1c2.2,0.8,4.6,1,7,0.9c0.4-0.2,1-0.7,1.4-0.9c1.1,0.1,2.2,0.1,3.4,0.2
		c0.4-0.2,0.9-0.8,1.1-1c1.5,1.5,4.8,1.2,5.5,3.4c0.4-0.1,0.6-0.3,0.9-0.5c-0.7-1-1.4-1.8-1.9-2.8c2.7,0.1,5.3,0.9,7.7,1.7
		c0.3-0.2,0.7-0.7,1-0.9c0.5-0.1,1.5-0.1,1.9-0.2c1.1-0.7,2-1.4,3.1-2.1c-0.5,1-0.9,1.8-1.4,2.8c2.6,1.3,5.5-0.2,8.3,0
		c5.8,0.1,11.7,0.1,17.5,0c1.5-0.1,2.8,0.3,4.1,0.8c0.4-0.7,0.7-1.3,1.1-2c0.4,0,1.1-0.1,1.4-0.1c0,0.3,0,1.1,0,1.5
		C308.5,4,309.8,4,311,4c0-0.4,0-1.4,0-1.8c0.7,0.1,1.4,0.3,2,0.4C313,1.5,313.2,0.9,313.5,0.2 M102,4c0.4,1.6,1.9,1.8,3.5,1.6
		c-0.4-1.2-0.9-2.4-1.1-3.7C103.6,2.6,102.8,3.3,102,4 M207.2,3c-0.4,2,2.7,1,4,1.3c0.1-0.3,0.3-1,0.4-1.4
		C210.2,2.8,208.7,2.9,207.2,3 M313.8,5.5c0,0.3-0.1,0.9-0.2,1.2c2.9,0,5.7,0,8.6,0.1c-0.1-1,0-2.1-0.3-3
		C319.2,4.1,316.3,4.6,313.8,5.5 M55.4,5.3c0,0.3,0.1,1.1,0.1,1.5c1.2,1,5.3,1.1,3.9-0.9C58,6.2,56.5,6.4,55.4,5.3 M42.3,7.2
		c0.1,0.3,0.3,0.8,0.4,1.2c3.9,0.6,7.8-0.1,11.7-0.4c-0.1-0.3-0.2-1.1-0.3-1.5C50.1,6.5,46.4,7.8,42.3,7.2 M156.1,8.4
		c-0.3,0.4-0.4,1-0.6,1.4c0.2,0,0.5,0.1,0.7,0.1C156.2,9.7,156.2,8.9,156.1,8.4c0.9,0,2.5-0.1,3.4-0.1c0.3,0.3,0.7,1,0.9,1.4
		c1.4,0,2.9,0.5,4.3-0.1c1-0.7,2.2-0.5,3.4-0.5c-0.4-0.4-0.7-0.8-1.1-1.3c-0.4,0.2-1.1,0.5-1.5,0.8c-1.9-0.8-4-0.9-6-0.5
		c0-0.1-0.1-0.5-0.1-0.7C158.6,8.3,157.2,7.9,156.1,8.4 M523.8,193.7c0.1,1.3,0.1,2.5,0.2,3.9c1.1,0.1,2.1,0.1,3.3,0.2
		c-0.4-1.3-0.9-2.5-1.4-3.8C525.1,193.9,524.4,193.8,523.8,193.7 M529.3,194.7c-0.1,0.3-0.2,0.8-0.3,1.1c0.5,0,1.4,0,1.9,0
		c0.6-0.7,1.1-1.3,1.7-2.1C531.5,194,530.4,194.4,529.3,194.7 M531.5,196.7c-0.4,0.9-0.7,1.7-1,2.7c-0.6,0-1.7,0-2.4,0
		c0,0.3,0,1.1,0,1.5c1.9-0.3,4-0.5,5.5-1.6C534.4,197.9,533.1,196.9,531.5,196.7 M523,360.4c0.1,0.8,0.1,1.5,0.2,2.3
		c-0.4,0.3-0.9,0.8-1.1,1.2c0.4,0.1,1.2,0.2,1.6,0.3c1.4,2.4-2.6,3.3-3.3,5.1c0.9-0.4,1.6-0.8,2.4-1.3c3,1.3-2.8,3.4,0.6,4.6
		c-0.6,0.2-1.7,0.8-2.2,1c0.7,0.9,1.4,1.7,1.9,2.6c-1.4,1.2-0.7,2.8-0.9,4.5c-0.6,0.5-0.7,1.3-0.9,2c0.7,0.5,1.4,1.2,1.9,1.7
		c-0.7,0.5-1.4,1-1.9,1.5c1.5,2.2-0.2,4.5,0.1,6.7c-0.5,0.1-1.5,0.2-1.9,0.3c0.7,0.3,1.4,0.5,2.1,1c-0.1,0.5-0.1,1.3-0.1,1.8
		c-0.3,0.2-0.7,0.5-1,0.8c0.6,0.3,1.2,0.8,1.9,1.2c-0.1,1.3-0.1,2.6-0.3,4c-0.5,0.8-0.7,1.7-0.9,2.6c1.9-0.2,2.9,1,2.7,2.5
		c-0.4,0.2-0.9,0.7-1.2,0.9c0.6,0.1,1.6,0.3,2.2,0.5c-0.5,0.8-0.9,1.7-1.4,2.5c0.4-0.1,1.2-0.2,1.6-0.3c0.9-1.5,1.4-3.3,0.7-4.8
		c-0.9-1.6-0.5-3.4-0.6-5.1c-1.1-0.8-1.9-1.8-1.9-3.2c0.7,0,1.2,0.1,1.9,0.1c0-1.3-0.6-2.8,0.6-4c0.2-1.7,0.2-3.5,0.1-5.1
		c-0.9-0.8-1.5-1.5,0.3-1.7c-0.4-0.1-1.1-0.4-1.4-0.5c0.4-0.7,0.7-1.3,1.1-2c-1.5-1.1-0.4-2.6,0.1-3.9c-0.6-0.5-1.1-1-1.9-1.5
		c0.1-2,0.1-4,0.1-6c0.9-0.3,1.5-0.5,2.4-0.8c0-0.3,0.1-0.9,0.1-1.2c-1.1,0-2.4,0.1-3.5,0.1c0.4-0.9,0.9-1.7,1.2-2.6
		c0.6,0.1,1.7,0.1,2.2,0.1c-0.1-0.5-0.1-1.3-0.2-1.8c-0.6,0-1.9,0.1-2.4,0.1c0-1,0.2-2.1,0.4-3.2c0.7-0.1,1.9-0.2,2.6-0.3
		c-0.7-0.3-1.5-0.8-2.2-1.2c0.1-0.4,0.3-1.4,0.4-1.8C524.7,360.4,523.8,360.4,523,360.4 M498.6,425c0,1.8-1.9,4.1,0.4,5.7
		c0.3-0.3,0.9-1,1.1-1.3c-0.7-2.3-0.7-4.7-0.6-7C498,422.7,498.8,424.1,498.6,425 M298,691.3c-0.1,0.3-0.4,0.8-0.5,1
		c1.4-0.1,2.5-0.1,3.9-0.2c2.2-1.5,4,0.4,4.9,2c0.4,0,1.4,0.1,1.9,0.1c-0.4-0.2-1-0.7-1.4-0.9c0.1-0.4,0.3-1.3,0.4-1.7
		c-0.5,0-1.5,0.1-2,0.1c-1.2-0.4-2.4-1.1-3.9-1.2C300,690.7,299,691,298,691.3 M248.5,700.5c1.7,0.1,4.4-0.1,3.5-2.2
		C250.5,698.6,248.3,698.7,248.5,700.5z"/>
	<path class="st0" d="M134.6,1.7c2.9,0.1,5.6,0.1,8.5-0.1c-0.1,0.3-0.4,1-0.4,1.4c-1.9,0.1-3.9,0.3-5.5-0.5
		C136.1,2.4,135.1,2.4,134.6,1.7z"/>
	<path class="st0" d="M183.2,3.6c0.4,0,1.4-0.1,1.7-0.1c0,0.3-0.1,1.1-0.1,1.5c-0.4,0-1.4,0-1.7,0C183.1,4.7,183.2,4,183.2,3.6z"/>
	<path class="st0" d="M66.4,4.3c0.9-0.4,1.5-0.4,2,0.2c0,0.8-1.4,1.4-2.1,0.9C66.4,5.1,66.4,4.7,66.4,4.3z"/>
	<path class="st0" d="M524,19.9c0.3,0.2,0.7,0.5,1,0.8c0.5,2.5,1.5,5,3.6,7c-0.7,0.1-1.5,0.2-2.1,0.3c-0.3,0.3-0.9,1-1.1,1.4
		c-1.1-0.5-2.7-1.1-2.4-2.4C523.4,24.7,523.8,22.3,524,19.9z"/>
	<path class="st0" d="M530.7,29.2c0.2,0,0.5,0,0.7,0c0.2,5-0.2,10.2,0,15.1c-0.4,0-1.1,0-1.5,0.1c0.1-2.8-0.2-5.8,0.9-8.5
		c-0.2-0.3-0.6-0.8-0.7-1.1C531.5,33,530.5,31,530.7,29.2z"/>
	<path class="st0" d="M5.4,109.4c0.5,0.5,1.2,1,1.1,1.8c0.2,5.2,1.4,10.5-0.1,15.6c-0.5-1.4-1.1-2.8-1.1-4.3
		C5.4,118.2,5,113.7,5.4,109.4z"/>
	<path class="st0" d="M533.4,206.4c1.2-0.3,1.7,0,1.4,1C533.4,207.7,533,207.3,533.4,206.4z"/>
	<path class="st0" d="M535.3,210.7c0.4,0,1.1,0.1,1.5,0.1c-1,0.9-1.7,1.8-1.9,2.9c-0.9,0.3-1.9,0.5-2.6,0.8
		c-0.4-0.9-0.7-1.8-1.1-2.7c1.4,0.3,2.7,0.5,4,0.8C535.2,212.2,535.2,211.2,535.3,210.7z"/>
	<path class="st0" d="M531,229.3c1-0.8,1.7-2,3.2-2c2.1,0,2.9,2.1,2.9,3.5C535.1,230.1,532.8,230.1,531,229.3z"/>
	<path class="st0" d="M531,662.8c1-1.8,3.4,1,1,1.3C531.7,663.7,531.2,663.2,531,662.8z"/>
	<path class="st0" d="M530.8,665.6c0.7-0.1,1.5-0.2,2.2-0.3c0,1.6-0.6,3.3-1.4,4.8C531.3,668.6,531,667.1,530.8,665.6z"/>
	<path class="st0" d="M479.4,691.1c4.4,0.5,9.3-2.3,13.2,0.3c-4.3,1-8.8,0.7-13.2,1C479.4,692.1,479.4,691.4,479.4,691.1z"/>
	<path class="st0" d="M460.3,693.4c1.5-0.1,1.9,1.2,1.7,2.2c-1.1-0.4-2.2-0.8-3.4-1c0.4,0.9,0.9,1.8,1.4,2.7c-0.3,0-0.7,0.1-1,0.1
		c0-1-0.6-1.5-1.7-1.5c0-0.5,0.1-1,0.1-1.5C458.6,694.4,459.5,694,460.3,693.4z"/>
	<path class="st0" d="M445.2,696.1c-0.2-1.3,0.1-2.3,2-2.1c-0.1,1.7,0.7,3.5,1.9,4.9c-0.4,0.3-0.9,1.2-1.2,1.5c-1.4,0-2.5,0-3.9,0
		c0-0.5,0.1-1.5,0.2-2c-0.2,0-0.5-0.1-0.7-0.1c0,0.5,0.1,1.7,0.2,2.2l-1.9-0.1c0-1.5,0.1-3,0.2-4.6
		C443.2,696,444.1,696.1,445.2,696.1z"/>
	<path class="st0" d="M433.5,696.3c1.9-1,4.1-0.7,6.2-0.2c0,0.9,0,1.7,0,2.7c-1.4-0.3-2-2.2-3.8-1.6c-0.1,0.5-0.2,1.6-0.3,2.2
		c-0.2-0.7-0.4-1.3-0.5-2C434.7,697.1,434.1,696.6,433.5,696.3z"/>
	<path class="st0" d="M344.5,702.5c-0.1-2.2-0.9-4.9,1.9-6.3c2,1.6,0.4,4,0.2,6C346,702.4,344.9,702.5,344.5,702.5z"/>
	<path class="st0" d="M461.9,697.9c0.7,0,1.4,0,2.1,0c0.4,0.7,0.7,1.3,1.1,2c0.4,0,1.4,0.1,1.7,0.1c0.5,0.3,1,0.8,1.5,1.2
		c-0.5-0.1-1.5-0.3-2-0.4c0,1,0.1,2,0.1,2.9c-0.9-0.2-1.9-0.4-2.4-1.1c1.5-0.3,2.1-1.2,1.9-2.4c-1.4,0.1-2.5,0.4-3.4,1.3
		c-0.9-0.3-1.6-0.8-2.4-1.1C460.7,699.5,461.3,698.7,461.9,697.9z"/>
	<path class="st0" d="M442.3,703.6c1-2.1,4.1-2.4,6.5-2.6c-0.4,0.8-0.7,1.6-1,2.5C446,703.6,444.1,703.7,442.3,703.6z"/>
</g>
</svg>
