<?xml version="1.0" encoding="utf-8"?>
<!-- Generator: Adobe Illustrator 26.0.0, SVG Export Plug-In . SVG Version: 6.00 Build 0)  -->
<svg version="1.1" id="Layer_1" xmlns="http://www.w3.org/2000/svg" xmlns:xlink="http://www.w3.org/1999/xlink" x="0px" y="0px"
	 viewBox="0 0 717 537" style="enable-background:new 0 0 717 537;" xml:space="preserve">
<style type="text/css">
	.st0{opacity:0.95;fill:#E2E2E2;enable-background:new    ;}
</style>
<g id="_x23_000000f3">
	<path class="st0" d="M709.8,313.5v1.6c-0.8,0-1.6,0.1-2.4,0.1c-0.1,3.5,1.5,7,0.3,10.3c-1.5-0.4-2.9-1.1-4.3-1.9
		c-0.1,2.4-0.3,4.8-0.1,7c0.3,0.6,0.8,1.7,1.1,2.4c-1.3-0.1-2.4-1.1-3.6-1.9c0.1,0.4,0.1,1.1,0.2,1.5c0.3,0.1,1.2,0.3,1.6,0.4
		c0.3,2.6,1.1,5.3,0.2,7.8c-0.1,3.4-0.1,6.8-0.1,10.2c0.3,0.1,0.9,0.3,1.2,0.4c-0.1-2.9,0.4-5.6,1.3-8.3c-0.5-1.1-1-2.1-1.5-3.2
		c0.5-0.1,1.5-0.4,2.1-0.5c0-0.9,0.1-1.7,0.1-2.5c-0.9-0.4-2.2-0.2-2.7-1.4c1-1.5,2.2-2.8,3.3-4c1.7,7,1,14.3,1.3,21.6
		c1.1,9.2,0.1,18.5,1.5,27.7l0.7-0.9v8.6c-0.5,2.1-0.9,4.3-1,6.5c-2.2,3.8-2.8,8.4-3.3,12.9c-0.3,4.1-1.5,8.3-0.8,12.5
		c0.9,6.7,0.1,13.6,0.2,20.3c0.1,4.5,0,9.2,0,13.8c0.1,3.2-0.3,7,2.1,9c-0.3,2.1-0.5,4.4-0.8,6.5c1.2-0.3,2.1-1,2.6-2.2
		c-0.1,0.7-0.1,1.5-0.1,2.4c-2.5,1.7-2.1,5.3-2,8.3c-2.3,5-2.4,11.3-2.2,16.9c-0.1,2.9-0.5,6,0.2,8.9c0.1,1.4,0.2,2.6,0.3,3.9
		c-0.3,2.2-0.9,4.4-0.8,6.7c0.3,2.2,1.1,4.3,1.4,6.5c-0.9-0.9-1.7-1.9-2.5-2.7c0,1.6,0.1,3.3-0.2,4.9c-3.8,0.7-7.6,0.4-11.4-0.6
		c-3-0.2-6.1-0.1-9.1-1.1c-0.1-0.3-0.3-0.7-0.3-1c0-1.5,1.1-2.4,1.7-3.5c1,0,1.8,0.1,2.8,0.1c1.2-2.4,1.5-5.3,2-8
		c1.2-1.1,2.4-2.1,3.6-3.3c-0.7,0.1-1.5-0.4-2,0.4c-2.2,1.9-2,5.5-3,8.3c-0.5,2.1-2.9,1.5-4.3,1.1c-0.5-0.4-1.2-0.7-1.7-1.1
		c-1.5-0.3-2.8,0.7-3.9,2c-0.3,0.3-1,0.7-1.3,1c1.6-0.9,3.3-1.9,5.1-1.9c-0.3,1-0.8,1.9-1.1,2.9c0.7-0.9,1-2.7,2.2-2
		c0.9,0.9,0.5,2.4-0.3,3c-1.2,1.2-1.4,3.4-2.9,4.1c-5.3,3-11.3,4-17.1,4.5c0.8,1,1.5,1.9,2.2,2.9c-0.8-0.2-1.4-0.4-2.2-0.5
		c-0.1-0.5-0.3-1.5-0.4-2.1c-4.5,1.2-9.2,1.4-13.7-0.2c-8-0.5-16.1-4.4-24.2-3.5c1.8-0.4,3.8-0.5,5.5-0.7
		c-5.2,0.7-10.4-0.7-15.6-1.5c-5.3-1.1-10.6-1.1-16-1.9c-4.6-1.2-9.4-1.1-14-1.1c-2.9,0-5.8,1.5-8.7,2c-4.9,0.2-9.7,1.4-14.4,1
		c0.5,0.9,1.2,1.7,1.7,2.5c0.8-0.2,1.5-0.4,2.2-0.6c2.4,0.4,5.1,1.1,7.4-0.3c1,1,2.2,1.1,3.5,0.9c0.3-0.1,1-0.4,1.4-0.5
		c6.4,1.5,12.9,0.6,19.4,1.1c2.8,1.9,6,0.7,9.1,0.1c0.2,0.4,0.4,0.9,0.7,1.4c3.6-1,7.1,1.1,10.6-0.1c1.4-0.6,2.4,1.7,3.9,1.2
		c3.5-1.1,7.2-0.4,10.9,0c2.5,0.4,5.1,0.1,7.6,0.5c1.7,0.4,3.6,1.6,5.4,0.9c1.3,0.3,2.6,0.5,4,0.9c-2.5,0-5.1-0.7-7.6,0.1
		c-0.3-0.4-1.1-1.2-1.4-1.6c-1.8,0.5-3.6,2.1-5.5,2.2c-4.6-0.7-9.2-0.5-13.9-0.6c-1,0.1-1.7-1.2-2.6-1.7c-0.3,0.4-0.9,1.2-1.2,1.6
		c-2.8-2-7.1,2.4-9.4-1.5c-0.9,0.7-1.7,1.4-2.6,2c0-0.6,0-1.9-0.1-2.4c-0.8-0.4-1.5-0.6-2.2-0.7c-6,1.1-12.3,0.4-18.2-0.3
		c-0.2-0.4-0.7-1.2-0.9-1.5c-2.8,1.9-6.1-0.4-9.2,0.4c-0.5-0.3-1-0.6-1.6-0.9c-1.1-0.1-2.2,0.6-3.3,0.3c-3.2-0.9-6.3-0.4-9.7-0.9
		c0.1-0.7,0.1-2,0.2-2.7c-0.5,0.1-1.7,0.2-2.3,0.2c-1.1,1.4-2.6,1.6-4.2,1.9c-3.6-0.9-7.3-0.4-11.1-0.7c-0.1-0.4-0.1-1-0.2-1.4
		c1-0.1,2-0.2,3-0.3c-1.3-2-3.5-1.4-5.2-1.5c-0.2,0.4-0.5,1.4-0.8,1.7c-0.3,0-1,0-1.3,0c-0.4-0.7-0.9-1.4-1.3-1.9
		c-2.5,0.9-5.1,1.4-7.7,1.1c-3.3-0.4-6.4,0.4-9.8,1.1c0.3,1.4,0.5,2.8,0.8,4.1c-0.7,0.7-1.3,1.4-2,1.9c0.1,0.7,0.1,1.4,0.1,1.9
		c0.8,0,1.7,0.1,2.5,0.2c0.2-1.4,0.4-2.9,0.5-4.3c2.4-0.3,2,3.4,1.7,5.4c-1.7,3.9-5.8,2.2-8.6,3c-1.6,0.7-3.4,0.3-4.9-0.5
		c-0.3-1.7-1-3.3-1.5-4.9c-0.3-2.1,0.8-3.8,1.5-5.5c-1.5,0.9-1.8,2.9-2.2,4.8c-1.5,0.7-2.9,1.4-4.5,2.1c-0.1-2.2,1.3-2.9,2.6-3.6
		c0-0.9,0-1.9,0-2.7c-3.9,0.7-7.7,1-11.8,0.7c0,0.7,0,1.9,0,2.5c-1.6,0.1-2.7-1-3.5-2.7c-0.8,0.1-1.5,0.2-2.4,0.4
		c-0.1,1.7,1.1,2.5,2.1,3.4c-0.1,0.4-0.1,1.4-0.1,1.7c-0.5,0.1-1.2,0.1-1.7,0.1c-1.4-2.4-2.9-4.5-4.5-6.9c-1.3-0.1-2.4-0.2-3.8-0.3
		c0,1.1,0.1,2.4,0.1,3.4c-1-0.2-2.2,0.1-2.6-1.4c0.3-0.9,0.7-1.9,1-2.7c-3.8-0.7-7.4-1.4-11.2-2.5c-9.1-1.9-18.2-0.7-27.4-1.4
		c0.3,0.3,0.8,0.5,1.1,0.7c-4.3-0.1-8.6-0.1-13-0.1c-5.3-0.2-10.5,1.2-15.6,2.6c-4.9,1.4-10,0.3-14.8,0.9c-4.5,0.7-8.9,0.1-13.4,0.9
		c-2.8,0.6-5.9,0-8.9,0.6c-11.6,1.9-23,5.1-34.8,4.4c-7.2-0.7-14.6-1.5-21.8-1.5c-3.8,0.1-7.6-0.9-11.5-0.9c-3-0.2-5.8,1.9-8.6,2.8
		c-4.2,1.9-8.7,1.4-13.1,2.7c-2.1,0.6-4.2,0.9-6.4,1.2c-0.1,0.3-0.3,0.9-0.3,1.1c-0.1-0.7-0.1-2-0.1-2.7c-4.1,1.1-8,2.9-12.3,3.5
		c0.3,0.3,0.8,0.4,1.2,0.7c-5.1-0.5-10.3,0.3-15.3-0.5c-4.5-2.6-9.4-0.7-13.9,0.4c-4,1.1-7.8-1-11.9-0.7c-4,0.1-7.8,0.1-11.8,0
		c-6.6-0.9-13.4-0.4-19.9-2.4c-2.4-0.7-5-0.5-7.5-1c-4-0.4-7.6-2.4-11.6-3.2c-3.8-1.6-7.7-2-11.6-3.4c-4.5-1.9-9.4-1.1-14-1
		c-6-0.4-12.3,0.4-18.1,1.7c2.4,0.7,5,1.1,7.5,1.1c-0.1,0.4-0.3,0.9-0.3,1.1c-6-0.1-12.3,0.9-18.1-0.7c-2.6,2.8-6.2,1.2-9.3,1.6
		c-4.9-0.3-9.8,1.1-14.4,0.9c-2.2-0.2-4.5,0.7-6.7,0.9c-8.7-0.2-17.5-0.3-26.2,0.4c-1.7-0.4-3.7-0.4-5.3,0.7l-0.5-0.2
		c-3.2-0.6-6.3,0.1-9.6-0.4c2.2-2.4,5.4-1.2,8-1.4c0.3,0.1,1.1,0.4,1.4,0.4c2.2-0.9,4.3-1.5,6.5-1.1c0.1-0.6,0.2-1.7,0.3-2.2
		c-0.3-0.2-1-0.5-1.3-0.7c2.5,0,5.1-0.5,7.5-1.4c2.1-0.9,4.7,0.2,6.4-1.9c-2.8-1-6-0.2-9-0.3c-2.3-0.2-4.6,1.5-6.7,0.6
		c-2.7-0.9-6.3-1.7-8.5,0.9c-2,0.5-4-0.2-5.8-1c-4.9,1.4-10.1-1.6-15,0.5c-0.4-0.5-0.9-1-1.3-1.4c-1.8,0.4-3.6,2-5.5,1.4
		c-1.5-0.6-2.8-1.4-4.5-1.7c-0.8-1-1.5-1.9-2.1-3.2c-0.1-1.9,0.3-3.6,0.5-5.5c-1.5,1.5-1.3,4.4-3,5.5c-0.2-3.3,1.3-6.1,1.3-9.3
		c0.1-2.7-0.1-5.3,0.1-8c1.3,2.8-0.4,6,0.1,8.9c0.3-2.2-0.3-5,1.3-6.5c0.1,0.7,0.2,2.1,0.3,2.9c0.3,0.1,0.8,0.3,1.1,0.4
		c-0.1-0.9-0.1-1.5-0.2-2.4c-1-1.7-2.4-3.5-2.4-5.8c0.3-4.4,2.6-7.9,2.9-12.3c-0.2-2.5-0.5-5.1-0.4-7.7c0.2-2.4-1-4.1-1.8-6
		c0-1.1-0.1-2.2-0.1-3.3c0.4-0.5,1-1.1,1.4-1.5c-0.5-1.6-1.1-3.3-2.1-4.5c0.1-2.1,1-3.9,1.4-6c0.5-3.4-0.8-6.5-0.9-9.9
		c-0.8-4.9,0.3-9.8,0.2-14.6c0-2.9,1.1-5.7,0.5-8.7c-0.4-2.4,0-4.5,0.5-6.8c-0.2-0.4-0.5-0.7-0.8-1c-0.5,0-1.5,0-2.1,0
		c-0.1-1.1-0.1-2.4-0.1-3.4c-0.4,0.1-1.4,0.4-1.8,0.5c0.2,0.7,0.3,1.5,0.5,2.4c-0.8,2.6-0.4,5.4-0.5,8.3c-0.2,0-0.8,0-1,0
		c-0.1-2.4-0.1-4.8,0.5-7c-1.3-2.9,0.1-6.5-1.3-9.4c0.4-0.4,0.8-0.7,1.2-1.1c0.7-4.1,0.5-8.4,1.3-12.5c0.3-1.9-0.8-3.9-0.3-5.9
		c0.9-4,0.3-8.3,0.4-12.3c-0.5,0-1.5,0.1-2.1,0.1c0.4-0.7,0.8-1.5,1.3-2.2c0.2-1.6,0.4-3.3,0.7-4.9c-0.5-0.9-1.1-1.7-1.7-2.5
		c0.5,0,1.7,0.1,2.3,0.1c-0.5-1.1-1-2.2-1.5-3.4c1.7-2.6,2.1-6.2,1.6-9.5c-0.8-3.5-0.8-7.2-1.4-10.8c-1.1-0.7-2.2-1.5-3.3-2.2
		c1-0.4,2-0.1,2.9-0.1c-1.5-12.3-2-24.8-1.3-37.1c0.3-3.4,1-6.8,0-10c0.4-1.4,1.3-2.9,0.8-4.4c-0.5-2.1,0.1-4.4,0.4-6.4
		c-0.3-0.1-1.2-0.4-1.5-0.4c-0.5-0.9-1-1.9-1.5-2.6c-0.4,1.9,0,3.4,1.1,4.5c0,0.4,0.1,1,0.1,1.4c-0.5,0-1.2,0-1.7,0
		c0-0.9,0-1.9,0-2.7C9.9,282.8,9,282,9,280.8c2.4-0.6,4.9,0.7,7.2,0.5c-2.5-0.9-5.1-0.7-7.7-0.7c-0.2-0.5-0.7-1.4-0.9-1.9
		c0.5-1.7,1.1-3.5,1.5-5.3c-0.4-0.2-1.2-0.4-1.6-0.5c0.2-5.5-2.1-11.8,0.9-16.7c-0.5-0.5-1.1-1.1-1.7-1.5c0.5,0,1.7,0.1,2.3,0.1
		c-2-2.4-2.4-5.8-2-9.2c-0.7-0.3-1.3-0.6-2-0.9c0-0.3,0-0.9,0-1.1c0.3-0.4,1.1-1.2,1.4-1.5c-0.2-0.9-0.5-1.6-0.8-2.4
		c0-0.7,0.1-1.5,0.1-2.4c0.9-0.4,1.7-0.7,2.6-1.1c-0.3-1.9-0.8-3.6-1-5.4c0.9-1.2,1.7-2.5,2.3-3.9c-0.3-0.7-0.8-1.5-1.2-2.2
		c0.9,0.5,1.7,1,2.6,1.4c0.5-1.5,0.8-3.2,0-4.6c-0.4,0.6-1.4,1.7-1.8,2.4c-0.3-1.4-0.5-2.8-0.8-4.1c0.5,0,1.7,0,2.3,0
		c-0.3-1-0.8-1.9-1.2-2.9c-0.4,1.1-0.9,2.4-1.3,3.5c-1.6-2.6-0.2-5.9,2-7c-0.4-1.1-1.2-2.4-1.4-3.6c0.3-0.7,0.7-1.2,1-1.9
		c-0.5-2.5-1.7-5.3-0.5-7.8c0.8-0.4,1.6-0.7,2.4-1.1c0-1.1,0-2.4-0.1-3.4c-0.7,0.7-1.3,1.4-1.8,2.1c-0.1-2.2,0.1-4.4,0.5-6.5
		c-0.2-1.9-2-3.3-1.8-5.3c-0.1-1.7,1.3-2.7,2-3.9c-0.5-1.5-1.1-3-1.6-4.5c0.5-0.5,1.1-1,1.6-1.5c-1.2-5-1.7-10.3-1.3-15.4
		c0.3-0.4,1-0.9,1.3-1.1c-0.2-3.3-1.3-6.5-0.3-9.9c-1.6-2.2-0.2-5.4-1.3-7.8c-0.3-0.3-1-0.7-1.3-0.9c0.1-0.4,0.1-0.6,0.1-0.9
		c0.5,0.2,1.2,0.4,1.7,0.5c0.1,1.1,0.3,2.4,0.4,3.4c0.1-1.9,0.1-3.5,0.2-5.3c-0.2-0.4-0.5-1.1-0.8-1.5c0.3-5.9-2.4-11.3-2-17
		c-0.1,1.7-0.1,3.4-0.4,5.1c-0.3-2.1,0.3-4.4-0.1-6.5c-0.8-4.3-1.3-8.7-1.1-13.1c0.1-2.4,0.8-4.5,0.9-6.9c-0.1-3.9-0.7-7.5-0.8-11.4
		c0.7-2.7,2.6-4.4,4.2-6.5C9.8,75.6,10,70.5,9.5,65.2c-0.3-4.3,0.1-8.6-0.3-12.8c-0.8-3.9-1.7-7.7-1.7-11.7c0.1-1.9-0.7-3.3-1.7-4.4
		c0-1.6,0-3.3,0-4.9c1-0.3,2-0.5,2.9-0.7c0.1-1.1,0.1-2.4,0.1-3.4c0.4-0.5,0.8-1.1,1.2-1.5c-0.3-1.9-0.1-3.9,0.5-5.7
		c1-0.4,2-0.7,2.8-1.1c0.1-0.9,0.2-1.9,0.3-2.8c3.2-0.6,6.2,0.6,9.4,1c0-0.6-0.1-1.9-0.1-2.4c2.2-2.2,5.3-1.1,7.2-3.8
		c1.2-0.6,2.6-0.1,3.8-0.1c0,0.4,0,1.1,0,1.5c0.5,0,1.5,0,2.1,0c0.1-1,0.1-2,0.2-3c0.1,1.1,0.1,2,0.1,3.1c2-0.1,4-0.1,6-0.3
		c0.7-0.3,1.3-0.9,2-0.5c3.3,1.2,6.5,0.6,9.9,0.6c3.3-0.1,6.8,0.3,9.7-2.4c2.8-1.9,5.5-4.4,8.6-5.4c0.3,1.4,0.8,2.7,1,4
		c-0.7,0.5-1.3,1-2,1.5c0.7-0.4,1.3-0.7,2-0.9c1.2,0.7,2.3,1.6,3.7,1.5c6-0.2,12.1,1.5,18.1,1.6c5.5,1.1,11.3,0.2,16.8,0.7
		c2.2,0.3,4,1.7,6.2,1.5c5.1-0.1,9.2,1.6,13.4,1.6c4.2,0.1,8.3,0.4,12.5,0.1c4.5-0.2,8.5-2.9,13.1-3.2c3.2-0.2,6.2-0.7,9.4-0.6
		c7.2,0.1,14.6-0.7,21.8,0.4c4,0.4,7.8-0.1,11.9,0.5c5.5,1,11.4,0.5,16.9,0.7c3.4,0,6.7,0.5,10-0.9c5-2,10.4-0.9,15.3-2.6
		c5.5-1.9,11.1-5.5,17.1-5c4.2,0.3,8.3-1.7,12.5-1.5c4.8,0.1,9.7,0.9,14.3,1.4c4.3,0.3,8.7-0.5,13,0.6c3.5,0.9,7.1,1.5,10.7,1.9
		c1.5,0.4,2.7-0.9,4.2-0.9c1.3,0.6,2.5,1.6,4,2c6.5,1.1,13.2,1.6,19.8,2.9c4.3,0.9,8.7,0.2,13.1,0.9c9.6,1.1,18.7-2.9,28.1-3.1
		c7-0.9,14.1-1.6,21.2-0.7c7.1,0.3,14.1,0.2,21.2-0.1c3.7,0.1,7.3,0.4,11.1-0.2c8.1-0.7,16.5,0.2,24.8-0.2c0.1,0.2,0.1,0.5,0.1,0.7
		c7.5-0.2,15.2,0.9,22.7,0.7c7.4,0.2,14.9-1.1,22.3-1.6c4,0,7.9-1,12.1-0.6c5.8,0.5,11.6,1.5,17.5,1.2c8,1,16.2,2.2,24.3,2.4
		c5.8,0.5,11.6,2.2,17.3,1.1c3.3-0.6,6.6-0.1,10-0.7c4.2-0.9,8.4-0.1,12.7-0.3c4.2,0.1,8.3-1,12.5-1.5c4.9-0.4,9.8-1.9,14.3-3.4
		c3.8-1.4,7.5,0.7,11.4,0.1c0-0.6,0.1-1.6,0.1-2.2c0.8,0.7,1.5,1.5,2.4,1.9c1-0.1,2-0.4,2.8-0.5c1.8,0.9,3.7,1.9,5.5,2.1
		c2.7,0.3,5.2,1.9,7.8,2.7c2.3,0.9,4.7-1.1,7,0.4c1.7,1.2,3.9,1,5.8,0.7c0.1,0.4,0.4,1,0.5,1.4c0.8-1.1,1.4-2.4,2.3-3.3
		c1.6-0.5,3.3,0.4,4.8,0.7c0.8-1.9-0.2-5.5,2.1-6c2-0.9,3.8,0.2,5.3,1.6c-0.1,1.7-0.1,3.4-0.1,5c3-0.2,6.2-0.3,9.2,0.4
		c1.1,0.4,2.2-0.4,3.2-0.7c2.6-1.5,5.1,1.5,7.6,1.9c0.9,1.3,1.5,2.4,2,3.6c-0.1,1.4-0.3,2.6-0.5,4c0.2-0.9,0.9-1.4,1.2-1.8
		c0-1-0.1-1.9-0.1-2.9c0.3-0.1,1-0.3,1.4-0.3c0.1,3.8-1.5,7.2-1.5,10.9l0.5,0.4c0.7,0.3,1.3,0.5,2,0.7c0.1,0.4,0.2,0.7,0.3,1
		c-0.3-0.1-1.2-0.2-1.5-0.3c-1,1.4-0.4,3.4-0.5,5c1,0,1.8,0,2.7,0.1c-0.1,0.2-0.3,0.9-0.5,1c-1,0.1-2,0.2-2.8,0.4
		c0,6.8-0.4,13.7,0.5,20.5c0.3,0.4,0.8,0.9,1.2,1.2c-0.5,1.2-1.2,2.4-1.7,3.6c0.1,1.2,0.1,2.4,0.1,3.6c-0.8,0.5-1.5,1.1-2.2,1.5
		c0.1,2.1,0.8,4,2.2,5.3c0,1.2,0,2.4,0,3.6c-0.5,0-1.5,0.1-2,0.2c0,1.4,0.5,2.4,1.3,3.4c0,3.8,0.4,7.5,0.8,11.3
		c-0.1,4.4,0.9,8.5,1.3,12.8c0.3,0,1,0.1,1.4,0.1c0.4,0.7,1,1.2,1.5,1.9c-0.2,1-0.5,2-0.8,3c-1.3,1.1-2.7,2.1-4.5,2.1
		c-0.1,0.7-0.1,1.4-0.2,1.9c1.3-0.9,2.9-2.4,3.9,0c0.1,2.1-1.1,3.9-2,5.6c-0.5-0.5-1-1-1.5-1.5c-0.5-0.1-1-0.1-1.6-0.2
		c0.1,0.3,0.1,0.7,0.1,0.9c0.8,0.7,1.8,1.7,1.3,3c-1,0.7-2.3,1-3.5,1.4c0.3,0.9,0.5,1.9,0.9,2.8c0.7,0.4,1.4,0.9,2.1,1.2
		c0.3-1.5,0.5-2.9,1.1-4.3c1-1,2.4,0.9,3,1.9c-0.5,0.9-1.2,1.9-1.6,2.8c0.7,2,1.4,4,1.3,6.3c0.5,0.4,1.3,0.7,1.8,1
		c0.1,0.7,0.1,1.5,0.1,2.4c-0.8-0.4-1.6-0.6-2.4-0.9c-0.3,4.4-1.3,8.8-2.2,13.2c-0.8-1.5-1.7-2.8-2.9-3.8c-0.4,1.9,0.3,3.4,1.3,4.9
		c-0.2,0.6-0.8,1.9-1,2.4c0.3,0.4,1,1.1,1.4,1.5c1.7-0.7,3.4-1.6,5.1-0.9c0,1.1,0,2.2,0.1,3.4c-0.4,0-1.3,0.1-1.7,0.2
		c0.5,1.5,1,3,1.6,4.4c-2.5,0.9-3.8,3.9-3.8,7c-0.8,2.4-0.2,5.3-1,7.8c0.5,0.5,1.1,0.9,1.7,1.4c-0.2,1.1-0.4,2.1-0.7,3.1
		c0.2,0.4,0.8,1.2,1,1.6c-1.6,1.7-3.3,3.6-4.2,6c0.5,0.5,1.3,1,1.8,1.5c-0.2,1-0.3,1.9-0.5,2.9c1-0.5,2.1-1,3.2-1.4
		c-0.7,1.1-1.4,2.2-2.2,3.4c0.8,0.5,1.5,1,2.2,1.4c0.7,2.4,0.9,4.8,0.9,7.2c0.8,0.1,1.5,0.2,2.3,0.3c-0.7,1.5-2,1.9-3.2,2.4
		c0.3,1.5,0.5,2.9,0.9,4.4c0.8-1.4,1.5-2.6,2.4-3.9c0.2,3.9-0.1,7.5-0.7,11.4c-0.8,0-1.5,0-2.4,0c0,1.4,0,2.9,0,4.3
		c1-0.9,2-1.9,2.8-2.8c0,1.9,0.1,3.9,0.2,5.7c-1-0.4-2.1-0.9-3.2-1.4c0,2.5,0,5,0,7.5c1.5-0.1,2-1.5,2.2-3.1c0,0.2,0.1,0.6,0.1,0.9
		c-0.3,1.5-0.4,3.2-0.5,4.9c-0.3,0-1,0-1.4,0.1c0.2,1.5,0.5,3.1,1,4.6c-0.1,0.3-0.3,0.9-0.4,1.1c0.3,2.4-0.2,4.8-0.4,7
		c0.2,0.4,0.8,1,1,1.4c-0.8,2.2-1,4.6-0.9,7c0.2,0.4,0.7,1,0.9,1.4c-0.1,1.1-0.1,2.2-0.2,3.4c0.2,0.4,0.8,0.9,1,1.1
		c-1.5,1.5-1.2,4.8-3.4,5.5c0.1,0.4,0.3,0.6,0.5,0.9c1-0.7,1.8-1.4,2.8-1.9c-0.1,2.7-0.9,5.3-1.7,7.7c0.2,0.3,0.7,0.7,0.9,1
		c0.1,0.5,0.1,1.5,0.2,1.9c0.7,1.1,1.4,2,2.1,3.1c-1-0.5-1.8-0.9-2.8-1.4c-1.3,2.6,0.2,5.5,0,8.3c-0.1,5.8-0.1,11.7,0,17.5
		c0.1,1.5-0.3,2.8-0.8,4.1c0.7,0.4,1.3,0.7,2,1.1c0,0.4,0.1,1.1,0.1,1.4c-0.3,0-1.1,0-1.5,0c0.1,1.2,0.1,2.4,0.1,3.6
		c0.4,0,1.4,0,1.8,0c-0.1,0.7-0.3,1.4-0.4,2C708.5,313,709.1,313.2,709.8,313.5 M706,102c-1.6,0.4-1.8,1.9-1.6,3.5
		c1.2-0.4,2.4-0.9,3.7-1.1C707.4,103.6,706.7,102.8,706,102 M707,207.2c-2-0.4-1,2.7-1.3,4c0.3,0.1,1,0.3,1.4,0.4
		C707.2,210.2,707.1,208.7,707,207.2 M704.5,313.8c-0.3,0-0.9-0.1-1.2-0.2c0,2.9,0,5.7-0.1,8.6c1-0.1,2.1,0,3-0.3
		C705.9,319.2,705.4,316.3,704.5,313.8 M704.7,55.4c-0.3,0-1.1,0.1-1.5,0.1c-1,1.2-1.1,5.3,0.9,3.9C703.8,58,703.6,56.5,704.7,55.4
		 M702.8,42.3c-0.3,0.1-0.8,0.3-1.2,0.4c-0.6,3.9,0.1,7.8,0.4,11.7c0.3-0.1,1.1-0.2,1.5-0.3C703.5,50.1,702.2,46.4,702.8,42.3
		 M701.6,156.1c-0.4-0.3-1-0.4-1.4-0.6c0,0.2-0.1,0.5-0.1,0.7C700.3,156.2,701.1,156.2,701.6,156.1c0,0.9,0.1,2.5,0.1,3.4
		c-0.3,0.3-1,0.7-1.4,0.9c0,1.4-0.5,2.9,0.1,4.3c0.7,1,0.5,2.2,0.5,3.4c0.4-0.4,0.8-0.7,1.3-1.1c-0.2-0.4-0.5-1.1-0.8-1.5
		c0.8-1.9,0.9-4,0.5-6c0.1,0,0.5-0.1,0.7-0.1C701.7,158.6,702.1,157.2,701.6,156.1 M516.3,523.8c-1.3,0.1-2.5,0.1-3.9,0.2
		c-0.1,1.1-0.1,2.1-0.2,3.3c1.3-0.4,2.5-0.9,3.8-1.4C516.1,525.1,516.2,524.4,516.3,523.8 M515.3,529.3c-0.3-0.1-0.8-0.2-1.1-0.3
		c0,0.5,0,1.4,0,1.9c0.7,0.6,1.3,1.1,2.1,1.7C516,531.5,515.6,530.4,515.3,529.3 M513.3,531.5c-0.9-0.4-1.7-0.7-2.7-1
		c0-0.6,0-1.7,0-2.4c-0.3,0-1.1,0-1.5,0c0.3,1.9,0.5,4,1.6,5.5C512.1,534.4,513.1,533.1,513.3,531.5 M349.6,523
		c-0.8,0.1-1.5,0.1-2.3,0.2c-0.3-0.4-0.8-0.9-1.2-1.1c-0.1,0.4-0.2,1.2-0.3,1.6c-2.4,1.4-3.3-2.6-5.1-3.3c0.4,0.9,0.8,1.6,1.3,2.4
		c-1.3,3-3.4-2.8-4.6,0.6c-0.2-0.6-0.8-1.7-1-2.2c-0.9,0.7-1.7,1.4-2.6,1.9c-1.2-1.4-2.8-0.7-4.5-0.9c-0.5-0.6-1.3-0.7-2-0.9
		c-0.5,0.7-1.2,1.4-1.7,1.9c-0.5-0.7-1-1.4-1.5-1.9c-2.2,1.5-4.5-0.2-6.7,0.1c-0.1-0.5-0.2-1.5-0.3-1.9c-0.3,0.7-0.5,1.4-1,2.1
		c-0.5-0.1-1.3-0.1-1.8-0.1c-0.2-0.3-0.5-0.7-0.8-1c-0.3,0.6-0.8,1.2-1.2,1.9c-1.3-0.1-2.6-0.1-4-0.3c-0.8-0.5-1.7-0.7-2.6-0.9
		c0.2,1.9-1,2.9-2.5,2.7c-0.2-0.4-0.7-0.9-0.9-1.2c-0.1,0.6-0.3,1.6-0.5,2.2c-0.8-0.5-1.7-0.9-2.5-1.4c0.1,0.4,0.2,1.2,0.3,1.6
		c1.5,0.9,3.3,1.4,4.8,0.7c1.6-0.9,3.4-0.5,5.1-0.6c0.8-1.1,1.8-1.9,3.2-1.9c0,0.7-0.1,1.2-0.1,1.9c1.3,0,2.8-0.6,4,0.6
		c1.7,0.2,3.5,0.2,5.1,0.1c0.8-0.9,1.5-1.5,1.7,0.3c0.1-0.4,0.4-1.1,0.5-1.4c0.7,0.4,1.3,0.7,2,1.1c1.1-1.5,2.6-0.4,3.9,0.1
		c0.5-0.6,1-1.1,1.5-1.9c2,0.1,4,0.1,6,0.1c0.3,0.9,0.5,1.5,0.8,2.4c0.3,0,0.9,0.1,1.2,0.1c0-1.1-0.1-2.4-0.1-3.5
		c0.9,0.4,1.7,0.9,2.6,1.2c-0.1,0.6-0.1,1.7-0.1,2.2c0.5-0.1,1.3-0.1,1.8-0.2c0-0.6-0.1-1.9-0.1-2.4c1,0,2.1,0.2,3.2,0.4
		c0.1,0.7,0.2,1.9,0.3,2.6c0.3-0.7,0.8-1.5,1.2-2.2c0.4,0.1,1.4,0.3,1.8,0.4C349.6,524.7,349.6,523.8,349.6,523 M285,498.6
		c-1.8,0-4.1-1.9-5.7,0.4c0.3,0.3,1,0.9,1.3,1.1c2.3-0.7,4.7-0.7,7-0.6C287.3,498,285.9,498.8,285,498.6 M18.7,298
		c-0.3-0.1-0.8-0.4-1-0.5c0.1,1.4,0.1,2.5,0.2,3.9c1.5,2.2-0.4,4-2,4.9c0,0.4-0.1,1.4-0.1,1.9c0.2-0.4,0.7-1,0.9-1.4
		c0.4,0.1,1.3,0.3,1.7,0.4c0-0.5-0.1-1.5-0.1-2c0.4-1.2,1.1-2.4,1.2-3.9C19.3,300,19,299,18.7,298 M9.5,248.5
		c-0.1,1.7,0.1,4.4,2.2,3.5C11.4,250.5,11.3,248.3,9.5,248.5z"/>
	<path class="st0" d="M708.3,134.6c-0.1,2.9-0.1,5.6,0.1,8.5c-0.3-0.1-1-0.4-1.4-0.4c-0.1-1.9-0.3-3.9,0.5-5.5
		C707.6,136.1,707.6,135.1,708.3,134.6z"/>
	<path class="st0" d="M706.4,183.2c0,0.4,0.1,1.4,0.1,1.7c-0.3,0-1.1-0.1-1.5-0.1c0-0.4,0-1.4,0-1.7
		C705.3,183.1,706,183.2,706.4,183.2z"/>
	<path class="st0" d="M705.7,66.4c0.4,0.9,0.4,1.5-0.2,2c-0.8,0-1.4-1.4-0.9-2.1C704.9,66.4,705.3,66.4,705.7,66.4z"/>
	<path class="st0" d="M690.1,524c-0.2,0.3-0.5,0.7-0.8,1c-2.5,0.5-5,1.5-7,3.6c-0.1-0.7-0.2-1.5-0.3-2.1c-0.3-0.3-1-0.9-1.4-1.1
		c0.5-1.1,1.1-2.7,2.4-2.4C685.3,523.4,687.7,523.8,690.1,524z"/>
	<path class="st0" d="M680.8,530.7c0,0.2,0,0.5,0,0.7c-5,0.2-10.2-0.2-15.1,0c0-0.4,0-1.1-0.1-1.5c2.8,0.1,5.8-0.2,8.5,0.9
		c0.3-0.2,0.8-0.6,1.1-0.7C677,531.5,679,530.5,680.8,530.7z"/>
	<path class="st0" d="M600.6,5.4c-0.5,0.5-1,1.2-1.8,1.1c-5.2,0.2-10.5,1.4-15.6-0.1c1.4-0.5,2.8-1.1,4.3-1.1
		C591.8,5.4,596.3,5,600.6,5.4z"/>
	<path class="st0" d="M503.6,533.4c0.3,1.2,0,1.7-1,1.4C502.3,533.4,502.7,533,503.6,533.4z"/>
	<path class="st0" d="M499.3,535.3c0,0.4-0.1,1.1-0.1,1.5c-0.9-1-1.8-1.7-2.9-1.9c-0.3-0.9-0.5-1.9-0.8-2.6c0.9-0.4,1.8-0.7,2.7-1.1
		c-0.3,1.4-0.5,2.7-0.8,4C497.8,535.2,498.8,535.2,499.3,535.3z"/>
	<path class="st0" d="M480.7,531c0.8,1,2,1.7,2,3.2c0,2.1-2.1,2.9-3.5,2.9C479.9,535.1,479.9,532.8,480.7,531z"/>
	<path class="st0" d="M47.2,531c1.8,1-1,3.4-1.3,1C46.3,531.7,46.8,531.2,47.2,531z"/>
	<path class="st0" d="M44.4,530.8c0.1,0.7,0.2,1.5,0.3,2.2c-1.6,0-3.3-0.6-4.8-1.4C41.4,531.3,42.9,531,44.4,530.8z"/>
	<path class="st0" d="M18.9,479.4c-0.5,4.4,2.3,9.3-0.3,13.2c-1-4.3-0.7-8.8-1-13.2C17.9,479.4,18.6,479.4,18.9,479.4z"/>
	<path class="st0" d="M16.6,460.3c0.1,1.5-1.2,1.9-2.2,1.7c0.4-1.1,0.8-2.2,1-3.4c-0.9,0.4-1.8,0.9-2.7,1.4c0-0.3-0.1-0.7-0.1-1
		c1,0,1.5-0.6,1.5-1.7c0.5,0,1,0.1,1.5,0.1C15.6,458.6,16,459.5,16.6,460.3z"/>
	<path class="st0" d="M13.9,445.2c1.3-0.2,2.3,0.1,2.1,2c-1.7-0.1-3.5,0.7-4.9,1.9c-0.3-0.4-1.2-0.9-1.5-1.2c0-1.4,0-2.5,0-3.9
		c0.5,0,1.5,0.1,2,0.2c0-0.2,0.1-0.5,0.1-0.7c-0.5,0-1.7,0.1-2.2,0.2l0.1-1.9c1.5,0,3,0.1,4.6,0.2C14,443.2,13.9,444.1,13.9,445.2z"
		/>
	<path class="st0" d="M13.7,433.5c1,1.9,0.7,4.1,0.2,6.2c-0.9,0-1.7,0-2.7,0c0.3-1.4,2.2-2,1.6-3.8c-0.5-0.1-1.6-0.2-2.2-0.3
		c0.7-0.2,1.3-0.4,2-0.5C12.9,434.7,13.4,434.1,13.7,433.5z"/>
	<path class="st0" d="M7.5,344.5c2.2-0.1,4.9-0.9,6.3,1.9c-1.6,2-4,0.4-6,0.2C7.6,346,7.5,344.9,7.5,344.5z"/>
	<path class="st0" d="M12.1,461.9c0,0.7,0,1.4,0,2.1c-0.7,0.4-1.3,0.7-2,1.1c0,0.4-0.1,1.4-0.1,1.7c-0.3,0.5-0.8,1-1.2,1.5
		c0.1-0.5,0.3-1.5,0.4-2c-1,0-2,0.1-2.9,0.1c0.2-0.9,0.4-1.9,1.1-2.4c0.3,1.5,1.2,2.1,2.4,1.9c-0.1-1.4-0.4-2.5-1.3-3.4
		c0.3-0.9,0.8-1.6,1.1-2.4C10.5,460.7,11.3,461.3,12.1,461.9z"/>
	<path class="st0" d="M6.4,442.3c2.1,1,2.4,4.1,2.6,6.5c-0.8-0.4-1.6-0.7-2.5-1C6.4,446,6.3,444.1,6.4,442.3z"/>
</g>
</svg>
